<svg width="512" height="512" viewBox="0 0 512 512" fill="none" xmlns="http://www.w3.org/2000/svg">
<path fill-rule="evenodd" clip-rule="evenodd" d="M256 470C374.189 470 470 374.189 470 256C470 137.811 374.189 42 256 42C137.811 42 42 137.811 42 256C42 374.189 137.811 470 256 470ZM152.449 165.05L149.774 337.754V353.804L157.357 343.682L227.349 245.3L312.949 346.95H379.824L328.999 293.45C339.865 293.45 365.036 288.992 379.824 269.375C386.879 260.016 390.524 243.734 390.524 229.25C390.524 191.8 368.232 172.183 350.399 165.05H152.449ZM330.127 212.79H201.727L227.487 244.89H330.127C336.037 244.89 340.827 240.099 340.827 234.19V223.49C340.827 217.58 336.037 212.79 330.127 212.79Z" fill="#141414"/>
</svg>
