<svg width="101" height="100" viewBox="0 0 101 100" fill="none" xmlns="http://www.w3.org/2000/svg">
<g clip-path="url(#clip0_49_5757)">
<path d="M50.25 100C77.8642 100 100.25 77.6142 100.25 50C100.25 22.3858 77.8642 0 50.25 0C22.6358 0 0.25 22.3858 0.25 50C0.25 77.6142 22.6358 100 50.25 100Z" fill="#33495F"/>
<mask id="mask0_49_5757" style="mask-type:luminance" maskUnits="userSpaceOnUse" x="0" y="0" width="101" height="100">
<path d="M100.25 50C100.25 77.614 77.863 100 50.25 100C22.636 100 0.25 77.614 0.25 50C0.25 22.386 22.636 0 50.25 0H100.25V50Z" fill="white"/>
</mask>
<g mask="url(#mask0_49_5757)">
<path opacity="0.2" d="M31.25 19.5C33.8 19.05 35.301 17.55 35.75 15C36.2 17.55 37.701 19.05 40.25 19.5C37.701 19.951 36.2 21.45 35.75 24C35.301 21.45 33.8 19.951 31.25 19.5Z" fill="white"/>
</g>
<mask id="mask1_49_5757" style="mask-type:luminance" maskUnits="userSpaceOnUse" x="0" y="0" width="101" height="100">
<path d="M100.25 50C100.25 77.614 77.863 100 50.25 100C22.636 100 0.25 77.614 0.25 50C0.25 22.386 22.636 0 50.25 0H100.25V50Z" fill="white"/>
</mask>
<g mask="url(#mask1_49_5757)">
<path opacity="0.1" d="M71.25 74.5C73.8 74.05 75.301 72.55 75.75 70C76.2 72.55 77.701 74.05 80.25 74.5C77.701 74.951 76.2 76.45 75.75 79C75.301 76.45 73.8 74.951 71.25 74.5ZM11.25 64.5C13.8 64.05 15.301 62.55 15.75 60C16.2 62.55 17.701 64.05 20.25 64.5C17.701 64.951 16.2 66.45 15.75 69C15.301 66.45 13.8 64.951 11.25 64.5Z" fill="white"/>
</g>
<mask id="mask2_49_5757" style="mask-type:luminance" maskUnits="userSpaceOnUse" x="0" y="0" width="101" height="100">
<path d="M100.25 50C100.25 77.614 77.863 100 50.25 100C22.636 100 0.25 77.614 0.25 50C0.25 22.386 22.636 0 50.25 0H100.25V50Z" fill="white"/>
</mask>
<g mask="url(#mask2_49_5757)">
<path d="M100.25 0.1C100.094 0.118 100.133 0.158 100.15 0C76.834 2.979 63.611 12.281 56.115 22.035C55.8499 22.3806 55.5892 22.7297 55.333 23.082L55.325 23.092C47.265 34.196 46.337 45.812 46.25 49H45.25L44.25 52L48.25 56L51.25 55V54C53.6237 53.9538 55.9885 53.6951 58.316 53.227L58.318 53.229C59.047 53.047 59.25 53.305 59.25 57V66C59.25 67.809 60.193 68.497 61.195 67.494C63.618 65.066 64.198 64.471 69.695 58.966C73.855 54.799 74.371 52.371 72.652 47.907C84.203 41.369 96.682 27.888 100.25 0.1Z" fill="#E94B35"/>
<path d="M48.25 56L44.25 52L45.25 49H47.25L51.25 53V55L48.25 56ZM52.25 28C50.532 27.31 50.25 27 48.25 27C46.25 27 44.067 28.38 41.389 31.063C37.135 35.322 36.539 35.902 32.873 39.571C31.675 40.771 33.513 41 36.25 41C41.483 41 45.547 40.875 47.041 42.42C49.014 44.46 52.25 28 52.25 28ZM100.25 0C99.611 4.973 98.684 9.579 97.529 13.678C96.48 11.708 94.967 9.314 93.029 7.406C90.878 5.286 88.217 3.774 86.203 2.821C92.229 1.091 97.033 0.412 100.25 0Z" fill="#C23824"/>
<path opacity="0.3" d="M72.652 47.907C74.371 52.37 73.964 54.695 69.798 58.861C68.954 59.705 61.97 66.72 61.194 67.494C60.191 68.496 59.283 67.809 59.25 66V65.348C62.25 62.348 68.939 56.41 70.25 54C71.018 52.589 70.602 50.346 70.25 49C66.938 50.76 58.734 53.094 58.318 53.229C55.156 53.875 52.717 53.943 51.25 54V53.344C51.25 53.344 81.225 43.681 100.25 0C96.656 28.047 84.203 41.369 72.652 47.907Z" fill="white"/>
<path d="M77.75 28C74.166 28 71.25 25.084 71.25 21.5C71.25 17.916 74.166 15 77.75 15C81.334 15 84.25 17.916 84.25 21.5C84.25 25.084 81.334 28 77.75 28Z" fill="white"/>
<path d="M77.75 16C79.2087 16 80.6076 16.5795 81.6391 17.6109C82.6705 18.6424 83.25 20.0413 83.25 21.5C83.25 22.9587 82.6705 24.3576 81.6391 25.3891C80.6076 26.4205 79.2087 27 77.75 27C76.2913 27 74.8924 26.4205 73.8609 25.3891C72.8295 24.3576 72.25 22.9587 72.25 21.5C72.25 20.0413 72.8295 18.6424 73.8609 17.6109C74.8924 16.5795 76.2913 16 77.75 16ZM77.75 14C73.613 14 70.25 17.364 70.25 21.5C70.25 25.636 73.613 29 77.75 29C81.887 29 85.25 25.636 85.25 21.5C85.25 17.364 81.887 14 77.75 14Z" fill="#C23824"/>
<path d="M44.25 52L48.25 56L13.25 92L7.25 86L44.25 52Z" fill="#D7DCDE"/>
<path d="M44.125 52L46.125 54L7.75 91.5L4.75 88.5L44.125 52Z" fill="#F7F7F7"/>
</g>
</g>
<defs>
<clipPath id="clip0_49_5757">
<rect width="100" height="100" fill="white" transform="translate(0.25)"/>
</clipPath>
</defs>
</svg>
