<svg width="101" height="100" viewBox="0 0 101 100" fill="none" xmlns="http://www.w3.org/2000/svg">
<g clip-path="url(#clip0_49_5784)">
<path d="M46.087 11.319C47.7164 11.1099 49.3573 11.0033 51 11C53.033 11 55.029 11.156 56.979 11.456L51.5 0L46.087 11.319ZM1 49.5L12.318 54.913C12.1092 53.2836 12.003 51.6427 12 50C12 47.967 12.156 45.97 12.456 44.021L1 49.5ZM20.082 26.24C22.3037 23.3509 24.9176 20.7859 27.848 18.619L16.145 14.643L20.082 26.24ZM82.186 26.58L86.856 14.643L75.01 19.279C77.7102 21.3892 80.1227 23.8437 82.186 26.58ZM75.053 80.688L85.856 84.357L82.155 73.46C80.1093 76.1655 77.7222 78.595 75.053 80.688ZM20.082 73.76L16.144 85.357L27.013 80.743C24.4199 78.7141 22.0914 76.3682 20.082 73.76ZM46.087 88.681L51.5 100L56.979 88.544C55.029 88.844 53.033 89 51 89C49.3573 88.9967 47.7164 88.8901 46.087 88.681Z" fill="#CAA40B"/>
<path d="M46.087 11.319C47.7164 11.1099 49.3573 11.0033 51 11C53.033 11 55.029 11.156 56.979 11.456L51.5 0L46.087 11.319ZM1 49.5L12.318 54.913C12.1092 53.2836 12.003 51.6427 12 50C12 47.967 12.156 45.97 12.456 44.021L1 49.5ZM20.082 26.24C22.3037 23.3509 24.9176 20.7859 27.848 18.619L16.145 14.643L20.082 26.24ZM82.186 26.58L86.856 14.643L75.01 19.279C77.7102 21.3892 80.1227 23.8437 82.186 26.58ZM75.053 80.688L85.856 84.357L82.155 73.46C80.1093 76.1655 77.7222 78.595 75.053 80.688ZM20.082 73.76L16.144 85.357L27.013 80.743C24.4199 78.7141 22.0914 76.3682 20.082 73.76ZM46.087 88.681L51.5 100L56.979 88.544C55.029 88.844 53.033 89 51 89C49.3573 88.9967 47.7164 88.8901 46.087 88.681Z" fill="#CAA40B"/>
<path d="M34.104 7.32416L33.666 15.0632C35.7471 14.0291 37.9172 13.1851 40.15 12.5412L34.104 7.32416ZM14.039 37.5592C14.7321 35.4907 15.5988 33.4846 16.63 31.5622L8.996 32.0392L14.039 37.5592ZM69.561 7.01416L63.104 12.9252C65.5396 13.7201 67.8905 14.7545 70.122 16.0132L69.561 7.01416ZM9.561 68.1352L16.413 68.0152C15.5352 66.3326 14.7818 64.5879 14.159 62.7952L9.561 68.1352ZM34.852 93.0142L40.737 87.6262C38.5508 87.0319 36.4209 86.2469 34.372 85.2802L34.852 93.0142ZM69.797 91.4962L70.225 83.9282C68.3094 85.0198 66.3041 85.9458 64.231 86.6962L69.797 91.4962Z" fill="#F1C411"/>
<path d="M34.104 7.32416L33.666 15.0632C35.7471 14.0291 37.9172 13.1851 40.15 12.5412L34.104 7.32416ZM14.039 37.5592C14.7321 35.4907 15.5988 33.4846 16.63 31.5622L8.996 32.0392L14.039 37.5592ZM69.561 7.01416L63.104 12.9252C65.5396 13.7201 67.8905 14.7545 70.122 16.0132L69.561 7.01416ZM9.561 68.1352L16.413 68.0152C15.5352 66.3326 14.7818 64.5879 14.159 62.7952L9.561 68.1352ZM34.852 93.0142L40.737 87.6262C38.5508 87.0319 36.4209 86.2469 34.372 85.2802L34.852 93.0142ZM69.797 91.4962L70.225 83.9282C68.3094 85.0198 66.3041 85.9458 64.231 86.6962L69.797 91.4962Z" fill="#F1C411"/>
<path d="M51 14C70.882 14 87 30.117 87 50C87 69.882 70.882 86 51 86C31.117 86 15 69.882 15 50C15 30.117 31.117 14 51 14Z" fill="#F6D759"/>
<path d="M55 81.9999C35.118 81.9999 19 65.8819 19 45.9999C19 37.0769 22.253 28.9189 27.629 22.6289C19.902 29.2319 15 39.0409 15 49.9999C15 69.8819 31.118 85.9999 51 85.9999C61.973 85.9999 71.781 81.0829 78.387 73.3449C72.094 78.7319 63.934 81.9999 55 81.9999Z" fill="#DDC14E"/>
<path d="M78.387 73.3452C72.094 78.7332 63.934 82.0002 54.999 82.0002C41.982 82.0002 30.582 75.0912 24.258 64.7412L20.258 68.7412C26.582 79.0912 37.982 86.0002 50.999 86.0002C61.971 86.0002 71.781 81.0832 78.387 73.3452Z" fill="#C5AE47"/>
<mask id="mask0_49_5784" style="mask-type:luminance" maskUnits="userSpaceOnUse" x="15" y="14" width="72" height="72">
<path d="M51 86C70.8823 86 87 69.8823 87 50C87 30.1177 70.8823 14 51 14C31.1177 14 15 30.1177 15 50C15 69.8823 31.1177 86 51 86Z" fill="white"/>
</mask>
<g mask="url(#mask0_49_5784)">
<path d="M48 41L3 86H87V41H48Z" fill="#DCC050"/>
</g>
<path d="M96.584 49.709C97.166 48.079 97.5 46.33 97.5 44.5C97.5 35.939 90.561 29 82 29C75.477 29 69.904 33.034 67.618 38.74C65.1905 36.3401 61.9135 34.9959 58.5 35C51.32 35 45.5 40.82 45.5 48C45.5 51.062 46.564 53.872 48.338 56.094C44.473 56.658 41.5 59.978 41.5 64C41.5 66.1217 42.3429 68.1566 43.8431 69.6568C45.3434 71.1571 47.3783 72 49.5 72H87.5C94.68 72 100.5 66.18 100.5 59C100.5 55.357 98.998 52.069 96.584 49.709Z" fill="white"/>
<path d="M96.584 49.709C97.166 48.079 97.5 46.33 97.5 44.5C97.5 35.939 90.561 29 82 29C75.477 29 69.904 33.034 67.618 38.74C65.1905 36.3401 61.9135 34.9959 58.5 35C51.32 35 45.5 40.82 45.5 48C45.5 51.062 46.564 53.872 48.338 56.094C44.473 56.658 41.5 59.978 41.5 64C41.5 66.1217 42.3429 68.1566 43.8431 69.6568C45.3434 71.1571 47.3783 72 49.5 72H87.5C94.68 72 100.5 66.18 100.5 59C100.5 55.357 98.998 52.069 96.584 49.709Z" fill="white"/>
</g>
<defs>
<clipPath id="clip0_49_5784">
<rect width="100" height="100" fill="white" transform="translate(0.75)"/>
</clipPath>
</defs>
</svg>
