<svg width="22" height="20" viewBox="0 0 22 20" fill="none" xmlns="http://www.w3.org/2000/svg">
<path d="M21 15.5H1M21 19V14C21 12.114 21 11.172 20.414 10.586C19.828 10 18.886 10 17 10M17 10H5M17 10V8.213C17 7.833 16.943 7.705 16.65 7.555C16.04 7.243 15.299 7 14.5 7C13.701 7 12.96 7.243 12.35 7.555C12.057 7.705 12 7.833 12 8.213V10M5 10C3.114 10 2.172 10 1.586 10.586C1 11.172 1 12.114 1 14V19M5 10V8.213C5 7.833 5.057 7.705 5.35 7.555C5.96 7.243 6.701 7 7.5 7C8.299 7 9.04 7.243 9.65 7.555C9.943 7.705 10 7.833 10 8.213V10" stroke="#0D1A27" stroke-width="1.5" stroke-linecap="round" stroke-linejoin="round"/>
<path d="M20 10V5.36C20 4.669 20 4.323 19.808 3.997C19.616 3.671 19.342 3.501 18.794 3.163C16.587 1.8 13.9 1 11 1C8.1 1 5.413 1.8 3.206 3.163C2.658 3.501 2.384 3.67 2.192 3.997C2 4.324 2 4.669 2 5.36V10" stroke="#0D1A27" stroke-width="1.5" stroke-linecap="round" stroke-linejoin="round"/>
</svg>
