<svg width="20" height="20" viewBox="0 0 20 20" fill="none" xmlns="http://www.w3.org/2000/svg">
<path d="M19 19C17.8181 19 16.6478 18.7672 15.5558 18.3149C14.4639 17.8626 13.4718 17.1997 12.636 16.364C11.8003 15.5282 11.1374 14.5361 10.6851 13.4442C10.2328 12.3522 10 11.1819 10 10C10 8.8181 10.2328 7.64778 10.6851 6.55585C11.1374 5.46392 11.8003 4.47177 12.636 3.63604C13.4718 2.80031 14.4639 2.13738 15.5558 1.68508C16.6478 1.23279 17.8181 1 19 1M4 1V6M4 19V9M1.5 6H6.5M7 1V5.352C7 10.216 1 10.216 1 5.352V1" stroke="#0D1A27" stroke-width="1.5" stroke-linecap="round" stroke-linejoin="round"/>
</svg>
