<svg width="25" height="24" viewBox="0 0 25 24" fill="none" xmlns="http://www.w3.org/2000/svg">
<path d="M15.1667 9C15.1667 9.66304 14.9033 10.2989 14.4344 10.7678C13.9656 11.2366 13.3297 11.5 12.6667 11.5C12.0036 11.5 11.3677 11.2366 10.8989 10.7678C10.43 10.2989 10.1667 9.66304 10.1667 9C10.1667 8.33696 10.43 7.70107 10.8989 7.23223C11.3677 6.76339 12.0036 6.5 12.6667 6.5C13.3297 6.5 13.9656 6.76339 14.4344 7.23223C14.9033 7.70107 15.1667 8.33696 15.1667 9Z" stroke="white" stroke-width="1.5" strokeLinecap="round" strokeLinejoin="round"/>
<path d="M18.6666 20C18.6666 21.105 15.9806 22 12.6666 22C9.35265 22 6.66665 21.105 6.66665 20M13.9236 17.494C13.5859 17.819 13.1354 18.0005 12.6666 18.0005C12.1979 18.0005 11.7474 17.819 11.4096 17.494C8.32065 14.501 4.18165 11.158 6.19965 6.304C7.29265 3.679 9.91265 2 12.6666 2C15.4206 2 18.0416 3.68 19.1336 6.304C21.1496 11.151 17.0206 14.511 13.9236 17.494Z" stroke="white" stroke-width="1.5" strokeLinecap="round" strokeLinejoin="round"/>
</svg>
