<svg width="25" height="24" viewBox="0 0 25 24" fill="none" xmlns="http://www.w3.org/2000/svg">
<path d="M2.66666 6L9.57966 9.917C12.1287 11.361 13.2047 11.361 15.7537 9.917L22.6667 6" stroke="white" stroke-width="1.5" strokeLinecap="round" strokeLinejoin="round"/>
<path d="M2.68265 13.4761C2.74765 16.5411 2.78065 18.0741 3.91165 19.2091C5.04265 20.3451 6.61665 20.3841 9.76565 20.4631C11.7057 20.5131 13.6277 20.5131 15.5677 20.4631C18.7167 20.3841 20.2906 20.3451 21.4216 19.2091C22.5526 18.0741 22.5857 16.5411 22.6517 13.4761C22.6717 12.4901 22.6717 11.5101 22.6517 10.5241C22.5857 7.45908 22.5526 5.92608 21.4216 4.79108C20.2906 3.65508 18.7167 3.61608 15.5677 3.53708C13.634 3.48829 11.6993 3.48829 9.76565 3.53708C6.61665 3.61608 5.04265 3.65508 3.91165 4.79108C2.78065 5.92608 2.74765 7.45908 2.68165 10.5241C2.6606 11.508 2.6616 12.4922 2.68265 13.4761Z" stroke="white" stroke-width="1.5" strokeLinecap="round" strokeLinejoin="round"/>
</svg>
