<svg width="25" height="24" viewBox="0 0 25 24" fill="none" xmlns="http://www.w3.org/2000/svg">
<path d="M4.44467 11.9422C3.49667 10.2902 3.03867 8.94016 2.76267 7.57216C2.35467 5.54816 3.28867 3.57116 4.83567 2.30916C5.48967 1.77616 6.23967 1.95916 6.62667 2.65216L7.49967 4.21916C8.19167 5.46116 8.53767 6.08116 8.46967 6.73916C8.40067 7.39816 7.93367 7.93416 7.00067 9.00616L4.44467 11.9422ZM4.44467 11.9422C6.36367 15.2882 9.37467 18.3022 12.7247 20.2222M12.7247 20.2222C14.3777 21.1702 15.7267 21.6282 17.0947 21.9042C19.1187 22.3122 21.0957 21.3782 22.3567 19.8312C22.8907 19.1772 22.7077 18.4272 22.0147 18.0402L20.4477 17.1672C19.2057 16.4752 18.5857 16.1292 17.9277 16.1972C17.2687 16.2662 16.7327 16.7332 15.6607 17.6662L12.7247 20.2222Z" stroke="white" stroke-width="1.5" strokeLinecap="round" strokeLinejoin="round"/>
</svg>
