<svg width="24" height="24" viewBox="0 0 24 24" fill="none" xmlns="http://www.w3.org/2000/svg">
<path d="M5.5 7.49949L2.5 7.99949C3.315 4.24249 5.682 3.00299 8 2.99949C9.4985 2.99699 10.976 3.51249 12 3.99949C13.024 3.51249 14.5 2.99949 16 2.99949C18.3055 2.99949 20.685 4.24249 21.5 7.99949L18.5 7.49949C18.7795 8.54949 19.394 10.3955 18.5 11.9995C17.01 10.663 13.565 8.64499 12 7.49949C10.435 8.64499 6.99 10.663 5.5 11.9995C4.606 10.396 5.2205 8.54949 5.5 7.49949Z" stroke="white" stroke-width="1.5" strokeLinecap="round" strokeLinejoin="round"/>
<path d="M12 7.5C11.6225 9.4445 11.0945 14.2665 12 18" stroke="white" stroke-width="1.5" strokeLinecap="round" strokeLinejoin="round"/>
<path d="M6 21H18C15.6065 18.7075 14.5 18.0025 12 18C9.5 17.9975 6.946 19.691 6 21Z" stroke="white" stroke-width="1.5" strokeLinecap="round" strokeLinejoin="round"/>
</svg>
