<svg width="20" height="20" viewBox="0 0 20 20" fill="none" xmlns="http://www.w3.org/2000/svg">
<path d="M13.8667 1.77998C14.7927 1.03198 15.8307 0.985981 16.9637 1.00198C17.5507 1.01098 17.8437 1.01498 18.0787 1.10598C18.4517 1.25098 18.7487 1.54798 18.8937 1.92098C18.9847 2.15598 18.9887 2.44898 18.9977 3.03598C19.0137 4.16898 18.9677 5.20598 18.2197 6.13298C17.5897 6.91298 16.5057 7.32098 15.9847 8.18298C15.5867 8.83898 15.7717 9.51998 15.9427 10.221L17.2227 15.466C17.4777 16.512 17.2827 17.181 16.5527 17.912C16.1637 18.302 15.8397 18.282 15.5247 17.779L11.6627 11.625L9.81774 13.091C9.14874 13.623 8.81474 13.889 8.63874 14.263C8.22774 15.139 8.48874 16.455 8.50174 17.405C8.50974 17.93 8.05574 18.965 7.41374 18.999C7.01774 19.021 6.88274 18.547 6.75374 18.256L5.52174 15.454C5.22774 14.784 5.21574 14.772 4.54574 14.478L1.74374 13.245C1.45374 13.117 0.978738 12.982 1.00074 12.586C1.03574 11.944 2.07074 11.49 2.59474 11.498C3.54474 11.511 4.86074 11.772 5.73674 11.361C6.11074 11.185 6.37674 10.851 6.90874 10.181L8.37474 8.33698L2.22074 4.47498C1.71774 4.15898 1.69874 3.83598 2.08774 3.44698C2.81774 2.71698 3.48774 2.52198 4.53374 2.77698L9.77874 4.05698C10.4787 4.22798 11.1607 4.41298 11.8177 4.01498C12.6787 3.49498 13.0867 2.41098 13.8667 1.77998Z" stroke="#0D1A27" stroke-width="1.5" stroke-linecap="round" stroke-linejoin="round"/>
</svg>
