<svg width="13" height="13" viewBox="0 0 13 13" fill="none" xmlns="http://www.w3.org/2000/svg">
<path d="M5.69712 0.809778C5.96172 0.0485517 7.03828 0.0485525 7.30288 0.809779L8.30427 3.69065C8.421 4.02646 8.73438 4.25415 9.08983 4.26139L12.1391 4.32353C12.9449 4.33995 13.2776 5.36382 12.6354 5.8507L10.2049 7.69332C9.92163 7.9081 9.80192 8.27651 9.90487 8.6168L10.7881 11.5361C11.0214 12.3074 10.1505 12.9402 9.48898 12.4799L6.9855 10.7378C6.69368 10.5348 6.30632 10.5348 6.0145 10.7378L3.51102 12.4799C2.84952 12.9402 1.97857 12.3074 2.21194 11.5361L3.09513 8.6168C3.19808 8.27651 3.07837 7.9081 2.79507 7.69332L0.364646 5.8507C-0.277556 5.36382 0.0551178 4.33995 0.860853 4.32353L3.91017 4.26139C4.26562 4.25415 4.579 4.02646 4.69573 3.69065L5.69712 0.809778Z" fill="#D3D3D3"/>
</svg>
