<svg width="22" height="16" viewBox="0 0 22 16" fill="none" xmlns="http://www.w3.org/2000/svg">
<path d="M8.00684 13C8.00684 13.5304 7.79612 14.0391 7.42105 14.4142C7.04598 14.7893 6.53727 15 6.00684 15C5.4764 15 4.9677 14.7893 4.59262 14.4142C4.21755 14.0391 4.00684 13.5304 4.00684 13C4.00684 12.4696 4.21755 11.9609 4.59262 11.5858C4.9677 11.2107 5.4764 11 6.00684 11C6.53727 11 7.04598 11.2107 7.42105 11.5858C7.79612 11.9609 8.00684 12.4696 8.00684 13ZM18.0068 13C18.0068 13.5304 17.7961 14.0391 17.421 14.4142C17.046 14.7893 16.5373 15 16.0068 15C15.4764 15 14.9677 14.7893 14.5926 14.4142C14.2176 14.0391 14.0068 13.5304 14.0068 13C14.0068 12.4696 14.2176 11.9609 14.5926 11.5858C14.9677 11.2107 15.4764 11 16.0068 11C16.5373 11 17.046 11.2107 17.421 11.5858C17.7961 11.9609 18.0068 12.4696 18.0068 13Z" stroke="#0D1A27" stroke-width="1.5" stroke-linecap="round" stroke-linejoin="round"/>
<path d="M1.00684 6H17.0068M1.00684 6C1.00684 6.78 0.986836 9.04 1.01084 11.26C1.04684 11.98 1.16684 12.58 4.00884 13M1.00684 6C1.22284 4.26 2.16184 2.2 2.64184 1.42M8.00684 6V1M13.9968 13H8.00184M1.02184 1H11.2398C11.2398 1 11.7798 1 12.2598 1.048C13.1588 1.132 13.9138 1.54 14.6698 2.56C15.4698 3.64 16.0838 5.008 16.8998 5.74C18.2548 6.956 20.8328 6.58 20.9768 9.16C21.0128 10.48 21.0128 11.92 20.9528 12.16C20.8558 12.867 20.3108 12.982 19.6328 13C19.0448 13.016 18.3358 12.972 17.9908 13" stroke="#0D1A27" stroke-width="1.5" stroke-linecap="round" stroke-linejoin="round"/>
</svg>
