<svg width="22" height="22" viewBox="0 0 22 22" fill="none" xmlns="http://www.w3.org/2000/svg">
<path d="M10 11H12M10 14H12M10 17H12M13 7H9C6.518 7 6 7.518 6 10V21H16V10C16 7.518 15.482 7 13 7Z" stroke="#4877C1" stroke-width="1.5" stroke-linecap="round" stroke-linejoin="round"/>
<path d="M20 21V7.18599C20 5.95699 20 5.34299 19.701 4.84999C19.403 4.35599 18.865 4.08099 17.789 3.53199L13.447 1.31499C12.287 0.722989 12 0.931989 12 2.22999V6.70399M2 21V12C2 11.173 2.173 11 3 11H6M21 21H1" stroke="#4877C1" stroke-width="1.5" stroke-linecap="round" stroke-linejoin="round"/>
</svg>
