<svg width="22" height="20" viewBox="0 0 22 20" fill="none" xmlns="http://www.w3.org/2000/svg">
<path d="M18.463 1.99401C15.781 0.349014 13.44 1.01101 12.034 2.06701C11.458 2.50001 11.17 2.71701 11 2.71701C10.83 2.71701 10.542 2.50001 9.96598 2.06701C8.55998 1.01101 6.21898 0.350014 3.53698 1.99401C0.0179811 4.15201 -0.778019 11.274 7.33998 17.283C8.88598 18.427 9.65898 18.999 11 18.999C12.341 18.999 13.114 18.427 14.66 17.283C22.778 11.274 21.982 4.15401 18.463 1.99401Z" stroke="#0D1A27" stroke-width="1.5" stroke-linecap="round" stroke-linejoin="round"/>
<path d="M15 11H14C13.545 11 13.066 11.035 12.657 10.721C12.501 10.601 12.397 10.436 12.191 10.106L10.5 7L7.5 12L5.943 9.832C5.687 9.525 5.437 9.213 5.098 9.09C4.852 9 4.568 9 4 9H2" stroke="#0D1A27" stroke-width="1.5" stroke-linecap="round" stroke-linejoin="round"/>
</svg>
