<svg width="20" height="21" viewBox="0 0 20 21" fill="none" xmlns="http://www.w3.org/2000/svg">
<path d="M10 2.37803C12.6506 2.37803 13.0121 2.37803 14.0964 2.37803C15.0602 2.37803 15.5422 2.61899 15.9036 2.73948C16.3855 2.98044 16.747 3.10092 17.1084 3.46237C17.4699 3.82381 17.7108 4.18526 17.8313 4.66719C17.9518 5.02863 18.0723 5.51056 18.1928 6.47442C18.1928 7.55875 18.1928 7.79972 18.1928 10.5708C18.1928 13.3419 18.1928 13.5829 18.1928 14.6672C18.1928 15.631 17.9518 16.113 17.8313 16.4744C17.5904 16.9563 17.4699 17.3178 17.1084 17.6792C16.747 18.0407 16.3855 18.2816 15.9036 18.4021C15.5422 18.5226 15.0602 18.6431 14.0964 18.7636C13.0121 18.7636 12.7711 18.7636 10 18.7636C7.22892 18.7636 6.98795 18.7636 5.90362 18.7636C4.93976 18.7636 4.45783 18.5226 4.09639 18.4021C3.61446 18.1612 3.25301 18.0407 2.89157 17.6792C2.53012 17.3178 2.28916 16.9563 2.16868 16.4744C2.04819 16.113 1.92771 15.631 1.80723 14.6672C1.80723 13.5829 1.80723 13.3419 1.80723 10.5708C1.80723 7.79972 1.80723 7.55875 1.80723 6.47442C1.80723 5.51056 2.04819 5.02863 2.16868 4.66719C2.40964 4.18526 2.53012 3.82381 2.89157 3.46237C3.25301 3.10092 3.61446 2.85996 4.09639 2.73948C4.45783 2.61899 4.93976 2.49851 5.90362 2.37803C6.98795 2.37803 7.3494 2.37803 10 2.37803ZM10 0.570801C7.22892 0.570801 6.98795 0.570801 5.90362 0.570801C4.81928 0.570801 4.09639 0.811765 3.49398 1.05273C2.89157 1.29369 2.28916 1.65514 1.68675 2.25755C1.08434 2.85996 0.843374 3.34189 0.481928 4.06478C0.240965 4.66719 0.120482 5.39008 0 6.47442C0 7.55875 0 7.9202 0 10.5708C0 13.3419 0 13.5829 0 14.6672C0 15.7515 0.240965 16.4744 0.481928 17.0768C0.722892 17.6792 1.08434 18.2816 1.68675 18.8841C2.28916 19.4865 2.77109 19.7274 3.49398 20.0889C4.09639 20.3298 4.81928 20.4503 5.90362 20.5708C6.98795 20.5708 7.3494 20.5708 10 20.5708C12.6506 20.5708 13.0121 20.5708 14.0964 20.5708C15.1807 20.5708 15.9036 20.3298 16.506 20.0889C17.1084 19.8479 17.7108 19.4865 18.3133 18.8841C18.9157 18.2816 19.1566 17.7997 19.5181 17.0768C19.759 16.4744 19.8795 15.7515 20 14.6672C20 13.5829 20 13.2214 20 10.5708C20 7.9202 20 7.55875 20 6.47442C20 5.39008 19.759 4.66719 19.5181 4.06478C19.2771 3.46237 18.9157 2.85996 18.3133 2.25755C17.7108 1.65514 17.2289 1.41418 16.506 1.05273C15.9036 0.811765 15.1807 0.691283 14.0964 0.570801C13.0121 0.570801 12.7711 0.570801 10 0.570801Z" fill="white"/>
<path d="M10 5.39008C7.10843 5.39008 4.81928 7.67924 4.81928 10.5708C4.81928 13.4624 7.10843 15.7515 10 15.7515C12.8916 15.7515 15.1807 13.4624 15.1807 10.5708C15.1807 7.67924 12.8916 5.39008 10 5.39008ZM10 13.9443C8.19277 13.9443 6.62651 12.4985 6.62651 10.5708C6.62651 8.76357 8.07229 7.19731 10 7.19731C11.8072 7.19731 13.3735 8.64309 13.3735 10.5708C13.3735 12.378 11.8072 13.9443 10 13.9443Z" fill="white"/>
<path d="M15.3012 6.47442C15.9666 6.47442 16.506 5.935 16.506 5.2696C16.506 4.60419 15.9666 4.06478 15.3012 4.06478C14.6358 4.06478 14.0964 4.60419 14.0964 5.2696C14.0964 5.935 14.6358 6.47442 15.3012 6.47442Z" fill="white"/>
</svg>
