<svg width="101" height="100" viewBox="0 0 101 100" fill="none" xmlns="http://www.w3.org/2000/svg">
<g clip-path="url(#clip0_49_5813)">
<path fill-rule="evenodd" clip-rule="evenodd" d="M24 79L0.75 67V32.656L52.5 7L75.75 19V53.5L24 79Z" fill="#24AE5F"/>
<path fill-rule="evenodd" clip-rule="evenodd" d="M0.75 64.5539V67.5369L23.943 79.4689L75.565 54.1129V51.1299L23.943 76.4859L0.75 64.5539ZM0.75 59.3339V62.3169L23.943 74.2489L75.565 48.8939V45.9099L23.943 71.2659L0.75 59.3339ZM0.75 48.8929V51.8759L23.943 63.8079L75.565 38.4529V35.4699L23.943 60.8249L0.75 48.8929ZM0.75 54.1129V57.0959L23.943 69.0279L75.565 43.6719V40.6889L23.943 66.0459L0.75 54.1129ZM0.75 43.6729V46.6559L23.943 58.5879L75.565 33.2319V30.2499L23.943 55.6049L0.75 43.6729ZM24.001 45.1349L0.75 33.0839V36.0969L24.001 48.1469L75.753 22.5399V19.5269L24.001 45.1349ZM0.75 38.4529V41.4359L24.001 53.3679L75.753 28.0119V25.0289L24.001 50.3849L0.75 38.4529Z" fill="#1E9450"/>
<path fill-rule="evenodd" clip-rule="evenodd" d="M48.883 91.884L25.748 79.951V50.647L77.243 25.292L100.75 37.299V66.299L48.883 91.884Z" fill="#24AE5F"/>
<path fill-rule="evenodd" clip-rule="evenodd" d="M25.75 77.0848V80.0678L49 91.9998L100.75 66.6438V63.6608L49 89.0168L25.75 77.0848ZM25.75 71.8648V74.8478L49 86.7798L100.75 61.4238V58.4408L49 83.7958L25.75 71.8648ZM25.75 61.4238V64.4068L49 76.3388L100.75 50.9828V47.9998L49 73.3558L25.75 61.4238ZM25.75 66.6438V69.6268L49 81.5598L100.75 56.2038V53.2208L49 78.5758L25.75 66.6438ZM25.75 56.2038V59.1868L49 71.1188L100.75 45.7628V42.7798L49 68.1358L25.75 56.2038ZM49 62.5708L25.75 50.6398V53.6228L49 65.5548L100.75 40.1988V37.2158L49 62.5708Z" fill="#1E9450"/>
<path opacity="0.1" d="M23.943 45.165L0.75 33.25V67.594L24 79.5L23.943 45.165ZM48.943 62.6L25.75 50.685V79.977L49 91.883L48.943 62.6Z" fill="black"/>
<path fill-rule="evenodd" clip-rule="evenodd" d="M60.746 50.6089L49.383 56.0679L39.681 50.8479L52.819 44.4119C52.819 44.4119 51.907 41.7919 52.465 41.3929C52.455 41.4399 33.079 51.0849 33.079 51.0849L49.662 59.3759L66.71 50.8529C66.71 50.8529 65.041 50.9079 63.562 50.8469C62.06 50.7869 60.746 50.6089 60.746 50.6089ZM74.192 47.1129L94.25 37.4999L77.951 28.6509L60.919 37.1659C63.501 37.0329 65.616 38.1439 65.616 38.1439L77.742 32.2039L88.19 37.4249L74.2 44.1449L74.192 47.1129Z" fill="#1E9450"/>
<path d="M64.985 46.958C65.6611 46.9788 66.3354 46.8764 66.975 46.656L63.446 44.786L63.146 44.864L62.762 44.987C62.239 45.144 61.703 45.289 61.152 45.42C60.601 45.551 60.041 45.633 59.472 45.666C58.903 45.699 58.335 45.665 57.77 45.565C57.1779 45.4558 56.6066 45.2543 56.077 44.968C55.503 44.664 55.104 44.338 54.881 43.991C54.658 43.643 54.575 43.297 54.631 42.951C54.687 42.605 54.867 42.265 55.169 41.932C55.5062 41.5702 55.8938 41.2589 56.32 41.008L55.02 40.319L56.001 39.799L57.301 40.488C57.8624 40.2509 58.4424 40.0602 59.035 39.918C59.6355 39.773 60.2488 39.6876 60.866 39.663C61.4981 39.64 62.1308 39.6859 62.753 39.8C63.4058 39.9202 64.0399 40.126 64.639 40.412L62.278 41.663C61.7902 41.4236 61.257 41.291 60.714 41.274C60.133 41.248 59.654 41.335 59.277 41.535L62.266 43.119L62.775 42.957L63.334 42.786C64.379 42.471 65.29 42.284 66.065 42.224C66.84 42.166 67.514 42.176 68.085 42.255C68.656 42.335 69.141 42.46 69.54 42.629C69.939 42.8 70.28 42.96 70.561 43.109C70.809 43.24 71.06 43.438 71.315 43.703C71.57 43.968 71.72 44.279 71.764 44.637C71.809 44.995 71.705 45.39 71.455 45.821C71.204 46.252 70.691 46.703 69.917 47.174L71.352 47.935L70.371 48.455L68.936 47.694C67.604 48.304 66.246 48.612 64.861 48.618C63.476 48.625 62.064 48.305 60.624 47.659L62.968 46.417C63.5859 46.7597 64.2785 46.9455 64.985 46.958ZM68.435 45.729C68.578 45.576 68.668 45.418 68.705 45.255C68.7413 45.0884 68.715 44.9143 68.631 44.766C68.545 44.603 68.367 44.45 68.096 44.307C67.6686 44.0769 67.1856 43.9702 66.701 43.999C66.21 44.027 65.547 44.166 64.713 44.417L67.955 46.135C68.1308 46.0196 68.292 45.8832 68.435 45.729ZM57.83 42.391C57.7185 42.497 57.6417 42.6344 57.61 42.785C57.5979 42.8569 57.6003 42.9305 57.6171 43.0014C57.634 43.0723 57.6649 43.1392 57.708 43.198C57.799 43.335 57.963 43.466 58.2 43.591C58.572 43.788 58.975 43.879 59.41 43.863C59.845 43.847 60.391 43.73 61.047 43.514L58.294 42.056C58.1228 42.1428 57.9662 42.2558 57.83 42.391Z" fill="#1E9450"/>
<path fill-rule="evenodd" clip-rule="evenodd" d="M35.333 32.6089L23.97 38.0679L14.268 32.8479L27.406 26.4119C27.406 26.4119 26.493 23.7919 27.052 23.3929C27.042 23.4399 7.66602 33.0849 7.66602 33.0849L24.249 41.3759L41.297 32.8529C41.297 32.8529 39.628 32.9079 38.149 32.8469C36.647 32.7869 35.333 32.6089 35.333 32.6089ZM48.779 29.1129L68.837 19.4999L52.538 10.6509L35.506 19.1659C38.088 19.0329 40.203 20.1439 40.203 20.1439L52.329 14.2039L62.777 19.4249L48.788 26.1449L48.779 29.1129Z" fill="#1E9450"/>
<path d="M39.572 28.9579C40.2482 28.9792 40.9226 28.8769 41.562 28.6559L38.032 26.7859L37.732 26.8639L37.348 26.9869C36.8156 27.1468 36.2787 27.2912 35.738 27.4199C35.187 27.5509 34.627 27.6329 34.058 27.6659C33.489 27.6989 32.922 27.6649 32.356 27.5649C31.7639 27.4558 31.1926 27.2543 30.663 26.9679C30.089 26.6639 29.69 26.3379 29.467 25.9909C29.244 25.6429 29.161 25.2969 29.217 24.9509C29.274 24.6049 29.453 24.2659 29.755 23.9329C30.0922 23.5711 30.4798 23.2599 30.906 23.0089L29.606 22.3199L30.587 21.7999L31.887 22.4889C32.4484 22.2518 33.0284 22.0612 33.621 21.9189C34.2215 21.774 34.8348 21.6886 35.452 21.6639C36.0841 21.641 36.7168 21.6869 37.339 21.8009C37.9918 21.9212 38.6259 22.127 39.225 22.4129L36.864 23.6639C36.3762 23.4246 35.843 23.292 35.3 23.2749C34.719 23.2489 34.24 23.3359 33.863 23.5359L36.852 25.1199L37.361 24.9569L37.92 24.7859C38.965 24.4709 39.876 24.2839 40.651 24.2239C41.426 24.1649 42.1 24.1759 42.671 24.2549C43.242 24.3349 43.727 24.4599 44.126 24.6299C44.525 24.8009 44.866 24.9609 45.147 25.1099C45.395 25.2409 45.646 25.4389 45.901 25.7039C46.156 25.9689 46.306 26.2799 46.35 26.6379C46.395 26.9959 46.291 27.3909 46.041 27.8219C45.79 28.2529 45.277 28.7039 44.503 29.1749L45.938 29.9359L44.957 30.4559L43.522 29.6949C42.19 30.3049 40.832 30.6129 39.447 30.6189C38.062 30.6259 36.65 30.3059 35.21 29.6599L37.554 28.4179C38.184 28.7629 38.857 28.9429 39.572 28.9579ZM43.022 27.7289C43.165 27.5759 43.255 27.4179 43.291 27.2549C43.3273 27.0884 43.301 26.9143 43.217 26.7659C43.131 26.6029 42.953 26.4499 42.682 26.3059C42.2546 26.0758 41.7716 25.9692 41.287 25.9979L39.299 26.4169L42.541 28.1349C42.719 28.0179 42.879 27.8829 43.022 27.7289ZM32.417 24.3909C32.3055 24.497 32.2287 24.6344 32.197 24.7849C32.1849 24.8568 32.1873 24.9304 32.2041 25.0014C32.221 25.0723 32.2519 25.1392 32.295 25.1979C32.387 25.3349 32.55 25.4659 32.787 25.5909C33.159 25.7879 33.562 25.8789 33.998 25.8629C34.433 25.8469 34.979 25.7299 35.635 25.5139L32.882 24.0559C32.7104 24.1425 32.5534 24.2556 32.417 24.3909Z" fill="#1E9450"/>
</g>
<defs>
<clipPath id="clip0_49_5813">
<rect width="100" height="100" fill="white" transform="translate(0.75)"/>
</clipPath>
</defs>
</svg>
