<svg width="664" height="588" viewBox="0 0 664 588" fill="none" xmlns="http://www.w3.org/2000/svg">
<path d="M286.191 1.12263C320.028 -2.80989 353.676 3.25987 381.58 24.5639C415.092 50.2107 424.445 89.2624 433.849 127.972C442.397 163.091 460.675 189.166 492.922 206.195C535.205 228.525 576.377 262.84 588.756 310.954C600.81 357.717 587.439 415.166 549.43 446.677C514.243 475.88 465.052 479.283 419.486 482.036C359.951 485.643 299.955 490.345 240.864 482.155C202.052 476.77 162.966 465.297 132.344 440.864C98.5241 413.883 77.6305 372.712 70.4151 330.052C63.1998 287.393 68.7054 243.332 80.6739 201.818C95.8739 149.105 122.102 98.6833 161.855 60.8628C193.024 31.0098 239.667 6.54267 286.191 1.12263Z" fill="#5E88E8"/>
<path opacity="0.9" d="M286.191 1.12263C320.028 -2.80989 353.676 3.25987 381.58 24.5639C415.092 50.2107 424.445 89.2624 433.849 127.972C442.397 163.091 460.675 189.166 492.922 206.195C535.205 228.525 576.377 262.84 588.756 310.954C600.81 357.717 587.439 415.166 549.43 446.677C514.243 475.88 465.052 479.283 419.486 482.036C359.951 485.643 299.955 490.345 240.864 482.155C202.052 476.77 162.966 465.297 132.344 440.864C98.5241 413.883 77.6305 372.712 70.4151 330.052C63.1998 287.393 68.7054 243.332 80.6739 201.818C95.8739 149.105 122.102 98.6833 161.855 60.8628C193.024 31.0098 239.667 6.54267 286.191 1.12263Z" fill="white"/>
<path d="M332 587.803C515.089 587.803 663.511 579.138 663.511 568.449C663.511 557.759 515.089 549.094 332 549.094C148.911 549.094 0.488281 557.759 0.488281 568.449C0.488281 579.138 148.911 587.803 332 587.803Z" fill="#F5F5F5"/>
<path d="M132.277 518.146C132.277 517.599 130.397 462.339 121.437 453.636C112.888 445.241 102.835 453.328 102.424 453.636L101.33 452.319C101.433 452.217 112.888 442.881 122.634 452.319C132.072 461.501 133.919 515.701 133.987 518.009L132.277 518.146Z" fill="#5E88E8"/>
<path d="M133.048 529.038C132.791 526.336 126.893 462.561 150.949 434.999L152.232 436.11C128.671 463.176 134.689 528.251 134.758 528.901L133.048 529.038Z" fill="#5E88E8"/>
<path d="M132.466 522.079L130.756 521.959C130.756 521.207 135.458 447.293 117.898 431.135L119.044 429.887C137.202 446.643 132.671 519.002 132.466 522.079Z" fill="#5E88E8"/>
<path d="M134.757 522.027H133.047C133.047 519.975 133.628 471.965 147.324 464.117C148.637 463.268 150.133 462.747 151.689 462.595C153.245 462.443 154.814 462.666 156.266 463.245C164.575 466.664 168.662 481.403 168.833 482.052L167.123 482.514C167.123 482.36 163.071 467.964 155.548 464.852C154.337 464.375 153.029 464.196 151.735 464.33C150.441 464.464 149.198 464.906 148.11 465.621C135.372 472.939 134.757 521.531 134.757 522.027Z" fill="#5E88E8"/>
<path d="M129.457 522.062L127.747 521.959C127.747 521.583 129.799 484.139 119.711 470.973C117.283 467.804 114.684 466.311 111.914 466.494C105.366 466.955 99.843 476.581 99.7917 476.752L98.2871 475.914C98.5436 475.487 104.323 465.382 111.794 464.852C115.214 464.596 118.275 466.357 121.062 469.982C131.543 483.591 129.542 520.506 129.457 522.062Z" fill="#5E88E8"/>
<path d="M131.372 527.174C131.098 523.532 124.755 437.837 135.937 422.688L137.322 423.714C126.499 438.333 133.013 526.148 133.082 527.037L131.372 527.174Z" fill="#5E88E8"/>
<path d="M159.31 472.051C159.31 472.051 152.625 474.513 154.608 480.344C156.591 486.174 177.759 495.732 177.759 495.732C177.759 495.732 186.632 487.61 178.494 474.393C170.355 461.177 159.43 467.879 159.31 472.051Z" fill="#5E88E8"/>
<path opacity="0.2" d="M159.31 472.051C159.31 472.051 152.625 474.513 154.608 480.344C156.591 486.174 177.759 495.732 177.759 495.732C177.759 495.732 186.632 487.61 178.494 474.393C170.355 461.177 159.43 467.879 159.31 472.051Z" fill="white"/>
<path d="M130.141 460.954C130.141 460.954 137.271 460.663 137.681 466.801C138.091 472.94 122.293 489.935 122.293 489.935C122.293 489.935 110.974 485.849 113.402 470.529C115.83 455.209 128.38 457.175 130.141 460.954Z" fill="#5E88E8"/>
<path opacity="0.2" d="M130.141 460.954C130.141 460.954 137.271 460.663 137.681 466.801C138.091 472.94 122.293 489.935 122.293 489.935C122.293 489.935 110.974 485.849 113.402 470.529C115.83 455.209 128.38 457.175 130.141 460.954Z" fill="white"/>
<path d="M124.103 431.545C124.103 431.545 128.857 431.032 128.481 428.126C128.104 425.219 109.998 417.782 99.4141 429.836C99.4141 429.836 106.253 441.565 116.136 441.719C126.018 441.872 124.103 431.545 124.103 431.545Z" fill="#5E88E8"/>
<path opacity="0.2" d="M124.103 431.545C124.103 431.545 128.857 431.032 128.481 428.126C128.104 425.219 109.998 417.782 99.4141 429.836C99.4141 429.836 106.253 441.565 116.136 441.719C126.018 441.872 124.103 431.545 124.103 431.545Z" fill="white"/>
<path d="M132.961 424.518C132.961 424.518 128.669 426.604 127.455 423.936C126.241 421.269 137.714 405.385 153.102 409.967C153.102 409.967 153.513 423.543 145.22 428.912C136.928 434.281 132.961 424.518 132.961 424.518Z" fill="#5E88E8"/>
<path opacity="0.2" d="M132.961 424.518C132.961 424.518 128.669 426.604 127.455 423.936C126.241 421.269 137.714 405.385 153.102 409.967C153.102 409.967 153.513 423.543 145.22 428.912C136.928 434.281 132.961 424.518 132.961 424.518Z" fill="white"/>
<path d="M110.461 469.707C110.461 469.707 113.744 467.057 110.205 465.758C106.666 464.458 89.294 464.835 89.123 482.035C89.123 482.035 109.35 485.455 111.846 478.855C114.342 472.255 110.461 469.707 110.461 469.707Z" fill="#5E88E8"/>
<path opacity="0.2" d="M110.461 469.707C110.461 469.707 113.744 467.057 110.205 465.758C106.666 464.458 89.294 464.835 89.123 482.035C89.123 482.035 109.35 485.455 111.846 478.855C114.342 472.255 110.461 469.707 110.461 469.707Z" fill="white"/>
<path d="M151.716 431.118C151.716 431.118 148.434 428.468 151.973 427.185C155.512 425.903 172.884 426.245 173.055 443.463C173.055 443.463 152.828 446.882 150.331 440.265C147.835 433.648 151.716 431.118 151.716 431.118Z" fill="#5E88E8"/>
<path opacity="0.2" d="M151.716 431.118C151.716 431.118 148.434 428.468 151.973 427.185C155.512 425.903 172.884 426.245 173.055 443.463C173.055 443.463 152.828 446.882 150.331 440.265C147.835 433.648 151.716 431.118 151.716 431.118Z" fill="white"/>
<path d="M141.014 444.933C141.014 444.933 140.723 441.702 143.322 442.967C145.921 444.232 154.983 453.995 145.596 463.262C145.596 463.262 132.961 453.91 135.235 449.037C137.509 444.164 141.014 444.933 141.014 444.933Z" fill="#5E88E8"/>
<path opacity="0.2" d="M141.014 444.933C141.014 444.933 140.723 441.702 143.322 442.967C145.921 444.232 154.983 453.995 145.596 463.262C145.596 463.262 132.961 453.91 135.235 449.037C137.509 444.164 141.014 444.933 141.014 444.933Z" fill="white"/>
<path d="M107.537 449.566C107.537 449.566 109.486 447.002 106.614 446.677C103.742 446.352 90.8839 449.789 93.8761 462.646C93.8761 462.646 109.555 461.467 110.222 456.132C110.889 450.797 107.537 449.566 107.537 449.566Z" fill="#5E88E8"/>
<path opacity="0.2" d="M107.537 449.566C107.537 449.566 109.486 447.002 106.614 446.677C103.742 446.352 90.8839 449.789 93.8761 462.646C93.8761 462.646 109.555 461.467 110.222 456.132C110.889 450.797 107.537 449.566 107.537 449.566Z" fill="white"/>
<path d="M160.491 569.696H106.701L100.904 510.811H166.304L160.491 569.696Z" fill="#5E88E8"/>
<path opacity="0.5" d="M160.491 569.696H106.701L100.904 510.811H166.304L160.491 569.696Z" fill="white"/>
<path d="M169.176 504.314H98.0312V517.308H169.176V504.314Z" fill="#5E88E8"/>
<path opacity="0.2" d="M169.176 504.314H98.0312V517.308H169.176V504.314Z" fill="white"/>
<path d="M90.8841 31.9668H69.5801V65.3419H90.8841V31.9668Z" fill="#263238"/>
<path opacity="0.2" d="M90.8841 31.9668H69.5801V65.3419H90.8841V31.9668Z" fill="white"/>
<path d="M296.06 31.9668H274.756V65.3419H296.06V31.9668Z" fill="#263238"/>
<path opacity="0.2" d="M296.06 31.9668H274.756V65.3419H296.06V31.9668Z" fill="white"/>
<path d="M341.816 250.751V62.6914L23.8463 62.6914V250.751L341.816 250.751Z" fill="#263238"/>
<path d="M333.266 242.203V71.2407L32.3935 71.2407V242.203L333.266 242.203Z" fill="#5E88E8"/>
<path opacity="0.2" d="M66.0256 79.4814H40.7207V100.529H66.0256V79.4814Z" fill="#0C131D"/>
<path d="M54.5508 91.4499L57.4916 93.5017L58.3636 92.8862C58.4441 92.8327 58.5119 92.7623 58.5625 92.68C58.6131 92.5977 58.6452 92.5054 58.6566 92.4095C58.668 92.3135 58.6584 92.2162 58.6285 92.1244C58.5985 92.0325 58.549 91.9482 58.4833 91.8774L56.7735 89.9282L54.5508 91.4499Z" fill="white"/>
<path d="M60.6046 85.1239H59.8352C59.3575 85.127 58.8921 85.2761 58.5016 85.5513L54.8255 88.1502L46.6185 86.6285C46.4745 86.6002 46.3263 86.6008 46.1825 86.6302C46.0387 86.6595 45.9022 86.717 45.7807 86.7994L44.5326 87.7057L51.7308 90.3387L48.3112 92.8008H45.7636C45.4513 92.7971 45.1459 92.8929 44.8917 93.0744L43.7461 93.8951L47.1657 95.6904L59.5788 86.8849L62.0409 85.1751L63.0325 84.4741C62.1813 84.4816 61.3459 84.7052 60.6046 85.1239Z" fill="white"/>
<path opacity="0.2" d="M212.077 79.4814H73.6348V100.529H212.077V79.4814Z" fill="#0C131D"/>
<path d="M165.859 88.3219H82.661C82.2075 88.3219 81.7726 88.1418 81.452 87.8211C81.1313 87.5005 80.9512 87.0656 80.9512 86.6121C80.9512 86.1587 81.1313 85.7238 81.452 85.4032C81.7726 85.0825 82.2075 84.9023 82.661 84.9023H165.859C166.313 84.9023 166.748 85.0825 167.068 85.4032C167.389 85.7238 167.569 86.1587 167.569 86.6121C167.569 87.0656 167.389 87.5005 167.068 87.8211C166.748 88.1418 166.313 88.3219 165.859 88.3219Z" fill="white"/>
<path d="M112.428 95.109H82.661C82.2075 95.109 81.7726 94.9289 81.452 94.6083C81.1313 94.2876 80.9512 93.8527 80.9512 93.3992C80.9512 92.9458 81.1313 92.5109 81.452 92.1902C81.7726 91.8696 82.2075 91.6895 82.661 91.6895H112.428C112.882 91.6895 113.317 91.8696 113.637 92.1902C113.958 92.5109 114.138 92.9458 114.138 93.3992C114.138 93.8527 113.958 94.2876 113.637 94.6083C113.317 94.9289 112.882 95.109 112.428 95.109Z" fill="white"/>
<path opacity="0.4" d="M219.411 100.547L324.922 100.547V79.4993L219.411 79.4993V100.547Z" fill="#0C131D"/>
<path d="M241.194 89.3823C241.188 88.8565 241.291 88.3352 241.495 87.8505C241.698 87.3658 242 86.9281 242.379 86.5644C242.759 86.2007 243.209 85.9186 243.702 85.7358C244.195 85.5529 244.721 85.473 245.246 85.5011C245.804 85.48 246.36 85.5824 246.875 85.8011C247.389 86.0199 247.849 86.3494 248.221 86.7663L247.315 87.6212C247.063 87.336 246.752 87.1089 246.403 86.9554C246.055 86.8019 245.678 86.7257 245.297 86.7321C244.85 86.732 244.41 86.8442 244.018 87.0584C243.626 87.2725 243.294 87.5818 243.052 87.9578C242.811 88.3337 242.668 88.7644 242.636 89.2101C242.604 89.6559 242.685 90.1024 242.871 90.5088C243.057 90.9152 243.342 91.2684 243.7 91.5359C244.058 91.8034 244.477 91.9767 244.919 92.0399C245.362 92.1031 245.813 92.0541 246.231 91.8974C246.65 91.7408 247.022 91.4815 247.315 91.1434L248.221 92.0154C247.846 92.4336 247.383 92.7639 246.866 92.9826C246.349 93.2014 245.79 93.3031 245.229 93.2807C244.704 93.3039 244.18 93.22 243.689 93.0341C243.198 92.8482 242.75 92.5642 242.373 92.1994C241.995 91.8345 241.696 91.3966 241.493 90.9123C241.29 90.4279 241.188 89.9074 241.194 89.3823Z" fill="white"/>
<path d="M254.324 91.4158H250.545L249.793 93.1256H248.34L251.759 85.5684H253.144L256.564 93.1256H255.059L254.324 91.4158ZM253.845 90.3216L252.426 87.0046L251.007 90.3216H253.845Z" fill="white"/>
<path d="M264.223 85.6025V93.1598H263.061L258.889 88.0304V93.1598H257.504V85.6025H258.649L262.821 90.7319V85.6025H264.223Z" fill="white"/>
<path d="M265.713 89.3817C265.752 88.5824 266.024 87.812 266.497 87.1663C266.97 86.5206 267.622 86.0279 268.372 85.7493C269.122 85.4707 269.938 85.4185 270.717 85.5992C271.497 85.7799 272.206 86.1855 272.757 86.7657L271.851 87.6206C271.598 87.3371 271.286 87.1112 270.938 86.9578C270.59 86.8045 270.214 86.7273 269.833 86.7315C269.466 86.702 269.097 86.7489 268.749 86.8691C268.401 86.9894 268.082 87.1804 267.811 87.4302C267.54 87.6799 267.324 87.983 267.177 88.3204C267.029 88.6577 266.953 89.0219 266.953 89.3902C266.953 89.7585 267.029 90.1227 267.177 90.4601C267.324 90.7974 267.54 91.1005 267.811 91.3502C268.082 91.6 268.401 91.791 268.749 91.9113C269.097 92.0315 269.466 92.0784 269.833 92.0489C270.216 92.0544 270.594 91.9761 270.943 91.8196C271.291 91.663 271.601 91.432 271.851 91.1427L272.757 92.0147C272.205 92.5957 271.494 93.0015 270.713 93.1816C269.932 93.3616 269.115 93.308 268.364 93.0273C267.614 92.7467 266.962 92.2514 266.491 91.6032C266.019 90.955 265.749 90.1824 265.713 89.3817Z" fill="white"/>
<path d="M279.767 91.9972V93.1598H274.107V85.6025H279.613V86.7823H275.578V88.7486H279.22V89.9112H275.578V91.9972H279.767Z" fill="white"/>
<path d="M281.34 85.6025H282.742V91.9801H286.692V93.1598H281.34V85.6025Z" fill="white"/>
<path d="M293.477 91.9972V93.1598H287.801V85.6025H293.323V86.7823H289.254V88.7486H292.913V89.9112H289.254V91.9972H293.477Z" fill="white"/>
<path d="M295.035 85.6025H298.335C298.861 85.5524 299.393 85.6128 299.894 85.7799C300.396 85.947 300.857 86.2171 301.249 86.5728C301.64 86.9286 301.952 87.3622 302.166 87.8458C302.38 88.3294 302.491 88.8524 302.491 89.3812C302.491 89.91 302.38 90.433 302.166 90.9166C301.952 91.4002 301.64 91.8338 301.249 92.1895C300.857 92.5453 300.396 92.8154 299.894 92.9825C299.393 93.1496 298.861 93.21 298.335 93.1598H295.035V85.6025ZM298.284 91.9801C298.656 92.041 299.036 92.0203 299.399 91.9195C299.763 91.8186 300.099 91.6401 300.387 91.3961C300.674 91.1521 300.904 90.8486 301.063 90.5066C301.221 90.1645 301.303 89.7922 301.303 89.4154C301.303 89.0386 301.221 88.6662 301.063 88.3242C300.904 87.9822 300.674 87.6787 300.387 87.4347C300.099 87.1907 299.763 87.0121 299.399 86.9113C299.036 86.8105 298.656 86.7898 298.284 86.8507H296.437V91.9801H298.284Z" fill="white"/>
<path opacity="0.2" d="M66.0256 106.001H40.7207V127.049H66.0256V106.001Z" fill="#0C131D"/>
<path d="M54.5508 117.969L57.4916 120.021L58.3636 119.405C58.4463 119.348 58.515 119.273 58.5646 119.186C58.6142 119.098 58.6434 119.001 58.6499 118.9C58.6565 118.8 58.6403 118.699 58.6026 118.606C58.5648 118.513 58.5065 118.43 58.432 118.362L56.7222 116.413L54.5508 117.969Z" fill="white"/>
<path d="M60.6046 111.643H59.8352C59.3575 111.647 58.8921 111.796 58.5016 112.071L54.8255 114.67L46.6185 113.148C46.4745 113.12 46.3263 113.12 46.1825 113.15C46.0387 113.179 45.9022 113.237 45.7807 113.319L44.5326 114.225L51.7308 116.858L48.3112 119.32H45.7636C45.4513 119.317 45.1459 119.412 44.8917 119.594L43.7461 120.415L47.1657 122.21L59.5788 113.404L62.0409 111.695L63.0325 110.994C62.1813 111.001 61.3459 111.225 60.6046 111.643Z" fill="white"/>
<path opacity="0.2" d="M212.077 106.001H73.6348V127.049H212.077V106.001Z" fill="#0C131D"/>
<path d="M165.859 114.943H82.661C82.2075 114.943 81.7726 114.762 81.452 114.442C81.1313 114.121 80.9512 113.686 80.9512 113.233C80.9512 112.779 81.1313 112.344 81.452 112.024C81.7726 111.703 82.2075 111.523 82.661 111.523H165.859C166.313 111.523 166.748 111.703 167.068 112.024C167.389 112.344 167.569 112.779 167.569 113.233C167.569 113.686 167.389 114.121 167.068 114.442C166.748 114.762 166.313 114.943 165.859 114.943Z" fill="white"/>
<path d="M112.428 121.628H82.661C82.2075 121.628 81.7726 121.448 81.452 121.127C81.1313 120.807 80.9512 120.372 80.9512 119.918C80.9512 119.465 81.1313 119.03 81.452 118.709C81.7726 118.389 82.2075 118.208 82.661 118.208H112.428C112.882 118.208 113.317 118.389 113.637 118.709C113.958 119.03 114.138 119.465 114.138 119.918C114.138 120.372 113.958 120.807 113.637 121.127C113.317 121.448 112.882 121.628 112.428 121.628Z" fill="white"/>
<path opacity="0.4" d="M219.411 127.065L324.922 127.065V106.017L219.411 106.017V127.065Z" fill="#0C131D"/>
<path d="M241.194 115.9C241.188 115.375 241.291 114.853 241.495 114.369C241.698 113.884 242 113.446 242.379 113.082C242.759 112.719 243.209 112.437 243.702 112.254C244.195 112.071 244.721 111.991 245.246 112.019C245.8 111.992 246.354 112.086 246.868 112.296C247.382 112.506 247.844 112.826 248.221 113.233L247.315 114.088C247.063 113.803 246.752 113.576 246.403 113.422C246.055 113.269 245.678 113.192 245.297 113.199C244.85 113.199 244.41 113.311 244.018 113.525C243.626 113.739 243.294 114.049 243.052 114.425C242.811 114.801 242.668 115.231 242.636 115.677C242.604 116.123 242.685 116.569 242.871 116.976C243.057 117.382 243.342 117.735 243.7 118.003C244.058 118.27 244.477 118.444 244.919 118.507C245.362 118.57 245.813 118.521 246.231 118.364C246.65 118.208 247.022 117.948 247.315 117.61L248.221 118.482C247.846 118.9 247.383 119.231 246.866 119.449C246.349 119.668 245.79 119.77 245.229 119.747C244.708 119.77 244.189 119.688 243.701 119.505C243.214 119.323 242.768 119.043 242.391 118.684C242.014 118.325 241.714 117.893 241.508 117.414C241.302 116.936 241.195 116.421 241.194 115.9Z" fill="white"/>
<path d="M254.324 117.935H250.545L249.793 119.645H248.34L251.759 112.087H253.144L256.564 119.645H255.059L254.324 117.935ZM253.845 116.841L252.426 113.524L251.007 116.841H253.845Z" fill="white"/>
<path d="M264.223 112.122V119.679H263.061L258.889 114.55V119.679H257.504V112.122H258.649L262.821 117.251V112.122H264.223Z" fill="white"/>
<path d="M265.713 115.9C265.752 115.1 266.024 114.33 266.497 113.684C266.97 113.039 267.622 112.546 268.372 112.267C269.122 111.989 269.938 111.937 270.717 112.117C271.497 112.298 272.206 112.704 272.757 113.284L271.851 114.139C271.598 113.855 271.286 113.629 270.938 113.476C270.59 113.323 270.214 113.245 269.833 113.25C269.466 113.22 269.097 113.267 268.749 113.387C268.401 113.507 268.082 113.698 267.811 113.948C267.54 114.198 267.324 114.501 267.177 114.838C267.029 115.176 266.953 115.54 266.953 115.908C266.953 116.277 267.029 116.641 267.177 116.978C267.324 117.315 267.54 117.619 267.811 117.868C268.082 118.118 268.401 118.309 268.749 118.429C269.097 118.55 269.466 118.596 269.833 118.567C270.216 118.572 270.594 118.494 270.943 118.338C271.291 118.181 271.601 117.95 271.851 117.661L272.757 118.533C272.205 119.114 271.494 119.52 270.713 119.7C269.932 119.88 269.115 119.826 268.364 119.545C267.614 119.265 266.962 118.769 266.491 118.121C266.019 117.473 265.749 116.7 265.713 115.9Z" fill="white"/>
<path d="M279.767 118.517V119.679H274.107V112.122H279.613V113.233H275.578V115.2H279.22V116.362H275.578V118.448L279.767 118.517Z" fill="white"/>
<path d="M281.34 112.122H282.742V118.5H286.692V119.679H281.34V112.122Z" fill="white"/>
<path d="M293.477 118.517V119.679H287.801V112.122H293.323V113.233H289.254V115.2H292.913V116.362H289.254V118.448L293.477 118.517Z" fill="white"/>
<path d="M295.035 112.122H298.335C298.861 112.072 299.393 112.132 299.894 112.299C300.396 112.467 300.857 112.737 301.249 113.092C301.64 113.448 301.952 113.882 302.166 114.365C302.38 114.849 302.491 115.372 302.491 115.901C302.491 116.43 302.38 116.952 302.166 117.436C301.952 117.92 301.64 118.353 301.249 118.709C300.857 119.065 300.396 119.335 299.894 119.502C299.393 119.669 298.861 119.729 298.335 119.679H295.035V112.122ZM298.284 118.5C298.656 118.561 299.036 118.54 299.399 118.439C299.763 118.338 300.099 118.16 300.387 117.916C300.674 117.672 300.904 117.368 301.063 117.026C301.221 116.684 301.303 116.312 301.303 115.935C301.303 115.558 301.221 115.186 301.063 114.844C300.904 114.502 300.674 114.198 300.387 113.954C300.099 113.71 299.763 113.532 299.399 113.431C299.036 113.33 298.656 113.309 298.284 113.37H296.437V118.5H298.284Z" fill="white"/>
<path opacity="0.2" d="M66.0256 132.519H40.7207V153.567H66.0256V132.519Z" fill="#0C131D"/>
<path d="M54.5508 144.488L57.4916 146.54L58.3636 145.924C58.4441 145.871 58.5119 145.8 58.5625 145.718C58.6131 145.636 58.6452 145.543 58.6566 145.448C58.668 145.352 58.6584 145.254 58.6285 145.162C58.5985 145.071 58.549 144.986 58.4833 144.915L56.7735 142.966L54.5508 144.488Z" fill="white"/>
<path d="M60.6046 138.162H59.8352C59.3575 138.165 58.8921 138.314 58.5016 138.589L54.8255 141.188L46.6185 139.667C46.4745 139.638 46.3263 139.639 46.1825 139.668C46.0387 139.698 45.9022 139.755 45.7807 139.838L44.5326 140.744L51.7308 143.377L48.3112 145.839H45.7636C45.4513 145.835 45.1459 145.931 44.8917 146.112L43.7461 146.933L47.1657 148.643L59.5788 139.855L62.0409 138.145L63.0325 137.444C62.1752 137.472 61.3394 137.719 60.6046 138.162Z" fill="white"/>
<path opacity="0.2" d="M212.077 132.519H73.6348V153.567H212.077V132.519Z" fill="#0C131D"/>
<path d="M165.859 141.377H82.661C82.2075 141.377 81.7726 141.196 81.452 140.876C81.1313 140.555 80.9512 140.12 80.9512 139.667C80.9512 139.213 81.1313 138.778 81.452 138.458C81.7726 138.137 82.2075 137.957 82.661 137.957H165.859C166.313 137.957 166.748 138.137 167.068 138.458C167.389 138.778 167.569 139.213 167.569 139.667C167.569 140.12 167.389 140.555 167.068 140.876C166.748 141.196 166.313 141.377 165.859 141.377Z" fill="white"/>
<path d="M112.428 148.147H82.661C82.2075 148.147 81.7726 147.966 81.452 147.646C81.1313 147.325 80.9512 146.89 80.9512 146.437C80.9512 145.983 81.1313 145.548 81.452 145.228C81.7726 144.907 82.2075 144.727 82.661 144.727H112.428C112.882 144.727 113.317 144.907 113.637 145.228C113.958 145.548 114.138 145.983 114.138 146.437C114.138 146.89 113.958 147.325 113.637 147.646C113.317 147.966 112.882 148.147 112.428 148.147Z" fill="white"/>
<path opacity="0.4" d="M219.411 153.584H324.922V132.537H219.411V153.584Z" fill="#0C131D"/>
<path d="M246.102 138.64H249.401C249.92 138.606 250.441 138.678 250.93 138.852C251.42 139.027 251.869 139.3 252.249 139.655C252.628 140.01 252.931 140.439 253.138 140.916C253.345 141.393 253.452 141.908 253.452 142.428C253.452 142.947 253.345 143.462 253.138 143.939C252.931 144.416 252.628 144.845 252.249 145.2C251.869 145.555 251.42 145.829 250.93 146.003C250.441 146.178 249.92 146.25 249.401 146.215H246.102V138.64ZM249.333 145.018C249.705 145.079 250.086 145.058 250.449 144.957C250.812 144.856 251.149 144.678 251.436 144.434C251.723 144.19 251.954 143.886 252.112 143.544C252.27 143.202 252.352 142.83 252.352 142.453C252.352 142.076 252.27 141.704 252.112 141.362C251.954 141.02 251.723 140.717 251.436 140.473C251.149 140.229 250.812 140.05 250.449 139.949C250.086 139.848 249.705 139.828 249.333 139.889H247.504V145.018H249.333Z" fill="white"/>
<path d="M260.686 145.035V146.215H255.061V138.64H260.583V139.82H256.463V141.786H260.122V142.949H256.463V145.035H260.686Z" fill="white"/>
<path d="M262.24 138.64H263.608V145.018H267.558V146.215H262.24V138.64Z" fill="white"/>
<path d="M273.68 144.454H269.901L269.149 146.164H267.695L271.115 138.59H272.5L275.919 146.164H274.449L273.68 144.454ZM273.218 143.36L271.782 140.043L270.363 143.36H273.218Z" fill="white"/>
<path d="M279.666 143.53V146.215H278.264V143.564L275.289 138.64H276.794L278.999 142.299L281.222 138.606H282.607L279.666 143.53Z" fill="white"/>
<path d="M289.103 145.035V146.215H283.443V138.64H288.949V139.82H284.845V141.786H288.487V142.949H284.845V145.035H289.103Z" fill="white"/>
<path d="M290.676 138.64H293.976C294.494 138.606 295.015 138.678 295.505 138.852C295.994 139.027 296.443 139.3 296.823 139.655C297.202 140.01 297.505 140.439 297.712 140.916C297.919 141.393 298.026 141.908 298.026 142.428C298.026 142.947 297.919 143.462 297.712 143.939C297.505 144.416 297.202 144.845 296.823 145.2C296.443 145.555 295.994 145.829 295.505 146.003C295.015 146.178 294.494 146.25 293.976 146.215H290.676V138.64ZM293.907 145.018C294.279 145.079 294.66 145.058 295.023 144.957C295.386 144.856 295.723 144.678 296.01 144.434C296.297 144.19 296.528 143.886 296.686 143.544C296.844 143.202 296.926 142.83 296.926 142.453C296.926 142.076 296.844 141.704 296.686 141.362C296.528 141.02 296.297 140.717 296.01 140.473C295.723 140.229 295.386 140.05 295.023 139.949C294.66 139.848 294.279 139.828 293.907 139.889H292.078V145.018H293.907Z" fill="white"/>
<path opacity="0.2" d="M66.0256 159.039H40.7207V180.086H66.0256V159.039Z" fill="#0C131D"/>
<path d="M54.5508 171.007L57.4916 173.058L58.3636 172.443C58.4526 172.387 58.5269 172.31 58.5806 172.219C58.6343 172.129 58.6657 172.027 58.6724 171.922C58.6791 171.817 58.6608 171.711 58.619 171.615C58.5772 171.518 58.5131 171.433 58.432 171.366L56.7222 169.417L54.5508 171.007Z" fill="white"/>
<path d="M60.6046 164.681H59.8352C59.3575 164.685 58.8921 164.834 58.5016 165.109L54.8255 167.708L46.6185 166.186C46.3277 166.138 46.0294 166.199 45.7807 166.357L44.5326 167.263L51.7308 169.896L48.3112 172.358H45.7636C45.4513 172.355 45.1459 172.45 44.8917 172.632L43.7461 173.453L47.1657 175.248L59.5788 166.46L62.0409 164.75L63.0325 164.049C62.1828 164.051 61.3475 164.269 60.6046 164.681Z" fill="white"/>
<path opacity="0.2" d="M212.077 159.039H73.6348V180.086H212.077V159.039Z" fill="#0C131D"/>
<path d="M165.859 167.947H82.661C82.2075 167.947 81.7726 167.767 81.452 167.446C81.1313 167.125 80.9512 166.691 80.9512 166.237C80.9512 165.784 81.1313 165.349 81.452 165.028C81.7726 164.707 82.2075 164.527 82.661 164.527H165.859C166.313 164.527 166.748 164.707 167.068 165.028C167.389 165.349 167.569 165.784 167.569 166.237C167.569 166.691 167.389 167.125 167.068 167.446C166.748 167.767 166.313 167.947 165.859 167.947Z" fill="white"/>
<path d="M112.428 174.666H82.661C82.2075 174.666 81.7726 174.486 81.452 174.165C81.1313 173.845 80.9512 173.41 80.9512 172.956C80.9512 172.503 81.1313 172.068 81.452 171.747C81.7726 171.427 82.2075 171.247 82.661 171.247H112.428C112.882 171.247 113.317 171.427 113.637 171.747C113.958 172.068 114.138 172.503 114.138 172.956C114.138 173.41 113.958 173.845 113.637 174.165C113.317 174.486 112.882 174.666 112.428 174.666Z" fill="white"/>
<path opacity="0.4" d="M219.411 180.103H324.922V159.055H219.411V180.103Z" fill="#0C131D"/>
<path d="M241.194 168.938C241.188 168.413 241.291 167.891 241.495 167.407C241.698 166.922 242 166.484 242.379 166.121C242.759 165.757 243.209 165.475 243.702 165.292C244.195 165.109 244.721 165.029 245.246 165.057C245.804 165.036 246.36 165.139 246.875 165.357C247.389 165.576 247.849 165.906 248.221 166.323L247.315 167.177C247.063 166.892 246.752 166.665 246.403 166.512C246.055 166.358 245.678 166.282 245.297 166.288C244.85 166.288 244.41 166.4 244.018 166.615C243.626 166.829 243.294 167.138 243.052 167.514C242.811 167.89 242.668 168.321 242.636 168.766C242.604 169.212 242.685 169.659 242.871 170.065C243.057 170.471 243.342 170.825 243.7 171.092C244.058 171.36 244.477 171.533 244.919 171.596C245.362 171.659 245.813 171.61 246.231 171.454C246.65 171.297 247.022 171.038 247.315 170.7L248.221 171.572C247.846 171.99 247.383 172.32 246.866 172.539C246.349 172.758 245.79 172.859 245.229 172.837C244.704 172.86 244.18 172.776 243.689 172.59C243.198 172.404 242.75 172.12 242.373 171.756C241.995 171.391 241.696 170.953 241.493 170.468C241.29 169.984 241.188 169.464 241.194 168.938Z" fill="white"/>
<path d="M254.324 170.973H250.545L249.793 172.682H248.34L251.759 165.108H253.144L256.564 172.682H255.059L254.324 170.973ZM253.845 169.878L252.426 166.561L251.007 169.878H253.845Z" fill="white"/>
<path d="M264.223 165.159V172.733H263.061L258.889 167.604V172.733H257.504V165.159H258.649L262.821 170.288V165.159H264.223Z" fill="white"/>
<path d="M265.713 168.938C265.752 168.139 266.024 167.368 266.497 166.722C266.97 166.077 267.622 165.584 268.372 165.305C269.122 165.027 269.938 164.975 270.717 165.155C271.497 165.336 272.206 165.742 272.757 166.322L271.851 167.177C271.598 166.893 271.286 166.667 270.938 166.514C270.59 166.361 270.214 166.283 269.833 166.288C269.466 166.258 269.097 166.305 268.749 166.425C268.401 166.546 268.082 166.737 267.811 166.986C267.54 167.236 267.324 167.539 267.177 167.877C267.029 168.214 266.953 168.578 266.953 168.946C266.953 169.315 267.029 169.679 267.177 170.016C267.324 170.354 267.54 170.657 267.811 170.906C268.082 171.156 268.401 171.347 268.749 171.467C269.097 171.588 269.466 171.635 269.833 171.605C270.216 171.611 270.594 171.532 270.943 171.376C271.291 171.219 271.601 170.988 271.851 170.699L272.757 171.571C272.205 172.152 271.494 172.558 270.713 172.738C269.932 172.918 269.115 172.864 268.364 172.583C267.614 172.303 266.962 171.808 266.491 171.159C266.019 170.511 265.749 169.739 265.713 168.938Z" fill="white"/>
<path d="M279.767 171.553V172.733H274.107V165.159H279.613V166.338H275.578V168.305H279.22V169.467H275.578V171.553H279.767Z" fill="white"/>
<path d="M281.34 165.159H282.742V171.536H286.692V172.733H281.34V165.159Z" fill="white"/>
<path d="M293.477 171.553V172.733H287.801V165.159H293.323V166.338H289.254V168.305H292.913V169.467H289.254V171.553H293.477Z" fill="white"/>
<path d="M295.035 165.159H298.335C298.854 165.125 299.374 165.197 299.864 165.371C300.354 165.546 300.802 165.819 301.182 166.174C301.562 166.529 301.865 166.958 302.072 167.435C302.279 167.912 302.385 168.427 302.385 168.947C302.385 169.467 302.279 169.981 302.072 170.458C301.865 170.935 301.562 171.364 301.182 171.719C300.802 172.074 300.354 172.348 299.864 172.522C299.374 172.697 298.854 172.769 298.335 172.734H295.035V165.159ZM298.284 171.537C298.656 171.598 299.036 171.577 299.399 171.476C299.763 171.376 300.099 171.197 300.387 170.953C300.674 170.709 300.904 170.405 301.063 170.063C301.221 169.721 301.303 169.349 301.303 168.972C301.303 168.595 301.221 168.223 301.063 167.881C300.904 167.539 300.674 167.236 300.387 166.992C300.099 166.748 299.763 166.569 299.399 166.468C299.036 166.367 298.656 166.347 298.284 166.408H296.437V171.537H298.284Z" fill="white"/>
<path opacity="0.2" d="M66.0256 185.574H40.7207V206.622H66.0256V185.574Z" fill="#0C131D"/>
<path d="M54.5508 197.527L57.4916 199.578L58.3636 198.963C58.4441 198.909 58.5119 198.839 58.5625 198.757C58.6131 198.674 58.6452 198.582 58.6566 198.486C58.668 198.39 58.6584 198.293 58.6285 198.201C58.5985 198.109 58.549 198.025 58.4833 197.954L56.7735 196.005L54.5508 197.527Z" fill="white"/>
<path d="M60.6046 191.2H59.8352C59.3575 191.203 58.8921 191.352 58.5016 191.627L54.8255 194.226L46.6185 192.704C46.3254 192.654 46.0243 192.722 45.7807 192.892L44.5326 193.781L51.7308 196.414L48.3112 198.876H45.7636C45.4513 198.873 45.1459 198.969 44.8917 199.15L43.7461 199.971L47.1657 201.766L59.5788 192.978L62.0409 191.268L63.0325 190.567C62.1828 190.569 61.3475 190.787 60.6046 191.2Z" fill="white"/>
<path opacity="0.2" d="M212.077 185.574H73.6348V206.622H212.077V185.574Z" fill="#0C131D"/>
<path d="M165.859 194.414H82.661C82.2075 194.414 81.7726 194.234 81.452 193.913C81.1313 193.593 80.9512 193.158 80.9512 192.704C80.9512 192.251 81.1313 191.816 81.452 191.495C81.7726 191.175 82.2075 190.995 82.661 190.995H165.859C166.313 190.995 166.748 191.175 167.068 191.495C167.389 191.816 167.569 192.251 167.569 192.704C167.569 193.158 167.389 193.593 167.068 193.913C166.748 194.234 166.313 194.414 165.859 194.414Z" fill="white"/>
<path d="M112.428 201.184H82.661C82.2075 201.184 81.7726 201.004 81.452 200.683C81.1313 200.363 80.9512 199.928 80.9512 199.474C80.9512 199.021 81.1313 198.586 81.452 198.265C81.7726 197.945 82.2075 197.765 82.661 197.765H112.428C112.882 197.765 113.317 197.945 113.637 198.265C113.958 198.586 114.138 199.021 114.138 199.474C114.138 199.928 113.958 200.363 113.637 200.683C113.317 201.004 112.882 201.184 112.428 201.184Z" fill="white"/>
<path opacity="0.4" d="M219.411 206.605H324.922V185.557H219.411V206.605Z" fill="#0C131D"/>
<path d="M246.102 191.678H249.401C249.92 191.643 250.441 191.715 250.93 191.89C251.42 192.064 251.869 192.338 252.249 192.693C252.628 193.048 252.931 193.477 253.138 193.954C253.345 194.431 253.452 194.945 253.452 195.465C253.452 195.985 253.345 196.499 253.138 196.976C252.931 197.453 252.628 197.883 252.249 198.238C251.869 198.593 251.42 198.866 250.93 199.041C250.441 199.215 249.92 199.287 249.401 199.252H246.102V191.678ZM249.333 198.056C249.705 198.116 250.086 198.096 250.449 197.995C250.812 197.894 251.149 197.715 251.436 197.471C251.723 197.228 251.954 196.924 252.112 196.582C252.27 196.24 252.352 195.868 252.352 195.491C252.352 195.114 252.27 194.742 252.112 194.4C251.954 194.058 251.723 193.754 251.436 193.51C251.149 193.266 250.812 193.088 250.449 192.987C250.086 192.886 249.705 192.865 249.333 192.926H247.504V198.056H249.333Z" fill="white"/>
<path d="M260.686 198.073V199.253H255.061V191.678H260.583V192.858H256.463V194.824H260.122V195.987H256.463V198.073H260.686Z" fill="white"/>
<path d="M262.24 191.678H263.608V198.056H267.558V199.253H262.24V191.678Z" fill="white"/>
<path d="M273.68 197.491H269.901L269.149 199.201H267.695L271.115 191.626H272.5L275.919 199.201H274.449L273.68 197.491ZM273.218 196.397L271.782 193.097L270.363 196.397H273.218Z" fill="white"/>
<path d="M279.666 196.586V199.253H278.264V196.603L275.289 191.679H276.794L278.999 195.304L281.222 191.61H282.607L279.666 196.586Z" fill="white"/>
<path d="M289.103 198.073V199.253H283.443V191.678H288.949V192.858H284.845V194.824H288.487V195.987H284.845V198.073H289.103Z" fill="white"/>
<path d="M290.676 191.678H293.976C294.494 191.643 295.015 191.715 295.505 191.89C295.994 192.064 296.443 192.338 296.823 192.693C297.202 193.048 297.505 193.477 297.712 193.954C297.919 194.431 298.026 194.945 298.026 195.465C298.026 195.985 297.919 196.499 297.712 196.976C297.505 197.453 297.202 197.883 296.823 198.238C296.443 198.593 295.994 198.866 295.505 199.041C295.015 199.215 294.494 199.287 293.976 199.252H290.676V191.678ZM293.907 198.056C294.279 198.116 294.66 198.096 295.023 197.995C295.386 197.894 295.723 197.715 296.01 197.471C296.297 197.228 296.528 196.924 296.686 196.582C296.844 196.24 296.926 195.868 296.926 195.491C296.926 195.114 296.844 194.742 296.686 194.4C296.528 194.058 296.297 193.754 296.01 193.51C295.723 193.266 295.386 193.088 295.023 192.987C294.66 192.886 294.279 192.865 293.907 192.926H292.078V198.056H293.907Z" fill="white"/>
<path opacity="0.2" d="M66.0256 212.093H40.7207V233.141H66.0256V212.093Z" fill="#0C131D"/>
<path d="M54.5508 224.045L57.4916 226.097L58.3636 225.481C58.4441 225.428 58.5119 225.358 58.5625 225.275C58.6131 225.193 58.6452 225.101 58.6566 225.005C58.668 224.909 58.6584 224.811 58.6285 224.72C58.5985 224.628 58.549 224.543 58.4833 224.473L56.7735 222.523L54.5508 224.045Z" fill="white"/>
<path d="M60.6046 217.718H59.8352C59.3575 217.721 58.8921 217.87 58.5016 218.146L54.8255 220.744L46.6185 219.223C46.3254 219.173 46.0243 219.24 45.7807 219.411L44.5326 220.3L51.7308 222.933L48.3112 225.395H45.7636C45.4513 225.391 45.1459 225.487 44.8917 225.669L43.7461 226.489L47.1657 228.199L59.5788 219.411L62.0409 217.701L63.0325 217C62.1752 217.028 61.3394 217.276 60.6046 217.718Z" fill="white"/>
<path opacity="0.2" d="M212.077 212.093H73.6348V233.141H212.077V212.093Z" fill="#0C131D"/>
<path d="M165.859 220.95H82.661C82.2075 220.95 81.7726 220.77 81.452 220.449C81.1313 220.128 80.9512 219.694 80.9512 219.24C80.9512 218.787 81.1313 218.352 81.452 218.031C81.7726 217.71 82.2075 217.53 82.661 217.53H165.859C166.313 217.53 166.748 217.71 167.068 218.031C167.389 218.352 167.569 218.787 167.569 219.24C167.569 219.694 167.389 220.128 167.068 220.449C166.748 220.77 166.313 220.95 165.859 220.95Z" fill="white"/>
<path d="M112.428 227.79H82.661C82.2075 227.79 81.7726 227.61 81.452 227.289C81.1313 226.968 80.9512 226.533 80.9512 226.08C80.9512 225.626 81.1313 225.192 81.452 224.871C81.7726 224.55 82.2075 224.37 82.661 224.37H112.428C112.882 224.37 113.317 224.55 113.637 224.871C113.958 225.192 114.138 225.626 114.138 226.08C114.138 226.533 113.958 226.968 113.637 227.289C113.317 227.61 112.882 227.79 112.428 227.79Z" fill="white"/>
<path opacity="0.4" d="M219.411 233.123H324.922V212.076H219.411V233.123Z" fill="#0C131D"/>
<path d="M241.194 221.976C241.188 221.45 241.291 220.929 241.495 220.444C241.699 219.96 242 219.522 242.38 219.158C242.759 218.794 243.21 218.512 243.703 218.33C244.196 218.147 244.721 218.067 245.246 218.095C245.804 218.074 246.361 218.176 246.875 218.395C247.389 218.614 247.849 218.943 248.221 219.36L247.315 220.215C247.063 219.93 246.752 219.703 246.404 219.549C246.055 219.396 245.678 219.319 245.297 219.326C244.85 219.326 244.411 219.438 244.018 219.652C243.626 219.866 243.294 220.176 243.053 220.552C242.811 220.927 242.668 221.358 242.636 221.804C242.604 222.25 242.685 222.696 242.871 223.103C243.057 223.509 243.342 223.862 243.7 224.13C244.058 224.397 244.477 224.57 244.92 224.634C245.362 224.697 245.813 224.648 246.232 224.491C246.65 224.335 247.023 224.075 247.315 223.737L248.221 224.609C247.846 225.027 247.384 225.358 246.866 225.576C246.349 225.795 245.79 225.897 245.229 225.874C244.704 225.9 244.179 225.818 243.687 225.633C243.195 225.448 242.746 225.164 242.367 224.799C241.989 224.433 241.69 223.994 241.488 223.509C241.286 223.023 241.186 222.502 241.194 221.976Z" fill="white"/>
<path d="M254.324 224.01H250.545L249.793 225.72H248.34L251.759 218.146H253.144L256.564 225.72H255.059L254.324 224.01ZM253.845 222.916L252.426 219.616L251.007 222.916H253.845Z" fill="white"/>
<path d="M264.223 218.197V225.772H263.061L258.889 220.642V225.772H257.504V218.197H258.649L262.821 223.327V218.197H264.223Z" fill="white"/>
<path d="M265.713 221.976C265.752 221.177 266.024 220.407 266.497 219.761C266.97 219.115 267.622 218.623 268.372 218.344C269.122 218.065 269.938 218.013 270.717 218.194C271.497 218.375 272.206 218.78 272.757 219.36L271.851 220.215C271.598 219.932 271.286 219.706 270.938 219.553C270.59 219.399 270.214 219.322 269.833 219.326C269.466 219.297 269.097 219.344 268.749 219.464C268.401 219.584 268.082 219.775 267.811 220.025C267.54 220.275 267.324 220.578 267.177 220.915C267.029 221.252 266.953 221.617 266.953 221.985C266.953 222.353 267.029 222.717 267.177 223.055C267.324 223.392 267.54 223.695 267.811 223.945C268.082 224.195 268.401 224.386 268.749 224.506C269.097 224.626 269.466 224.673 269.833 224.644C270.216 224.649 270.594 224.571 270.943 224.414C271.291 224.258 271.601 224.027 271.851 223.737L272.757 224.609C272.205 225.19 271.494 225.596 270.713 225.776C269.932 225.956 269.115 225.903 268.364 225.622C267.614 225.341 266.962 224.846 266.491 224.198C266.019 223.55 265.749 222.777 265.713 221.976Z" fill="white"/>
<path d="M279.767 224.592V225.772H274.107V218.197H279.613V219.377H275.578V221.343H279.22V222.506H275.578V224.592H279.767Z" fill="white"/>
<path d="M281.34 218.197H282.742V224.575H286.692V225.772H281.34V218.197Z" fill="white"/>
<path d="M293.477 224.592V225.772H287.801V218.197H293.323V219.377H289.254V221.343H292.913V222.506H289.254V224.592H293.477Z" fill="white"/>
<path d="M295.035 218.198H298.335C298.854 218.163 299.374 218.235 299.864 218.409C300.354 218.584 300.802 218.857 301.182 219.212C301.562 219.567 301.865 219.997 302.072 220.473C302.279 220.95 302.385 221.465 302.385 221.985C302.385 222.505 302.279 223.019 302.072 223.496C301.865 223.973 301.562 224.402 301.182 224.757C300.802 225.112 300.354 225.386 299.864 225.56C299.374 225.735 298.854 225.807 298.335 225.772H295.035V218.198ZM298.284 224.575C298.656 224.636 299.036 224.615 299.399 224.514C299.763 224.414 300.099 224.235 300.387 223.991C300.674 223.747 300.904 223.444 301.063 223.102C301.221 222.76 301.303 222.387 301.303 222.01C301.303 221.634 301.221 221.261 301.063 220.919C300.904 220.577 300.674 220.274 300.387 220.03C300.099 219.786 299.763 219.607 299.399 219.506C299.036 219.405 298.656 219.385 298.284 219.446H296.437V224.575H298.284Z" fill="white"/>
<path d="M403.178 317.776H398.441V395.11H403.178V317.776Z" fill="#263238"/>
<path opacity="0.4" d="M403.178 317.776H398.441V395.11H403.178V317.776Z" fill="white"/>
<path d="M420.277 317.776H415.541V395.11H420.277V317.776Z" fill="#263238"/>
<path opacity="0.4" d="M420.277 317.776H415.541V395.11H420.277V317.776Z" fill="white"/>
<path d="M385.208 382.03H392.201C392.709 382.03 393.196 382.232 393.555 382.591C393.914 382.95 394.116 383.437 394.116 383.945V390.784H383.293V383.945C383.293 383.437 383.495 382.95 383.854 382.591C384.213 382.232 384.7 382.03 385.208 382.03Z" fill="#263238"/>
<path opacity="0.2" d="M385.208 382.03H392.201C392.709 382.03 393.196 382.232 393.555 382.591C393.914 382.95 394.116 383.437 394.116 383.945V390.784H383.293V383.945C383.293 383.437 383.495 382.95 383.854 382.591C384.213 382.232 384.7 382.03 385.208 382.03Z" fill="white"/>
<path d="M397.314 385.725H404.307C404.815 385.725 405.302 385.926 405.661 386.285C406.02 386.645 406.222 387.132 406.222 387.64V394.479H395.416V387.64C395.416 387.135 395.615 386.65 395.971 386.292C396.326 385.933 396.809 385.729 397.314 385.725Z" fill="#263238"/>
<path opacity="0.2" d="M397.314 385.725H404.307C404.815 385.725 405.302 385.926 405.661 386.285C406.02 386.645 406.222 387.132 406.222 387.64V394.479H395.416V387.64C395.416 387.135 395.615 386.65 395.971 386.292C396.326 385.933 396.809 385.729 397.314 385.725Z" fill="white"/>
<path d="M413.59 563.114C413.59 564.419 413.203 565.695 412.478 566.781C411.753 567.866 410.722 568.712 409.516 569.211C408.31 569.711 406.983 569.842 405.703 569.587C404.423 569.332 403.247 568.704 402.324 567.781C401.401 566.858 400.772 565.682 400.517 564.402C400.263 563.121 400.393 561.794 400.893 560.588C401.393 559.382 402.238 558.352 403.324 557.626C404.409 556.901 405.685 556.514 406.99 556.514C407.858 556.512 408.717 556.681 409.519 557.012C410.32 557.343 411.049 557.829 411.662 558.442C412.276 559.055 412.762 559.784 413.092 560.586C413.423 561.387 413.592 562.247 413.59 563.114Z" fill="#263238"/>
<path d="M426.808 551.299H365.033V557.147V559.558V569.44H369.12L371.838 559.558H374.369V569.697H378.472L381.242 559.558H426.808V551.299Z" fill="#263238"/>
<path opacity="0.2" d="M374.504 551.299V569.697H378.471L381.24 559.558H426.806V551.299H374.504Z" fill="white"/>
<path d="M364.912 388.083H418.685V554.138H364.912C361.701 554.138 358.622 552.863 356.352 550.593C354.082 548.323 352.807 545.244 352.807 542.033V400.12C352.825 396.922 354.108 393.86 356.376 391.605C358.645 389.349 361.713 388.083 364.912 388.083Z" fill="#5E88E8"/>
<path opacity="0.4" d="M364.912 388.083H418.685V554.138H364.912C361.701 554.138 358.622 552.863 356.352 550.593C354.082 548.323 352.807 545.244 352.807 542.033V400.12C352.825 396.922 354.108 393.86 356.376 391.605C358.645 389.349 361.713 388.083 364.912 388.083Z" fill="white"/>
<path opacity="0.2" d="M362.433 545.453C361.744 545.453 361.083 545.179 360.595 544.692C360.108 544.205 359.834 543.544 359.834 542.854V399.112C359.834 398.423 360.108 397.762 360.595 397.274C361.083 396.787 361.744 396.513 362.433 396.513C363.122 396.513 363.783 396.787 364.271 397.274C364.758 397.762 365.032 398.423 365.032 399.112V542.854C365.032 543.544 364.758 544.205 364.271 544.692C363.783 545.179 363.122 545.453 362.433 545.453Z" fill="#0C131D"/>
<path opacity="0.2" d="M381.238 392.854H415.52V547.915H381.238C378.971 547.915 376.797 547.014 375.193 545.411C373.59 543.807 372.69 541.633 372.69 539.366V401.437C372.685 400.311 372.903 399.196 373.33 398.155C373.758 397.113 374.387 396.167 375.181 395.37C375.976 394.572 376.92 393.939 377.959 393.508C378.998 393.076 380.113 392.854 381.238 392.854Z" fill="#0C131D"/>
<path d="M415.403 385.638H420.225C420.86 385.638 421.469 385.89 421.918 386.339C422.367 386.788 422.619 387.397 422.619 388.032V556.275H413.01V388.032C413.01 387.397 413.262 386.788 413.711 386.339C414.16 385.89 414.769 385.638 415.403 385.638Z" fill="#263238"/>
<path d="M428.979 563.114C428.979 564.419 428.592 565.695 427.867 566.781C427.141 567.866 426.111 568.712 424.905 569.211C423.699 569.711 422.372 569.842 421.092 569.587C419.811 569.332 418.635 568.704 417.712 567.781C416.789 566.858 416.161 565.682 415.906 564.402C415.651 563.121 415.782 561.794 416.282 560.588C416.781 559.382 417.627 558.352 418.712 557.626C419.798 556.901 421.074 556.514 422.379 556.514C423.246 556.512 424.106 556.681 424.907 557.012C425.709 557.343 426.438 557.829 427.051 558.442C427.664 559.055 428.15 559.784 428.481 560.586C428.812 561.387 428.981 562.247 428.979 563.114Z" fill="#263238"/>
<path opacity="0.4" d="M428.979 563.114C428.979 564.419 428.592 565.695 427.867 566.781C427.141 567.866 426.111 568.712 424.905 569.211C423.699 569.711 422.372 569.842 421.092 569.587C419.811 569.332 418.635 568.704 417.712 567.781C416.789 566.858 416.161 565.682 415.906 564.402C415.651 563.121 415.782 561.794 416.282 560.588C416.781 559.382 417.627 558.352 418.712 557.626C419.798 556.901 421.074 556.514 422.379 556.514C423.246 556.512 424.106 556.681 424.907 557.012C425.709 557.343 426.438 557.829 427.051 558.442C427.664 559.055 428.15 559.784 428.481 560.586C428.812 561.387 428.981 562.247 428.979 563.114Z" fill="white"/>
<path d="M426.039 563.114C426.035 563.837 425.818 564.543 425.414 565.142C425.01 565.742 424.437 566.208 423.768 566.482C423.099 566.757 422.364 566.827 421.655 566.683C420.947 566.54 420.296 566.191 419.786 565.678C419.276 565.166 418.93 564.514 418.79 563.805C418.65 563.095 418.723 562.36 419.001 561.693C419.278 561.025 419.747 560.455 420.349 560.053C420.95 559.652 421.657 559.438 422.38 559.438C422.862 559.438 423.339 559.533 423.784 559.718C424.229 559.903 424.633 560.174 424.973 560.516C425.313 560.857 425.582 561.263 425.765 561.709C425.948 562.154 426.041 562.632 426.039 563.114Z" fill="#5E88E8"/>
<path opacity="0.2" d="M415.403 385.638H420.225C420.86 385.638 421.469 385.89 421.918 386.339C422.367 386.788 422.619 387.397 422.619 388.032V556.275H413.01V388.032C413.01 387.397 413.262 386.788 413.711 386.339C414.16 385.89 414.769 385.638 415.403 385.638Z" fill="white"/>
<path d="M420.567 315.52H398.647C397.514 315.52 396.596 316.438 396.596 317.571V321.196C396.596 322.329 397.514 323.248 398.647 323.248H420.567C421.7 323.248 422.619 322.329 422.619 321.196V317.571C422.619 316.438 421.7 315.52 420.567 315.52Z" fill="#263238"/>
<path opacity="0.2" d="M420.567 315.52H398.647C397.514 315.52 396.596 316.438 396.596 317.571V321.196C396.596 322.329 397.514 323.248 398.647 323.248H420.567C421.7 323.248 422.619 322.329 422.619 321.196V317.571C422.619 316.438 421.7 315.52 420.567 315.52Z" fill="white"/>
<path d="M588.401 553.59H454.199L455.755 561.524H457.123L458.337 569.697H465.621L466.835 561.524H494.174L495.388 569.697H502.672L503.886 561.524H538.954L540.168 569.697H547.451L548.665 561.524H576.005L577.219 569.697H584.502L585.716 561.524H586.862L588.401 553.59Z" fill="#263238"/>
<path d="M589.511 446.13H453.326C449.03 446.13 445.547 449.613 445.547 453.91V550.274C445.547 554.57 449.03 558.053 453.326 558.053H589.511C593.808 558.053 597.291 554.57 597.291 550.274V453.91C597.291 449.613 593.808 446.13 589.511 446.13Z" fill="#5E88E8"/>
<path opacity="0.2" d="M597.289 453.158V551.026C597.291 551.948 597.111 552.862 596.76 553.714C596.409 554.566 595.893 555.341 595.242 555.994C594.59 556.647 593.817 557.165 592.965 557.518C592.114 557.871 591.201 558.053 590.279 558.053H544.012C544.934 558.053 545.847 557.871 546.698 557.518C547.55 557.165 548.324 556.647 548.975 555.994C549.626 555.341 550.142 554.566 550.493 553.714C550.844 552.862 551.024 551.948 551.022 551.026V453.158C551.024 452.236 550.844 451.322 550.493 450.47C550.142 449.617 549.626 448.842 548.975 448.19C548.324 447.537 547.55 447.019 546.698 446.666C545.847 446.312 544.934 446.13 544.012 446.13H590.33C592.183 446.144 593.956 446.891 595.26 448.208C596.564 449.525 597.293 451.304 597.289 453.158Z" fill="#0C131D"/>
<path d="M576.5 453.482V540.22C576.502 540.322 576.484 540.423 576.446 540.517C576.408 540.612 576.351 540.698 576.279 540.769C576.208 540.841 576.122 540.898 576.027 540.936C575.933 540.974 575.832 540.992 575.73 540.99C575.526 540.99 575.33 540.909 575.186 540.764C575.042 540.62 574.961 540.424 574.961 540.22V453.482C574.955 451.603 574.231 449.797 572.938 448.433C571.644 447.07 569.879 446.252 568.002 446.147H572.635C573.828 446.963 574.803 448.058 575.477 449.336C576.15 450.614 576.501 452.038 576.5 453.482Z" fill="#263238"/>
<path opacity="0.2" d="M516.826 481.712C520.943 481.712 524.28 477.846 524.28 473.077C524.28 468.309 520.943 464.443 516.826 464.443C512.709 464.443 509.371 468.309 509.371 473.077C509.371 477.846 512.709 481.712 516.826 481.712Z" fill="white"/>
<path opacity="0.2" d="M521.785 473.077C521.657 474.057 521.247 474.98 520.606 475.733C519.965 476.487 519.12 477.039 518.172 477.323C517.224 477.607 516.215 477.611 515.265 477.334C514.315 477.057 513.466 476.512 512.819 475.763C512.172 475.015 511.755 474.095 511.619 473.115C511.483 472.136 511.633 471.137 512.051 470.241C512.469 469.344 513.138 468.588 513.976 468.063C514.814 467.537 515.787 467.266 516.776 467.28C518.205 467.394 519.532 468.066 520.47 469.151C521.407 470.236 521.88 471.646 521.785 473.077Z" fill="white"/>
<path opacity="0.2" d="M508.76 484.156L527.174 479.779L527.995 482.823L509.375 486.909L508.76 484.156Z" fill="white"/>
<path opacity="0.2" d="M514.093 512.608L517.341 529.535C517.413 529.889 517.39 530.256 517.276 530.599C517.162 530.942 516.959 531.248 516.69 531.489C516.42 531.729 516.092 531.895 515.738 531.969C515.385 532.043 515.018 532.023 514.674 531.912C510.554 530.629 503.714 528.201 499.406 526.646C498.991 526.499 498.622 526.246 498.335 525.913C498.048 525.581 497.853 525.179 497.768 524.747C497.683 524.316 497.713 523.87 497.853 523.453C497.993 523.036 498.24 522.664 498.568 522.371L510.673 511.463C510.945 511.216 511.278 511.047 511.638 510.972C511.997 510.897 512.37 510.919 512.718 511.035C513.066 511.152 513.377 511.359 513.618 511.636C513.86 511.912 514.024 512.248 514.093 512.608Z" fill="white"/>
<path opacity="0.2" d="M503.219 521.875L508.536 517.327C508.81 517.086 509.143 516.921 509.501 516.849C509.859 516.777 510.229 516.8 510.575 516.916C510.921 517.032 511.231 517.237 511.473 517.51C511.716 517.783 511.882 518.115 511.956 518.472L513.46 525.414C513.54 525.775 513.522 526.151 513.407 526.503C513.292 526.854 513.085 527.169 512.807 527.413C512.53 527.658 512.192 527.823 511.828 527.893C511.465 527.962 511.09 527.933 510.742 527.808L503.903 525.431C503.558 525.308 503.252 525.097 503.014 524.82C502.776 524.542 502.615 524.207 502.546 523.848C502.477 523.489 502.502 523.118 502.62 522.772C502.738 522.426 502.945 522.117 503.219 521.875Z" fill="white"/>
<path opacity="0.2" d="M473.996 506.041C473.996 511.495 470.115 515.907 465.311 515.907C460.506 515.907 456.625 511.495 456.625 506.041C456.625 500.587 460.523 496.227 465.362 496.227C470.201 496.227 473.996 500.587 473.996 506.041Z" fill="white"/>
<path d="M479.075 503.084H451.564V508.983H479.075V503.084Z" fill="#5E88E8"/>
<path opacity="0.4" d="M479.075 503.084H451.564V508.983H479.075V503.084Z" fill="white"/>
<path opacity="0.2" d="M478.511 532.719L470.35 529.366C468.795 528.727 467.017 529.469 466.378 531.024L463.025 539.184C462.386 540.739 463.128 542.517 464.683 543.156L472.843 546.51C474.398 547.149 476.176 546.406 476.815 544.851L480.169 536.691C480.808 535.136 480.065 533.358 478.511 532.719Z" fill="#0C131D"/>
<path d="M480.056 544.828L460.113 536.633L459.158 538.958L479.1 547.153L480.056 544.828Z" fill="#5E88E8"/>
<path opacity="0.4" d="M480.056 544.828L460.113 536.633L459.158 538.958L479.1 547.153L480.056 544.828Z" fill="white"/>
<path opacity="0.2" d="M470.234 467.28L498.771 451.978L501.216 459.637L471.585 474.376L470.234 467.28Z" fill="#0C131D"/>
<path opacity="0.2" d="M538.712 495.355H527.188C525.583 495.355 524.281 496.656 524.281 498.262V500.177C524.281 501.782 525.583 503.083 527.188 503.083H538.712C540.317 503.083 541.619 501.782 541.619 500.177V498.262C541.619 496.656 540.317 495.355 538.712 495.355Z" fill="#0C131D"/>
<path opacity="0.4" d="M502.096 491.885L491.256 487.973C489.746 487.428 488.08 488.211 487.535 489.721L486.885 491.522C486.34 493.032 487.123 494.698 488.633 495.243L499.473 499.154C500.983 499.699 502.648 498.916 503.193 497.406L503.843 495.605C504.388 494.095 503.606 492.429 502.096 491.885Z" fill="white"/>
<path opacity="0.2" d="M544.218 541.058C544.221 542.666 543.748 544.237 542.857 545.575C541.967 546.913 540.7 547.957 539.216 548.574C537.732 549.191 536.099 549.355 534.522 549.043C532.946 548.732 531.497 547.96 530.359 546.824C529.222 545.689 528.447 544.242 528.132 542.666C527.817 541.09 527.977 539.457 528.591 537.972C529.205 536.487 530.246 535.217 531.582 534.324C532.918 533.431 534.489 532.954 536.096 532.954C538.247 532.954 540.31 533.807 541.833 535.327C543.355 536.846 544.213 538.908 544.218 541.058Z" fill="#0C131D"/>
<path opacity="0.2" d="M536.096 546.103C538.938 546.103 541.242 543.799 541.242 540.957C541.242 538.114 538.938 535.81 536.096 535.81C533.253 535.81 530.949 538.114 530.949 540.957C530.949 543.799 533.253 546.103 536.096 546.103Z" fill="white"/>
<path d="M441.717 246.495C441.717 246.495 443.855 235.655 448.967 236.988C454.079 238.322 455.72 242.118 459.79 239.331C463.859 236.544 469.228 234.749 471.758 236.869C474.289 238.989 472.972 244.853 478.392 246.495C483.812 248.136 486.018 246.768 488.959 253.864C491.9 260.96 484.325 263.952 488.959 269.389C493.592 274.826 497.32 275.168 495.644 279.648C493.969 284.127 487.711 290.642 488.959 294.472C490.207 298.302 481.897 313.895 473.006 314.476C464.116 315.057 458.217 327.112 458.832 331.95C459.448 336.789 456.404 338.276 451.993 339.405C447.582 340.533 443.701 346.244 445.154 347.954C446.607 349.664 440.879 354.793 440.879 354.793C440.879 354.793 445.291 352.074 440.879 347.68C436.468 343.286 431.373 341.046 435.1 334.72C435.1 334.72 426.312 333.147 426.979 325.709C427.646 318.272 430.398 313.997 425.628 310.886C420.858 307.774 416.498 298.661 420.892 295.497C425.286 292.334 426.637 280.109 423.935 271.338C421.234 262.567 428.672 254.924 429.68 256.189C430.689 257.455 427.235 242.032 441.717 246.495Z" fill="#263238"/>
<path d="M426.346 301.722L436.485 296.148C438.921 295.975 441.367 295.975 443.803 296.148C444.931 296.49 439.819 277.99 439.922 277.597C440.024 277.203 434.792 276.126 432.929 277.597C431.065 279.067 432.758 289.292 432.758 289.292L420.789 296.815L426.346 301.722Z" fill="#EEBFB0"/>
<path opacity="0.2" d="M426.346 301.722L436.485 296.148C438.921 295.975 441.367 295.975 443.803 296.148C444.931 296.49 439.819 277.99 439.922 277.597C440.024 277.203 434.792 276.126 432.929 277.597C431.065 279.067 432.758 289.292 432.758 289.292L420.789 296.815L426.346 301.722Z" fill="#0C131D"/>
<path d="M454.814 305.791C454.814 305.791 426.089 306.868 423.867 306.68C421.644 306.492 432.416 299.721 432.416 299.721L425.2 292.54C425.2 292.54 402.648 302.047 401.075 309.125C399.502 316.204 435.664 327.625 449.975 327.71C464.286 327.796 454.814 305.791 454.814 305.791Z" fill="#5E88E8"/>
<path opacity="0.2" d="M452.694 327.386C451.812 327.616 450.904 327.726 449.992 327.71C443.079 327.315 436.234 326.122 429.595 324.154C415.061 320.187 400.049 313.741 401.092 309.125C402.665 302.047 425.218 292.54 425.218 292.54L432.433 299.721C432.433 299.721 421.627 306.56 423.884 306.68C426.141 306.8 454.831 305.791 454.831 305.791C454.831 305.791 463.004 324.787 452.694 327.386Z" fill="white"/>
<path opacity="0.2" d="M452.695 327.386C451.814 327.616 450.905 327.726 449.994 327.71C443.08 327.315 436.235 326.122 429.596 324.154C434.195 318.46 448.968 319.298 448.968 319.298C448.968 319.298 451.019 323.778 452.695 327.386Z" fill="#0C131D"/>
<path d="M431.1 556.516L441.684 554.293L440.333 539.213L439.085 525.38L426.107 525.962L428.74 542.136L431.1 556.516Z" fill="#EEBFB0"/>
<path d="M445.151 550.342C445.066 549.146 430.498 550.684 430.498 550.684C430.498 550.684 421.949 560.208 413.229 562.653C404.51 565.098 409.69 570.108 419.453 569.697L443.595 568.689C450.537 568.381 445.955 562.653 445.151 550.342Z" fill="#263238"/>
<path d="M422.79 554.788C422.385 554.808 421.985 554.701 421.645 554.48C421.42 554.294 421.259 554.043 421.182 553.761C421.106 553.48 421.118 553.182 421.217 552.907C421.263 552.691 421.354 552.486 421.483 552.306C421.613 552.127 421.778 551.976 421.969 551.864C422.936 551.417 424.005 551.24 425.064 551.351C423.901 550.77 422.927 550.069 422.841 549.317C422.756 548.564 423.115 548.376 423.765 548.017C424.056 547.859 424.378 547.766 424.709 547.746C425.04 547.725 425.371 547.777 425.68 547.898C427.714 548.633 429.099 552.018 429.099 552.155C429.143 552.265 429.143 552.387 429.099 552.497C429.06 552.555 429.007 552.602 428.945 552.634C427.048 553.733 424.959 554.464 422.79 554.788ZM424.5 552.172C423.782 552.123 423.064 552.258 422.414 552.565C422.227 552.682 422.093 552.865 422.038 553.078C422.038 553.454 422.038 553.694 422.158 553.814C422.841 554.344 425.423 553.454 427.526 552.48C426.523 552.286 425.505 552.183 424.483 552.172H424.5ZM424.876 548.564C424.631 548.572 424.391 548.637 424.175 548.753C424.021 548.753 423.662 549.043 423.679 549.231C423.679 549.881 425.834 550.941 428.005 551.625C427.474 550.388 426.564 549.352 425.406 548.667C425.233 548.596 425.046 548.561 424.859 548.564H424.876Z" fill="#4877C1"/>
<path opacity="0.2" d="M428.825 542.46L440.4 539.502L439.117 525.533L426.123 526.046L428.825 542.46Z" fill="#0C131D"/>
<path d="M387.43 418.397C390.269 402.291 450.077 402.086 489.283 396.769L532.318 447.72C532.318 447.72 478.819 433.837 426.14 433.837C426.14 433.837 437.647 464.049 441.528 532.338L422.618 536.048C422.618 536.048 384.575 434.521 387.43 418.397Z" fill="#263238"/>
<path opacity="0.2" d="M387.43 418.397C390.269 402.291 450.077 402.086 489.283 396.769L532.318 447.72C532.318 447.72 478.819 433.837 426.14 433.837C426.14 433.837 437.647 464.049 441.528 532.338L422.618 536.048C422.618 536.048 384.575 434.521 387.43 418.397Z" fill="#0C131D"/>
<path d="M476.1 291.019H509.526L532.318 377.158L469.295 384.271L471.791 357.94L462.336 346.211L476.1 291.019Z" fill="#5E88E8"/>
<path opacity="0.2" d="M476.1 291.019H509.526L532.318 377.158L469.295 384.271L471.791 357.94L462.336 346.211L476.1 291.019Z" fill="white"/>
<path d="M321.5 544.7L329.844 551.556L340.752 541.058L350.755 531.415L342.154 521.669L331.212 533.86L321.5 544.7Z" fill="#EEBFB0"/>
<path d="M334.718 548.667C335.368 547.658 322.75 540.238 322.75 540.238C322.75 540.238 310.166 542.768 301.771 539.571C293.376 536.374 294.487 543.469 302.574 548.94L322.596 562.482C328.324 566.329 328.05 559.045 334.718 548.667Z" fill="#263238"/>
<path d="M320.372 540.921C319.295 540.75 313.96 539.861 313.413 538.014C313.347 537.732 313.367 537.436 313.471 537.164C313.574 536.893 313.757 536.659 313.995 536.493C314.34 536.212 314.782 536.077 315.226 536.116C316.276 536.324 317.248 536.821 318.03 537.553C317.431 536.39 317.055 535.244 317.448 534.595C317.842 533.945 318.218 533.979 318.97 534.099C319.296 534.144 319.608 534.26 319.885 534.437C320.163 534.614 320.399 534.848 320.577 535.125C321.757 536.937 320.868 540.459 320.834 540.613C320.8 540.694 320.74 540.76 320.663 540.801H320.56L320.372 540.921ZM315.02 536.937C314.924 536.931 314.827 536.945 314.736 536.977C314.645 537.009 314.562 537.06 314.49 537.125C314.217 537.365 314.097 537.604 314.148 537.792C314.405 538.613 317.004 539.502 319.278 539.895C318.132 538.681 316.303 537.023 315.123 536.937H315.02ZM318.44 534.885C318.269 534.885 318.115 534.885 318.064 535.022C317.722 535.569 318.799 537.638 320.099 539.502C320.419 538.197 320.311 536.825 319.791 535.586C319.673 535.405 319.517 535.251 319.334 535.136C319.151 535.021 318.945 534.947 318.731 534.92L318.44 534.885Z" fill="#4877C1"/>
<path opacity="0.2" d="M331.01 534.117L340.567 541.281L350.655 531.518L342.123 521.721L331.01 534.117Z" fill="#0C131D"/>
<path d="M483.539 374.166C484.035 385.262 485.249 399.539 485.249 399.539C435.511 411.781 415.148 424.844 405.88 435.941C388.492 456.8 338.412 522.61 338.412 522.61L354.98 534.732C403.265 488.209 439.717 454.868 439.717 454.868C489.062 454.953 544.288 451.585 554.803 441.19C570.191 425.921 557.402 382.732 539.826 362.249L483.539 374.166Z" fill="#263238"/>
<path d="M360.69 530.834L341.78 516.66L335.043 524.747L351.286 536.835L360.69 530.834Z" fill="#5E88E8"/>
<path d="M538.184 357.94L540.902 365.737L486.189 380.201L482.975 370.969L538.184 357.94Z" fill="#0C131D"/>
<path d="M523.48 374.437L526.172 373.651L522.174 359.946L519.483 360.731L523.48 374.437Z" fill="#263238"/>
<path d="M498.573 377.564L510.58 374.555L508.298 365.45L496.291 368.459L498.573 377.564Z" fill="white"/>
<path d="M489.67 382.196L492.361 381.41L488.362 367.705L485.67 368.491L489.67 382.196Z" fill="#263238"/>
<path d="M482.973 370.968C482.973 370.968 467.191 336.345 448.965 315.383C448.965 315.383 454.658 305.38 477.023 299.721C499.387 294.062 518.998 306.03 518.998 306.03L539.156 360.743C539.156 360.743 505.456 370.199 482.973 370.968Z" fill="#5E88E8"/>
<path d="M498.943 294.472C498.943 294.472 497.489 332.925 498.943 340.362C500.396 347.8 526.453 384.338 526.453 384.338L555.195 373.515L536.25 345.099C536.25 345.099 533.002 300.918 498.943 294.472Z" fill="#5E88E8"/>
<path d="M458.866 304.115C458.866 304.115 467.209 343.782 471.792 357.939V388.322H465.363L468.646 357.939C468.646 357.939 427.747 313.912 458.866 304.115Z" fill="#5E88E8"/>
<path opacity="0.4" d="M498.943 294.472C498.943 294.472 497.489 332.925 498.943 340.362C500.396 347.8 526.453 384.338 526.453 384.338L555.195 373.515L536.25 345.099C536.25 345.099 533.002 300.918 498.943 294.472Z" fill="white"/>
<path opacity="0.4" d="M458.866 304.115C458.866 304.115 467.209 343.782 471.792 357.939V388.322H465.363L468.646 357.939C468.646 357.939 427.747 313.912 458.866 304.115Z" fill="white"/>
<path d="M498.311 334.584C498.311 334.584 491.625 307.518 491.266 302.884C491.095 300.491 494.293 295.242 497.456 290.711C498.196 289.643 499.162 288.752 500.285 288.1C501.408 287.447 502.661 287.05 503.955 286.936C505.249 286.821 506.552 286.993 507.772 287.439C508.992 287.884 510.099 288.593 511.014 289.514C515.409 294.011 519.563 299.636 516.759 302.884C516.759 302.884 508.21 298.388 504.466 299.721C500.721 301.055 498.311 334.584 498.311 334.584Z" fill="#5E88E8"/>
<path d="M465.036 331.883C465.036 331.883 456.607 314.494 454.778 308.681C452.948 302.867 460.728 288.881 465.036 286.693C469.345 284.504 480.322 294.404 480.322 294.404C480.322 294.404 458.266 300.149 465.036 331.883Z" fill="#5E88E8"/>
<path opacity="0.2" d="M498.311 334.584C498.311 334.584 491.625 307.518 491.266 302.884C491.095 300.491 494.293 295.242 497.456 290.711C498.196 289.643 499.162 288.752 500.285 288.1C501.408 287.447 502.661 287.05 503.955 286.936C505.249 286.821 506.552 286.993 507.772 287.439C508.992 287.884 510.099 288.593 511.014 289.514C515.409 294.011 519.563 299.636 516.759 302.884C516.759 302.884 508.21 298.388 504.466 299.721C500.721 301.055 498.311 334.584 498.311 334.584Z" fill="white"/>
<path opacity="0.2" d="M465.036 331.883C465.036 331.883 456.607 314.494 454.778 308.681C452.948 302.867 460.728 288.881 465.036 286.693C469.345 284.504 480.322 294.404 480.322 294.404C480.322 294.404 458.266 300.149 465.036 331.883Z" fill="white"/>
<path d="M477.06 316.597C477.06 316.597 468.888 317.76 467.451 311.69C467.451 311.69 469.315 309.98 467.451 306.031C466.568 304.205 465.415 302.522 464.032 301.038C462.441 299.298 460.727 297.675 458.902 296.182L469.4 282.76C470.225 285.621 471.463 288.346 473.077 290.848C475.59 294.763 479.591 298.644 485.558 298.849C485.524 298.849 486.31 306.082 477.06 316.597Z" fill="#EEBFB0"/>
<path opacity="0.2" d="M473.04 290.848C471.766 296.099 469.908 301.192 467.5 306.031C466.616 304.205 465.464 302.522 464.081 301.038C462.49 299.298 460.776 297.675 458.951 296.182L469.449 282.76C470.247 285.616 471.456 288.341 473.04 290.848Z" fill="#0C131D"/>
<path d="M456.217 250.941C441.684 252.035 437.598 260.157 437.649 275.22C437.649 294.028 442.881 307.022 460.748 301.654C485.027 294.472 480.359 249.129 456.217 250.941Z" fill="#EEBFB0"/>
<path d="M446.984 273.698C445.985 275.958 444.716 278.088 443.205 280.042C443.678 280.61 444.298 281.038 444.998 281.279C445.697 281.52 446.449 281.565 447.172 281.409L446.984 273.698Z" fill="#A24E3F"/>
<path d="M455.788 271.852C455.788 273.031 456.558 273.972 457.344 273.938C458.131 273.903 458.746 272.895 458.678 271.698C458.609 270.501 457.926 269.561 457.122 269.612C456.318 269.663 455.737 270.655 455.788 271.852Z" fill="#263238"/>
<path d="M457.463 269.646L454.812 268.757C454.812 268.757 456.215 270.877 457.463 269.646Z" fill="#263238"/>
<path d="M440.915 272.364C440.915 273.561 441.668 274.485 442.471 274.45C443.275 274.416 443.856 273.407 443.805 272.211C443.754 271.014 443.053 270.073 442.249 270.125C441.446 270.176 440.847 271.168 440.915 272.364Z" fill="#263238"/>
<path d="M442.589 270.159L439.922 269.27C439.922 269.27 441.426 271.39 442.589 270.159Z" fill="#263238"/>
<path d="M461.652 264.141C461.485 264.138 461.326 264.07 461.207 263.953C460.404 263.267 459.457 262.771 458.435 262.501C457.414 262.232 456.345 262.196 455.308 262.397C455.229 262.414 455.146 262.416 455.066 262.401C454.985 262.387 454.909 262.356 454.84 262.312C454.772 262.267 454.713 262.209 454.667 262.142C454.621 262.074 454.589 261.998 454.573 261.918C454.543 261.755 454.578 261.587 454.671 261.449C454.763 261.312 454.906 261.216 455.069 261.183C456.308 260.932 457.59 260.974 458.81 261.307C460.03 261.639 461.155 262.253 462.096 263.098C462.156 263.154 462.203 263.222 462.236 263.296C462.268 263.371 462.285 263.452 462.285 263.534C462.285 263.616 462.268 263.697 462.236 263.772C462.203 263.846 462.156 263.914 462.096 263.97C462.038 264.027 461.968 264.072 461.892 264.102C461.815 264.131 461.733 264.144 461.652 264.141Z" fill="#263238"/>
<path d="M438.879 264.226C438.783 264.226 438.689 264.205 438.603 264.163C438.517 264.122 438.442 264.062 438.383 263.987C438.284 263.857 438.239 263.693 438.258 263.53C438.277 263.368 438.359 263.219 438.485 263.115C439.334 262.38 440.337 261.845 441.42 261.549C442.503 261.253 443.639 261.204 444.743 261.405C444.822 261.427 444.896 261.464 444.961 261.515C445.025 261.565 445.079 261.628 445.119 261.7C445.159 261.772 445.184 261.85 445.193 261.932C445.202 262.014 445.194 262.096 445.171 262.175C445.151 262.255 445.115 262.33 445.065 262.396C445.015 262.462 444.952 262.517 444.88 262.557C444.807 262.597 444.728 262.622 444.645 262.63C444.563 262.637 444.48 262.628 444.401 262.602C443.487 262.453 442.551 262.513 441.663 262.776C440.775 263.04 439.957 263.5 439.272 264.124C439.156 264.2 439.017 264.236 438.879 264.226Z" fill="#263238"/>
<path d="M473.911 274.245C473.911 274.245 466.217 262.806 466.559 253.505C466.559 253.505 436.877 243.913 437.646 273.253C437.646 273.253 432.876 247.504 457.822 245.042C482.768 242.58 485.435 279.084 473.347 291.052C473.347 291.052 478.698 281.392 473.911 274.245Z" fill="#263238"/>
<path d="M471.793 277.494C471.811 275.802 472.497 274.186 473.701 272.998C474.905 271.81 476.53 271.146 478.222 271.15C482.77 271.304 485.608 280.383 474.58 283.444C472.99 283.888 471.964 282.384 471.793 277.494Z" fill="#EEBFB0"/>
<path d="M448.966 290.505C448.893 290.521 448.817 290.521 448.744 290.505C448.667 290.477 448.597 290.433 448.537 290.377C448.477 290.321 448.429 290.254 448.395 290.179C448.362 290.104 448.344 290.023 448.342 289.941C448.34 289.859 448.355 289.778 448.385 289.702C448.385 289.702 451.411 282.213 458.404 282.982C458.486 282.988 458.566 283.011 458.639 283.05C458.711 283.088 458.775 283.141 458.827 283.205C458.878 283.269 458.916 283.343 458.937 283.423C458.958 283.502 458.963 283.585 458.951 283.666C458.93 283.828 458.847 283.975 458.719 284.077C458.592 284.179 458.43 284.228 458.267 284.213C452.198 283.512 449.565 290.095 449.548 290.163C449.491 290.268 449.407 290.355 449.305 290.416C449.202 290.476 449.085 290.507 448.966 290.505Z" fill="#263238"/>
<path d="M448.023 399.042L457.889 390.374C457.889 390.374 473.14 395.281 476.799 398.239C480.458 401.197 493.076 409.557 493.076 409.557L480.321 415.867C480.321 415.867 469.037 404.12 465.156 403.112C461.274 402.103 448.023 399.042 448.023 399.042Z" fill="#5E88E8"/>
<path opacity="0.4" d="M448.023 399.042L457.889 390.374C457.889 390.374 473.14 395.281 476.799 398.239C480.458 401.197 493.076 409.557 493.076 409.557L480.321 415.867C480.321 415.867 469.037 404.12 465.156 403.112C461.274 402.103 448.023 399.042 448.023 399.042Z" fill="white"/>
<path d="M459.79 397.333L468.442 394.136C468.442 394.136 484.599 407.523 482.975 407.523C481.35 407.523 467.433 414.363 467.433 414.363L455.652 400.479C456.784 399.14 458.197 398.066 459.79 397.333Z" fill="#5E88E8"/>
<path d="M491.267 384.27L482.974 393.092C480.918 392.978 478.858 392.978 476.802 393.092C475.485 393.314 465.158 399.384 465.158 399.384C465.158 399.384 472.168 407.061 473.04 407.523C473.912 407.984 485.436 404.599 485.539 403.231C485.641 401.863 485.727 398.512 485.727 398.512C485.727 398.512 496.618 388.732 496.088 388.253C495.558 387.775 491.267 384.27 491.267 384.27Z" fill="#EEBFB0"/>
<path d="M512.298 304.474C503.441 308.116 512.588 350.297 512.109 353.118C511.631 355.939 483.043 390.733 483.043 390.733L492.036 397.384C492.036 397.384 518.453 369.566 523.497 361.154C528.541 352.742 527.6 321.076 526.232 317.537C524.864 313.998 516.811 302.61 512.298 304.474Z" fill="#5E88E8"/>
<path opacity="0.2" d="M512.298 304.474C503.441 308.116 512.588 350.297 512.109 353.118C511.631 355.939 483.043 390.733 483.043 390.733L492.036 397.384C492.036 397.384 518.453 369.566 523.497 361.154C528.541 352.742 527.6 321.076 526.232 317.537C524.864 313.998 516.811 302.61 512.298 304.474Z" fill="white"/>
<path d="M418.771 529.637L441.683 525.738V534.475L421.558 537.553L418.771 529.637Z" fill="#5E88E8"/>
</svg>
