<svg width="594" height="580" viewBox="0 0 594 580" fill="none" xmlns="http://www.w3.org/2000/svg">
<path d="M136.426 169.07L10.4082 241.821V95.7094L136.426 22.9712V169.07Z" fill="white"/>
<path d="M7.93359 243.247L10.3967 244.725L138.891 170.548L136.428 169.07L7.93359 243.247Z" fill="#FAFAFA"/>
<path d="M143.555 13.4429L5.74023 93.0128V252.801L143.555 173.231V13.4429ZM138.888 170.548L10.4071 244.725V95.7093L138.888 21.5191V170.548Z" fill="#F0F0F0"/>
<path d="M138.889 170.548L136.426 169.07V22.9714L138.889 21.5195V170.548Z" fill="#E0E0E0"/>
<path d="M143.556 13.4431L141.042 12.0171L3.22656 91.5741L5.74148 93.0131L143.556 13.4431Z" fill="#FAFAFA"/>
<path d="M3.22656 91.5742L5.74148 93.0132V252.801L3.22656 251.362V91.5742Z" fill="#E0E0E0"/>
<path d="M12.457 165.013V167.916L138.89 94.8152L136.427 93.3374L12.457 165.013Z" fill="#FAFAFA"/>
<path d="M70.6758 60.928L73.1777 59.4761V208.504L70.6758 207.066V60.928Z" fill="#E0E0E0"/>
<path d="M77.8446 56.793L73.1777 59.4764V208.505L77.8446 205.808V56.793Z" fill="#F0F0F0"/>
<path d="M138.889 94.8149V100.195L10.3555 174.683V169.303L138.889 94.8149Z" fill="#F0F0F0"/>
<path d="M73.1768 132.902L70.6748 131.359L10.3945 166.192V169.304L73.1768 132.902Z" fill="#FAFAFA"/>
<path d="M162.793 68.4989L164.88 69.7434L207.634 45.0609L205.547 43.8164L162.793 68.4989Z" fill="#FAFAFA"/>
<path d="M205.545 43.8168L164.879 67.2937V32.7071L205.545 9.24316V43.8168Z" fill="white"/>
<path d="M211.562 1.20557L161.004 30.4383V76.5494L211.562 47.3297V1.20557ZM207.673 45.0611L164.893 69.6917V32.7069L207.673 8.07622V45.0611Z" fill="#F0F0F0"/>
<path d="M207.634 45.0611L205.547 43.8166V9.24298L207.634 8.02441V45.0611Z" fill="#E0E0E0"/>
<path d="M211.562 1.20561L209.449 0L158.826 29.2197L160.939 30.4383L211.562 1.20561Z" fill="#FAFAFA"/>
<path d="M158.826 29.2197L160.939 30.4383V76.5495L158.826 75.3439V29.2197Z" fill="#E0E0E0"/>
<path d="M203.964 42.5329L166.461 64.1949V61.3688L175.834 39.7198L181.68 45.1385L180.863 50.1554L192.531 26.5229L203.964 39.7198V42.5329Z" fill="#F0F0F0"/>
<path d="M181.331 29.271C180.522 29.7943 179.849 30.5018 179.367 31.3356C178.885 32.1694 178.607 33.1056 178.557 34.0675C178.557 35.8435 179.788 36.5565 181.331 35.6749C182.139 35.1481 182.811 34.4379 183.293 33.6022C183.776 32.7665 184.054 31.8289 184.105 30.8655C184.105 29.1024 182.861 28.3895 181.331 29.271Z" fill="#F0F0F0"/>
<path d="M163.092 140.278L165.179 141.522L207.946 116.84L205.858 115.595L163.092 140.278Z" fill="#FAFAFA"/>
<path d="M205.859 115.596L165.18 139.073V104.486L205.859 81.022V115.596Z" fill="white"/>
<path d="M211.874 72.9844L161.316 102.217V148.328L211.874 119.109V72.9844ZM207.985 116.84L165.205 141.471V104.486L207.985 79.855V116.84Z" fill="#F0F0F0"/>
<path d="M207.946 116.84L205.859 115.595V81.0218L207.946 79.8032V116.84Z" fill="#E0E0E0"/>
<path d="M211.874 72.9844L209.761 71.7788L159.139 101.012L161.252 102.217L211.874 72.9844Z" fill="#FAFAFA"/>
<path d="M159.139 101.011L161.252 102.217V148.328L159.139 147.122V101.011Z" fill="#E0E0E0"/>
<path d="M204.264 114.325L166.773 135.974V133.148L176.146 111.499L181.98 116.917L181.176 121.934L192.83 98.3018L204.264 111.499V114.325Z" fill="#F0F0F0"/>
<path d="M181.63 101.05C180.821 101.577 180.149 102.287 179.667 103.123C179.185 103.958 178.907 104.896 178.855 105.859C178.855 107.622 180.152 108.335 181.63 107.454C182.436 106.928 183.107 106.22 183.589 105.387C184.071 104.554 184.35 103.619 184.404 102.657C184.404 100.881 183.159 100.168 181.63 101.05Z" fill="#F0F0F0"/>
<path d="M380.351 164.689L377.474 166.413L332.633 140.525L335.511 138.801L380.351 164.689Z" fill="#FAFAFA"/>
<path d="M335.51 138.801L377.473 163.017V54.3567L335.51 30.1538V138.801Z" fill="white"/>
<path d="M327.199 143.662L382.942 175.825V51.2064L327.199 19.0439V143.662ZM332.592 28.4684L377.433 54.3954V166.452L332.592 140.525V28.4684Z" fill="#F0F0F0"/>
<path d="M332.633 140.525L335.511 138.801V30.1535L332.633 28.4683V140.525Z" fill="#E0E0E0"/>
<path d="M327.188 19.0439L330.117 17.3716L385.834 49.534L382.905 51.2063L327.188 19.0439Z" fill="#FAFAFA"/>
<path d="M385.834 49.5342L382.904 51.2065V175.838L385.834 174.152V49.5342Z" fill="#E0E0E0"/>
<path d="M339.734 135.443L373.271 154.798V59.451L339.734 40.0835V135.443Z" fill="#F0F0F0"/>
<path d="M339.734 135.443L373.271 154.798V59.451L339.734 40.0835V135.443Z" fill="#F0F0F0"/>
<path d="M373.271 121.806C371.715 122.346 370.108 122.724 368.474 122.933C363.016 123.714 357.454 123.357 352.14 121.883C348.083 120.743 344.025 118.98 339.734 119.861V135.417L344.272 138.01C345.869 135.434 347.994 133.225 350.507 131.528C356.989 127.522 363.587 130.53 370.225 129.973C371.252 129.877 372.271 129.699 373.271 129.441V121.806Z" fill="#FAFAFA"/>
<path d="M373.272 105.951C365.766 104.655 358.066 103.89 352.712 97.3563C348.395 92.0931 346.373 83.8224 344.934 75.5906C343.495 67.3587 342.536 58.738 339.813 51.4655C339.813 51.3877 339.749 51.3229 339.723 51.2451V100.947C340.137 101.738 340.565 102.529 341.019 103.281C345.945 111.59 353.205 117.761 361.501 116.335C365.39 115.661 369.409 113.379 373.272 112.446V105.951Z" fill="#FAFAFA"/>
<path d="M373.272 85.7413C367.516 79.9207 364.431 69.0573 365.844 57.8957C365.947 57.066 366.077 56.2364 366.22 55.4197L353.334 47.9268C353.334 49.1324 353.425 50.325 353.451 51.5306C353.58 58.5179 353.451 65.6738 354.501 72.2722C356.342 83.3171 361.864 92.1323 369.201 95.7491C370.502 96.3814 371.873 96.8599 373.285 97.1751L373.272 85.7413Z" fill="#FAFAFA"/>
<path d="M436.393 436.52L568.659 512.797V362.33L436.393 436.52Z" fill="#E0E0E0"/>
<g opacity="0.15">
<path d="M436.393 436.52L568.659 512.797V362.33L436.393 436.52Z" fill="black"/>
</g>
<path d="M442.652 57.7012V433.008L574.88 509.272V133.965L442.652 57.7012ZM498.525 255.965L458.636 232.903V82.4485L498.525 105.511V255.965ZM556.472 289.398L516.441 266.362V115.894L556.472 138.892V289.398Z" fill="#4877C1"/>
<path d="M516.44 266.414L512.123 268.916L556.471 294.454V289.398L516.44 266.414Z" fill="#263238"/>
<path d="M458.636 232.968L454.307 235.47L498.525 261.021L502.842 258.519L458.636 232.968Z" fill="#263238"/>
<path d="M458.638 232.968V82.4487L454.295 79.9468L454.308 235.47L458.638 232.968Z" fill="#37474F"/>
<path d="M512.124 268.916L498.525 261.021V105.562L512.124 113.457V268.916Z" fill="#4877C1"/>
<path d="M512.123 268.916L516.44 266.414V115.895L512.123 113.458V268.916Z" fill="#37474F"/>
<path opacity="0.1" d="M512.123 289.696L556.471 315.221V475.502L512.123 449.964V289.696Z" fill="black"/>
<path d="M515.17 299.781L549.471 319.512V463.121L515.17 443.391V299.781Z" fill="#4877C1"/>
<path d="M556.471 315.221L549.471 319.512V463.122L556.471 475.502V315.221Z" fill="#37474F"/>
<path d="M512.123 289.696L515.169 299.781V443.391L512.123 449.964V289.696Z" fill="#37474F"/>
<path d="M512.123 449.964L515.169 443.391L549.471 463.122L556.471 475.502L512.123 449.964Z" fill="#263238"/>
<path opacity="0.1" d="M454.295 256.237L498.526 281.788L498.513 442.069L454.295 416.518V256.237Z" fill="black"/>
<path d="M457.34 266.323L491.525 286.079V429.689L457.34 409.945V266.323Z" fill="#4877C1"/>
<path d="M498.526 281.788L491.525 286.079V429.689L498.513 442.069L498.526 281.788Z" fill="#37474F"/>
<path d="M454.295 256.237L457.341 266.323V409.946L454.295 416.518V256.237Z" fill="#37474F"/>
<path d="M454.295 416.518L457.341 409.945L491.526 429.689L498.513 442.069L454.295 416.518Z" fill="#263238"/>
<path d="M570.876 298.965L568.659 300.248L568.646 337.039L570.876 335.755V298.965Z" fill="#E0E0E0"/>
<path d="M568.659 300.248L556.707 293.352V330.142L568.646 337.039L568.659 300.248Z" fill="#FAFAFA"/>
<path opacity="0.05" d="M556.707 303.528L561.892 306.549V312.525C561.892 312.65 561.86 312.772 561.798 312.88C561.736 312.988 561.647 313.078 561.539 313.141C561.432 313.204 561.31 313.238 561.185 313.239C561.061 313.24 560.938 313.208 560.829 313.147L556.668 310.736L556.707 303.528Z" fill="black"/>
<path d="M556.707 293.352L558.924 292.068L570.876 298.965L568.659 300.248L556.707 293.352Z" fill="#EBEBEB"/>
<path d="M564.069 305.265L558.585 308.428L556.395 304.617L561.878 301.454C562.056 301.377 562.251 301.347 562.444 301.368C562.637 301.388 562.822 301.458 562.98 301.571C563.43 301.865 563.804 302.262 564.072 302.728C564.34 303.194 564.494 303.717 564.523 304.254C564.543 304.448 564.512 304.643 564.432 304.821C564.352 304.998 564.227 305.152 564.069 305.265Z" fill="#E0E0E0"/>
<path opacity="0.1" d="M561.932 306.497L559.948 307.651V305.032L557.822 303.801L559.819 302.647L561.932 303.879V306.497Z" fill="black"/>
<path d="M559.287 305.434L559.274 311.19L537.365 298.537V292.794L559.287 305.434Z" fill="#FAFAFA"/>
<path d="M559.286 305.434L561.27 304.293V310.036L559.273 311.19L559.286 305.434Z" fill="#E0E0E0"/>
<path d="M537.365 292.794L539.362 291.641L561.27 304.293L559.287 305.434L537.365 292.794Z" fill="#EBEBEB"/>
<path d="M564.641 321.469C564.603 320.771 564.401 320.092 564.052 319.486C563.703 318.88 563.217 318.365 562.632 317.982C561.517 317.334 560.609 317.852 560.609 319.136C560.669 320.196 561.1 321.201 561.828 321.975V325.734C561.841 325.969 561.91 326.198 562.03 326.401C562.15 326.604 562.316 326.775 562.515 326.901L562.748 327.044C563.124 327.264 563.422 327.043 563.422 326.655V322.895C564.187 322.973 564.641 322.416 564.641 321.469Z" fill="#4877C1"/>
<path d="M458.637 82.4487L498.525 105.563V256.017L458.637 232.968V82.4487Z" fill="#F1A018"/>
<path opacity="0.4" d="M458.637 82.4487L498.525 105.563V256.017L458.637 232.968V82.4487Z" fill="white"/>
<path d="M516.441 115.895L556.473 138.931V289.398L516.441 266.427V115.895Z" fill="#F1A018"/>
<path opacity="0.4" d="M516.441 115.895L556.473 138.931V289.398L516.441 266.427V115.895Z" fill="white"/>
<path opacity="0.2" d="M487.805 99.3532L458.637 128.521V136.182L492.653 102.166L487.805 99.3532ZM470.2 89.1509L458.637 100.714V116.517L480.208 94.9456L470.2 89.1509ZM485.756 248.602L498.525 235.859V228.197L480.895 245.828L485.756 248.602ZM516.454 115.856V116.258L516.713 116.011L516.454 115.856ZM474.504 242.094L498.525 218.112V210.45L469.643 239.333L474.504 242.094ZM527.253 122.065L516.454 132.864V140.538L532.114 124.865L527.253 122.065ZM545.401 132.436L516.519 161.319V177.121L555.409 138.231L545.401 132.436ZM458.714 174.036L498.525 134.225V114.261L458.637 154.15L458.714 174.036ZM516.519 262.434L556.55 222.403V202.504L516.441 242.6L516.519 262.434ZM527.862 272.805L556.55 244.117V236.455L522.988 270.005L527.862 272.805ZM516.441 217.969L556.472 177.912V170.251L516.441 210.282V217.969ZM458.637 232.994L459.933 233.746L498.525 195.115V179.312L458.637 219.266V232.994ZM546.374 283.629L556.472 273.531V257.702L536.34 277.835L546.374 283.629ZM458.637 198.407L498.525 158.493V150.831L458.637 190.746V198.407ZM516.441 192.561V200.222L556.472 160.191V152.504L516.441 192.561Z" fill="white"/>
<path d="M581.208 505.628L574.908 509.271V133.965L581.208 130.335V505.628Z" fill="#263238"/>
<path d="M448.94 54.0581L581.206 130.335L574.906 133.965L442.652 57.7009L448.94 54.0581Z" fill="#37474F"/>
<path d="M442.654 433.008L436.393 436.521V54.0845L442.641 57.6883L442.654 433.008Z" fill="#E0E0E0"/>
<path d="M436.394 436.52L417.26 425.463V20.9365L587.821 119.304V523.804L568.661 512.798V130.361L436.407 54.0842L436.394 436.52Z" fill="#F5F5F5"/>
<path d="M418.556 23.1795L586.524 120.056V521.574L569.957 512.046V129.623L569.309 129.247L437.081 52.9696L435.136 51.8547V434.278L418.595 424.724V23.1795M417.299 20.9368V425.476L436.433 436.521V54.0974L568.661 130.375V512.798L587.821 523.804V119.343L417.26 20.9238L417.299 20.9368Z" fill="#E0E0E0"/>
<path d="M417.26 20.9365L587.821 119.304L593.965 115.739L423.404 17.3716L417.26 20.9365Z" fill="#FAFAFA"/>
<path d="M587.822 523.803V119.303L593.967 115.738V520.264L587.822 523.803Z" fill="#E0E0E0"/>
<path d="M358.923 424.088C349.615 414.482 344.145 390.318 353.219 382.695H399.434C408.508 390.318 403.051 414.456 393.743 424.075L393.497 424.334L393.173 424.658C392.913 424.917 392.628 425.164 392.33 425.41L392.11 425.592C391.876 425.773 391.656 425.955 391.41 426.123C391.023 426.405 390.62 426.665 390.204 426.901C382.543 431.373 370.124 431.373 362.462 426.901C362.04 426.668 361.633 426.408 361.244 426.123L360.595 425.617L360.323 425.397C360.025 425.164 359.766 424.917 359.506 424.671L359.143 424.308L358.923 424.088Z" fill="#EBEBEB"/>
<path d="M395.429 379.688C405.968 385.833 405.968 395.815 395.429 401.972C384.89 408.13 367.778 408.13 357.238 401.972C346.699 395.815 346.699 385.833 357.238 379.688C367.778 373.543 384.877 373.53 395.429 379.688Z" fill="#FAFAFA"/>
<path d="M390.346 382.605C398.124 387.129 398.124 394.453 390.346 398.978C382.568 403.502 370.058 403.502 362.306 398.978C354.554 394.453 354.528 387.129 362.306 382.605C370.084 378.08 382.607 378.119 390.346 382.605Z" fill="#E0E0E0"/>
<path d="M362.308 390.383C370.086 385.872 382.608 385.872 390.348 390.383C392.227 391.412 393.821 392.891 394.989 394.687C393.821 396.483 392.227 397.962 390.348 398.991C382.57 403.515 370.06 403.515 362.308 398.991C360.43 397.965 358.839 396.486 357.68 394.687C358.839 392.888 360.43 391.409 362.308 390.383Z" fill="#EBEBEB"/>
<path d="M373.22 328.78C369.681 332.669 359.842 333.68 355.758 323.309C351.934 313.587 347.812 304.37 346.684 300.792C346.518 300.326 346.448 299.831 346.477 299.338C346.507 298.844 346.636 298.361 346.856 297.918C347.076 297.476 347.383 297.082 347.759 296.76C348.135 296.439 348.571 296.196 349.043 296.047C349.043 296.047 349.328 290.706 358.377 294.323C367.425 297.94 373.816 303.397 377.822 312.329C381.828 321.261 379.261 327.587 373.22 328.78Z" fill="#E0E0E0"/>
<path opacity="0.45" d="M373.22 328.78C369.681 332.669 359.842 333.68 355.758 323.309C351.934 313.587 347.812 304.37 346.684 300.792C346.518 300.326 346.448 299.831 346.477 299.338C346.507 298.844 346.636 298.361 346.856 297.918C347.076 297.476 347.383 297.082 347.759 296.76C348.135 296.439 348.571 296.196 349.043 296.047C349.043 296.047 349.328 290.706 358.377 294.323C367.425 297.94 373.816 303.397 377.822 312.329C381.828 321.261 379.261 327.587 373.22 328.78Z" fill="white"/>
<path d="M377.135 342.496C376.981 340.68 376.721 338.876 376.358 337.09C375.609 333.543 374.604 330.056 373.35 326.654C370.806 319.727 367.274 313.204 362.863 307.287C360.413 303.916 357.653 300.782 354.618 297.927C354.527 297.85 354.449 298.057 354.514 298.122C364.666 308.707 371.715 321.878 374.893 336.196C375.347 338.166 375.761 340.149 376.124 342.133C376.487 344.116 376.708 346.19 377.045 348.213C377.045 348.42 377.395 348.537 377.408 348.213C377.463 346.303 377.372 344.392 377.135 342.496Z" fill="#E0E0E0"/>
<path opacity="0.1" d="M377.135 342.496C376.981 340.68 376.721 338.876 376.358 337.09C375.609 333.543 374.604 330.056 373.35 326.654C370.806 319.727 367.274 313.204 362.863 307.287C360.413 303.916 357.653 300.782 354.618 297.927C354.527 297.85 354.449 298.057 354.514 298.122C364.666 308.707 371.715 321.878 374.893 336.196C375.347 338.166 375.761 340.149 376.124 342.133C376.487 344.116 376.708 346.19 377.045 348.213C377.045 348.42 377.395 348.537 377.408 348.213C377.463 346.303 377.372 344.392 377.135 342.496Z" fill="black"/>
<path d="M380.168 326.097C372.027 328.612 365.986 322.208 368.086 312.316C370.186 302.425 380.635 291.303 384.576 294.271C387.052 291.808 392.484 292.69 395.037 300.753C397.591 308.816 395.271 329.623 380.168 326.097Z" fill="#E0E0E0"/>
<path opacity="0.25" d="M380.168 326.097C372.027 328.612 365.986 322.208 368.086 312.316C370.186 302.425 380.635 291.303 384.576 294.271C387.052 291.808 392.484 292.69 395.037 300.753C397.591 308.816 395.271 329.623 380.168 326.097Z" fill="white"/>
<path d="M384.94 300.325C382.627 306.122 380.818 312.107 379.534 318.215C378.145 324.397 377.098 330.65 376.397 336.947C375.081 349.134 374.536 361.391 374.763 373.647C374.763 377.03 374.828 380.414 374.893 383.797C374.958 387.181 374.893 390.81 375.204 394.285C375.321 395.581 377.213 395.257 377.239 394.038C377.356 387.946 377.019 381.814 376.954 375.721C376.889 369.628 376.954 363.665 377.071 357.637C377.278 345.357 378.378 333.109 380.363 320.989C380.947 317.606 381.595 314.235 382.373 310.903C383.151 307.572 384.214 303.942 385.134 300.468C385.173 300.325 385.017 300.144 384.94 300.325Z" fill="#E0E0E0"/>
<path opacity="0.1" d="M384.94 300.325C382.627 306.122 380.818 312.107 379.534 318.215C378.145 324.397 377.098 330.65 376.397 336.947C375.081 349.134 374.536 361.391 374.763 373.647C374.763 377.03 374.828 380.414 374.893 383.797C374.958 387.181 374.893 390.81 375.204 394.285C375.321 395.581 377.213 395.257 377.239 394.038C377.356 387.946 377.019 381.814 376.954 375.721C376.889 369.628 376.954 363.665 377.071 357.637C377.278 345.357 378.378 333.109 380.363 320.989C380.947 317.606 381.595 314.235 382.373 310.903C383.151 307.572 384.214 303.942 385.134 300.468C385.173 300.325 385.017 300.144 384.94 300.325Z" fill="black"/>
<path d="M366.934 355.291C363.382 359.31 355.267 358.96 349.783 351.778C344.3 344.596 341.033 317.606 348.72 319.369C350.354 315.765 371.588 324.425 374.31 342.029C376.293 354.798 366.934 355.291 366.934 355.291Z" fill="#E0E0E0"/>
<path opacity="0.25" d="M366.934 355.291C363.382 359.31 355.267 358.96 349.783 351.778C344.3 344.596 341.033 317.606 348.72 319.369C350.354 315.765 371.588 324.425 374.31 342.029C376.293 354.798 366.934 355.291 366.934 355.291Z" fill="white"/>
<path d="M373.287 368.034C373.047 366.375 372.696 364.733 372.237 363.121C371.351 359.815 370.295 356.556 369.074 353.359C366.557 346.841 363.377 340.599 359.584 334.731C357.545 331.42 355.298 328.242 352.856 325.215C352.792 325.138 352.727 325.319 352.766 325.384C354.658 328.145 356.577 330.88 358.288 333.771C359.999 336.662 361.646 339.877 363.098 343.027C365.92 349.114 368.265 355.412 370.111 361.863C370.629 363.691 371.057 365.545 371.589 367.373C372.12 369.2 372.885 371.119 373.339 373.038C373.404 373.31 373.767 373.414 373.728 373.038C373.559 371.339 373.507 369.641 373.287 368.034Z" fill="#E0E0E0"/>
<path opacity="0.1" d="M373.287 368.034C373.047 366.375 372.696 364.733 372.237 363.121C371.351 359.815 370.295 356.556 369.074 353.359C366.557 346.841 363.377 340.599 359.584 334.731C357.545 331.42 355.298 328.242 352.856 325.215C352.792 325.138 352.727 325.319 352.766 325.384C354.658 328.145 356.577 330.88 358.288 333.771C359.999 336.662 361.646 339.877 363.098 343.027C365.92 349.114 368.265 355.412 370.111 361.863C370.629 363.691 371.057 365.545 371.589 367.373C372.12 369.2 372.885 371.119 373.339 373.038C373.404 373.31 373.767 373.414 373.728 373.038C373.559 371.339 373.507 369.641 373.287 368.034Z" fill="black"/>
<path d="M379.936 351.298C375.282 350.235 375.049 344.661 380.87 337.803C386.69 330.945 401.313 327.964 402.013 330.855C405.267 330.855 405.267 341.044 398.059 350.403C390.852 359.763 380.364 357.585 379.936 351.298Z" fill="#E0E0E0"/>
<path opacity="0.25" d="M379.936 351.298C375.282 350.235 375.049 344.661 380.87 337.803C386.69 330.945 401.313 327.964 402.013 330.855C405.267 330.855 405.267 341.044 398.059 350.403C390.852 359.763 380.364 357.585 379.936 351.298Z" fill="white"/>
<path d="M389.034 341.342C382.888 345.622 378.197 351.679 375.591 358.7C375.436 359.102 376.123 359.685 376.291 359.245C378.929 352.299 383.329 346.16 389.06 341.433C389.06 341.433 389.099 341.29 389.034 341.342Z" fill="#E0E0E0"/>
<path opacity="0.1" d="M389.034 341.342C382.888 345.622 378.197 351.679 375.591 358.7C375.436 359.102 376.123 359.685 376.291 359.245C378.929 352.299 383.329 346.16 389.06 341.433C389.06 341.433 389.099 341.29 389.034 341.342Z" fill="black"/>
<path d="M385.236 385.301C378.754 387.894 381.567 395.568 387.828 401.402C393.255 406.112 400.245 408.627 407.429 408.454C411.746 408.143 412.861 407.547 412.861 407.547C413.248 404.005 413.248 400.432 412.861 396.891C412.168 392.997 410.368 389.385 407.676 386.489C404.983 383.592 401.513 381.532 397.681 380.557C387.647 377.834 385.236 381.477 385.236 385.301Z" fill="#E0E0E0"/>
<path opacity="0.45" d="M385.236 385.301C378.754 387.894 381.567 395.568 387.828 401.402C393.255 406.112 400.245 408.627 407.429 408.454C411.746 408.143 412.861 407.547 412.861 407.547C413.248 404.005 413.248 400.432 412.861 396.891C412.168 392.997 410.368 389.385 407.676 386.489C404.983 383.592 401.513 381.532 397.681 380.557C387.647 377.834 385.236 381.477 385.236 385.301Z" fill="white"/>
<path d="M403.062 396.618C400.182 393.182 396.87 390.133 393.21 387.544C389.541 385.133 384.654 383.071 380.246 384.575C378.548 385.159 375.891 386.857 376.215 388.97C376.215 389.177 376.616 389.696 376.863 389.411C377.544 388.432 378.321 387.525 379.183 386.701C380.197 385.961 381.394 385.513 382.644 385.405C385.806 385.171 388.965 385.884 391.719 387.453C396.075 389.761 399.588 393.352 403.049 396.774C403.049 396.761 403.101 396.657 403.062 396.618Z" fill="#E0E0E0"/>
<path opacity="0.1" d="M403.062 396.618C400.182 393.182 396.87 390.133 393.21 387.544C389.541 385.133 384.654 383.071 380.246 384.575C378.548 385.159 375.891 386.857 376.215 388.97C376.215 389.177 376.616 389.696 376.863 389.411C377.544 388.432 378.321 387.525 379.183 386.701C380.197 385.961 381.394 385.513 382.644 385.405C385.806 385.171 388.965 385.884 391.719 387.453C396.075 389.761 399.588 393.352 403.049 396.774C403.049 396.761 403.101 396.657 403.062 396.618Z" fill="black"/>
<path d="M360.736 352.335C361.346 349.405 357.107 342.392 343.884 341.044C330.661 339.696 320.796 345.296 318.799 347.85C316.803 350.403 315.805 353.1 318.203 353.774C320.601 354.448 328.833 355.239 334.252 357.741C339.671 360.243 350.677 367.593 358.183 365.402C365.688 363.211 364.47 355.252 360.736 352.335Z" fill="#E0E0E0"/>
<path opacity="0.45" d="M360.736 352.335C361.346 349.405 357.107 342.392 343.884 341.044C330.661 339.696 320.796 345.296 318.799 347.85C316.803 350.403 315.805 353.1 318.203 353.774C320.601 354.448 328.833 355.239 334.252 357.741C339.671 360.243 350.677 367.593 358.183 365.402C365.688 363.211 364.47 355.252 360.736 352.335Z" fill="white"/>
<path d="M370.77 362.55C365.195 351.052 350.845 347.604 339.074 347.604C335.216 347.614 331.374 348.111 327.64 349.081C327.64 349.081 327.575 349.224 327.64 349.224C333.959 348.148 340.409 348.083 346.748 349.03C353.022 349.848 359.009 352.154 364.21 355.758C366.734 357.652 368.854 360.032 370.446 362.758C370.666 363.056 370.873 362.797 370.77 362.55Z" fill="#E0E0E0"/>
<path opacity="0.1" d="M370.77 362.55C365.195 351.052 350.845 347.604 339.074 347.604C335.216 347.614 331.374 348.111 327.64 349.081C327.64 349.081 327.575 349.224 327.64 349.224C333.959 348.148 340.409 348.083 346.748 349.03C353.022 349.848 359.009 352.154 364.21 355.758C366.734 357.652 368.854 360.032 370.446 362.758C370.666 363.056 370.873 362.797 370.77 362.55Z" fill="black"/>
<path d="M391.486 336.934C391.317 341.549 397.812 344.233 404.099 340.24C410.387 336.247 416.972 332.358 422.806 330.854C428.639 329.351 431.388 324.593 429.547 322.298C427.706 320.004 424.776 314.196 409.466 316.089C394.156 317.982 388.725 324.891 386.625 329.765C384.524 334.64 389.178 338.269 391.486 336.934Z" fill="#E0E0E0"/>
<path opacity="0.45" d="M391.486 336.934C391.317 341.549 397.812 344.233 404.099 340.24C410.387 336.247 416.972 332.358 422.806 330.854C428.639 329.351 431.388 324.593 429.547 322.298C427.706 320.004 424.776 314.196 409.466 316.089C394.156 317.982 388.725 324.891 386.625 329.765C384.524 334.64 389.178 338.269 391.486 336.934Z" fill="white"/>
<path d="M416.414 322.286C414.2 322.067 411.963 322.3 409.842 322.973C407.909 323.467 406.025 324.14 404.216 324.982C400.61 326.664 397.359 329.018 394.636 331.918C393.863 332.734 393.144 333.6 392.484 334.51C391.809 335.321 391.254 336.225 390.837 337.194C390.734 337.492 391.187 337.984 391.447 337.673C392.212 336.805 392.743 335.729 393.495 334.808C394.256 333.82 395.079 332.881 395.958 331.995C397.728 330.211 399.709 328.648 401.856 327.341C403.906 326.07 406.077 325.006 408.338 324.165C409.634 323.712 410.866 323.336 412.149 323.012C413.502 322.602 414.911 322.41 416.324 322.441C416.44 322.454 416.479 322.286 416.414 322.286Z" fill="#E0E0E0"/>
<path opacity="0.1" d="M416.414 322.286C414.2 322.067 411.963 322.3 409.842 322.973C407.909 323.467 406.025 324.14 404.216 324.982C400.61 326.664 397.359 329.018 394.636 331.918C393.863 332.734 393.144 333.6 392.484 334.51C391.809 335.321 391.254 336.225 390.837 337.194C390.734 337.492 391.187 337.984 391.447 337.673C392.212 336.805 392.743 335.729 393.495 334.808C394.256 333.82 395.079 332.881 395.958 331.995C397.728 330.211 399.709 328.648 401.856 327.341C403.906 326.07 406.077 325.006 408.338 324.165C409.634 323.712 410.866 323.336 412.149 323.012C413.502 322.602 414.911 322.41 416.324 322.441C416.44 322.454 416.479 322.286 416.414 322.286Z" fill="black"/>
<path d="M380.557 361.863C378.405 359.711 372.585 360.217 369.823 366.556C367.062 372.895 372.857 379.843 373.505 381.788C376.162 380.258 378.237 381.166 382.916 380.258C385.527 379.642 387.845 378.146 389.481 376.021C391.118 373.896 391.972 371.272 391.9 368.591C391.524 362.77 389.074 358.933 380.557 361.863Z" fill="#E0E0E0"/>
<path opacity="0.45" d="M380.557 361.863C378.405 359.711 372.585 360.217 369.823 366.556C367.062 372.895 372.857 379.843 373.505 381.788C376.162 380.258 378.237 381.166 382.916 380.258C385.527 379.642 387.845 378.146 389.481 376.021C391.118 373.896 391.972 371.272 391.9 368.591C391.524 362.77 389.074 358.933 380.557 361.863Z" fill="white"/>
<path d="M380.416 361.215C379.245 361.955 378.268 362.964 377.564 364.157C376.809 365.262 376.191 366.455 375.723 367.709C374.722 370.277 374.444 373.071 374.92 375.786C374.92 375.889 375.023 375.786 375.01 375.786C374.781 373.058 375.227 370.315 376.307 367.8C376.824 366.661 377.472 365.587 378.238 364.598C378.635 364.068 379.068 363.565 379.535 363.094C379.99 362.707 380.402 362.272 380.766 361.798C380.987 361.578 380.74 361.046 380.416 361.215Z" fill="#E0E0E0"/>
<path opacity="0.1" d="M380.416 361.215C379.245 361.955 378.268 362.964 377.564 364.157C376.809 365.262 376.191 366.455 375.723 367.709C374.722 370.277 374.444 373.071 374.92 375.786C374.92 375.889 375.023 375.786 375.01 375.786C374.781 373.058 375.227 370.315 376.307 367.8C376.824 366.661 377.472 365.587 378.238 364.598C378.635 364.068 379.068 363.565 379.535 363.094C379.99 362.707 380.402 362.272 380.766 361.798C380.987 361.578 380.74 361.046 380.416 361.215Z" fill="black"/>
<path d="M370.393 374.697C370.199 369.978 365.078 366.245 357.793 364.08C354.218 362.958 350.399 362.873 346.778 363.834C343.158 364.796 339.884 366.764 337.336 369.511C332.021 375.293 329.273 380.206 331.438 381.593C333.603 382.98 343.235 386.507 349.587 388.477C355.939 390.447 364.145 391.07 370.445 387.297C376.746 383.525 376.292 377.056 370.393 374.697Z" fill="#E0E0E0"/>
<path opacity="0.25" d="M370.393 374.697C370.199 369.978 365.078 366.245 357.793 364.08C354.218 362.958 350.399 362.873 346.778 363.834C343.158 364.796 339.884 366.764 337.336 369.511C332.021 375.293 329.273 380.206 331.438 381.593C333.603 382.98 343.235 386.507 349.587 388.477C355.939 390.447 364.145 391.07 370.445 387.297C376.746 383.525 376.292 377.056 370.393 374.697Z" fill="white"/>
<path d="M370.795 374.166C368.332 372.926 365.641 372.207 362.888 372.052C360.251 371.802 357.596 371.836 354.967 372.156C352.187 372.5 349.442 373.081 346.761 373.893C345.361 374.295 343.974 374.762 342.6 375.267C341.29 375.69 340.016 376.215 338.788 376.836C338.788 376.836 338.711 377.018 338.788 376.992C340.085 376.719 341.381 376.201 342.678 375.799C343.974 375.397 345.491 374.956 346.917 374.58C349.567 373.87 352.266 373.359 354.993 373.051C357.724 372.739 360.481 372.739 363.212 373.051C365.74 373.465 368.232 374.076 370.666 374.879C371.236 375.047 371.081 374.334 370.795 374.166Z" fill="#E0E0E0"/>
<path opacity="0.1" d="M370.795 374.166C368.332 372.926 365.641 372.207 362.888 372.052C360.251 371.802 357.596 371.836 354.967 372.156C352.187 372.5 349.442 373.081 346.761 373.893C345.361 374.295 343.974 374.762 342.6 375.267C341.29 375.69 340.016 376.215 338.788 376.836C338.788 376.836 338.711 377.018 338.788 376.992C340.085 376.719 341.381 376.201 342.678 375.799C343.974 375.397 345.491 374.956 346.917 374.58C349.567 373.87 352.266 373.359 354.993 373.051C357.724 372.739 360.481 372.739 363.212 373.051C365.74 373.465 368.232 374.076 370.666 374.879C371.236 375.047 371.081 374.334 370.795 374.166Z" fill="black"/>
<path d="M385.406 367.671C380.221 363.536 381.945 353.618 400.159 353.087C418.373 352.555 431.375 357.313 430.792 363.173C433.721 366.102 432.243 374.308 417.491 376.875C402.739 379.442 381.66 378.158 385.406 367.671Z" fill="#E0E0E0"/>
<path opacity="0.25" d="M385.406 367.671C380.221 363.536 381.945 353.618 400.159 353.087C418.373 352.555 431.375 357.313 430.792 363.173C433.721 366.102 432.243 374.308 417.491 376.875C402.739 379.442 381.66 378.158 385.406 367.671Z" fill="white"/>
<path d="M422.223 363.238C416.848 362.352 411.395 362.035 405.954 362.291C400.894 362.253 395.849 362.832 390.929 364.015C389.67 364.338 388.443 364.771 387.261 365.312C386.713 365.566 386.181 365.852 385.666 366.167C385.251 366.414 384.798 366.634 384.642 367.114C384.627 367.19 384.63 367.269 384.652 367.344C384.673 367.419 384.712 367.487 384.765 367.544C384.818 367.601 384.884 367.645 384.958 367.671C385.031 367.698 385.109 367.707 385.186 367.697C386.294 367.264 387.361 366.735 388.375 366.115C389.398 365.662 390.45 365.281 391.526 364.975C393.595 364.367 395.711 363.934 397.852 363.678C402.948 363.054 408.08 362.773 413.214 362.836C416.208 362.836 419.19 363.108 422.184 363.341C422.288 363.458 422.314 363.25 422.223 363.238Z" fill="#E0E0E0"/>
<path opacity="0.1" d="M422.223 363.238C416.848 362.352 411.395 362.035 405.954 362.291C400.894 362.253 395.849 362.832 390.929 364.015C389.67 364.338 388.443 364.771 387.261 365.312C386.713 365.566 386.181 365.852 385.666 366.167C385.251 366.414 384.798 366.634 384.642 367.114C384.627 367.19 384.63 367.269 384.652 367.344C384.673 367.419 384.712 367.487 384.765 367.544C384.818 367.601 384.884 367.645 384.958 367.671C385.031 367.698 385.109 367.707 385.186 367.697C386.294 367.264 387.361 366.735 388.375 366.115C389.398 365.662 390.45 365.281 391.526 364.975C393.595 364.367 395.711 363.934 397.852 363.678C402.948 363.054 408.08 362.773 413.214 362.836C416.208 362.836 419.19 363.108 422.184 363.341C422.288 363.458 422.314 363.25 422.223 363.238Z" fill="black"/>
<path d="M245.841 409.828C245.598 409.83 245.357 409.782 245.134 409.686C244.911 409.59 244.71 409.448 244.544 409.27L179.377 340.318L114.326 409.024C114.001 409.368 113.553 409.569 113.08 409.582C112.607 409.595 112.148 409.42 111.805 409.095C111.461 408.771 111.26 408.322 111.247 407.849C111.233 407.377 111.408 406.918 111.733 406.574L178.081 336.571C178.248 336.396 178.449 336.256 178.672 336.16C178.895 336.064 179.134 336.015 179.377 336.014C179.619 336.015 179.859 336.064 180.082 336.16C180.305 336.256 180.506 336.396 180.673 336.571L247.124 406.898C247.289 407.062 247.42 407.257 247.51 407.472C247.599 407.686 247.645 407.917 247.645 408.149C247.645 408.382 247.599 408.612 247.51 408.827C247.42 409.041 247.289 409.236 247.124 409.4C246.768 409.704 246.308 409.857 245.841 409.828Z" fill="#263238"/>
<path d="M179.376 462.084C178.905 462.084 178.453 461.897 178.12 461.563C177.787 461.23 177.6 460.779 177.6 460.308V346.099C177.6 345.628 177.787 345.177 178.12 344.843C178.453 344.51 178.905 344.323 179.376 344.323C179.847 344.323 180.298 344.51 180.631 344.843C180.964 345.177 181.152 345.628 181.152 346.099V460.308C181.152 460.779 180.964 461.23 180.631 461.563C180.298 461.897 179.847 462.084 179.376 462.084Z" fill="#37474F"/>
<path d="M250.042 420.51C249.688 420.51 249.342 420.403 249.048 420.205C248.755 420.006 248.528 419.724 248.396 419.395L213.33 330.751C213.237 330.533 213.19 330.298 213.189 330.061C213.189 329.824 213.237 329.589 213.329 329.37C213.421 329.152 213.556 328.954 213.725 328.788C213.895 328.623 214.096 328.493 214.317 328.406C214.538 328.32 214.774 328.278 215.011 328.284C215.248 328.29 215.481 328.344 215.697 328.441C215.913 328.539 216.108 328.679 216.269 328.853C216.43 329.027 216.554 329.232 216.635 329.455L251.637 418.099C251.806 418.539 251.796 419.029 251.606 419.461C251.417 419.893 251.064 420.233 250.625 420.407C250.438 420.472 250.241 420.507 250.042 420.51Z" fill="#37474F"/>
<path d="M108.713 420.51C108.492 420.508 108.273 420.469 108.065 420.393C107.629 420.217 107.279 419.876 107.092 419.445C106.906 419.013 106.896 418.524 107.067 418.086L142.068 329.441C142.138 329.205 142.257 328.987 142.416 328.799C142.575 328.611 142.771 328.458 142.993 328.35C143.214 328.243 143.455 328.182 143.701 328.172C143.947 328.163 144.193 328.204 144.422 328.294C144.651 328.385 144.858 328.521 145.032 328.696C145.205 328.871 145.34 329.08 145.429 329.31C145.517 329.539 145.557 329.785 145.545 330.031C145.533 330.277 145.471 330.517 145.361 330.738L110.36 419.382C110.228 419.712 110.002 419.996 109.708 420.197C109.415 420.398 109.069 420.507 108.713 420.51Z" fill="#37474F"/>
<path d="M247.63 407.132L252.258 419.343C252.27 419.447 252.27 419.551 252.258 419.655C252.271 419.732 252.271 419.811 252.258 419.888C252.129 420.222 251.879 420.495 251.558 420.653C251.123 420.877 250.641 420.994 250.151 420.994C249.662 420.994 249.18 420.877 248.745 420.653C248.504 420.53 248.312 420.329 248.2 420.082V419.914L243.896 408.454L247.63 407.132Z" fill="#E0E0E0"/>
<path d="M111.138 407.132L106.51 419.343C106.491 419.446 106.491 419.552 106.51 419.655V419.888C106.648 420.216 106.896 420.486 107.21 420.653C107.645 420.877 108.127 420.994 108.617 420.994C109.106 420.994 109.588 420.877 110.023 420.653C110.264 420.526 110.459 420.326 110.581 420.082V419.914L114.872 408.454L111.138 407.132Z" fill="#E0E0E0"/>
<path d="M181.427 451.467V461.578C181.41 461.757 181.346 461.928 181.241 462.074C181.136 462.22 180.994 462.335 180.83 462.408C180.383 462.638 179.888 462.758 179.385 462.758C178.882 462.758 178.387 462.638 177.939 462.408C177.774 462.336 177.63 462.221 177.523 462.075C177.416 461.93 177.349 461.758 177.33 461.578V451.467C177.96 451.129 178.664 450.952 179.378 450.952C180.093 450.952 180.797 451.129 181.427 451.467Z" fill="#E0E0E0"/>
<path d="M245.905 336.13C245.905 333.667 243.727 331.01 239.138 328.041C230.66 322.532 200.014 304.707 188.14 298.082C188.135 298.058 188.122 298.036 188.103 298.02C188.084 298.004 188.061 297.994 188.036 297.992C178.897 292.443 173.556 249.884 167.23 229.83C166.863 228.576 166.43 227.343 165.933 226.135C165.933 226.044 165.856 225.954 165.83 225.863C165.804 225.772 165.583 225.331 165.467 225.046C165.35 224.761 165.337 224.774 165.285 224.644C164.285 222.359 162.849 220.289 161.059 218.551C160.45 217.962 159.755 217.469 158.998 217.087L155.264 214.999C149.055 211.279 134.406 219.187 124.256 224.748C117.943 228.209 112.589 232.319 109.283 239.98C107.509 244.381 106.45 249.038 106.146 253.773C105.251 264.351 108.738 303.449 110.826 318.759C113.924 344.349 117.748 344.388 123.284 348.666C132.825 356.042 160.255 370.484 169.317 374.049C185.729 380.53 199.133 370.548 209.154 365.609C220.483 359.789 231.508 353.394 242.185 346.449C244.674 344.634 245.983 342.794 245.957 340.849C245.892 340.084 245.905 336.947 245.905 336.13Z" fill="#E0E0E0"/>
<path d="M209.101 360.852C220.43 355.032 231.455 348.637 242.132 341.692C247.823 337.557 247.317 333.331 239.137 328.042C227.807 320.691 181.618 294.479 181.618 294.479C181.618 294.479 116.697 332.397 119.212 338.762C121.727 345.127 157.869 364.806 169.264 369.291C185.676 375.747 199.067 365.752 209.101 360.852Z" fill="#F5F5F5"/>
<path d="M158.947 217.086C152.803 213.872 138.297 221.701 128.405 227.12C122.079 230.594 116.738 234.704 113.407 242.391L109.232 240.006C112.512 232.345 117.892 228.235 124.205 224.774C134.356 219.212 149.004 211.305 155.214 215.025L158.947 217.086Z" fill="#F5F5F5"/>
<path d="M167.229 229.83C167.087 229.402 164.974 222.052 161.007 218.552C159.171 216.879 156.776 215.954 154.292 215.959C148.925 215.959 135.961 222.959 128.365 227.095L126.498 228.158L125.798 228.572L124.968 229.104L124.346 229.506C123.015 230.381 121.746 231.347 120.548 232.397C120.353 232.565 120.159 232.734 119.977 232.915C119.214 233.621 118.491 234.37 117.813 235.158L117.45 235.586L117.022 236.117L116.607 236.662L116.205 237.232C115.661 238.008 115.159 238.813 114.701 239.643L114.52 239.967C114.39 240.19 114.274 240.419 114.17 240.654C114.001 240.992 113.833 241.329 113.677 241.666C111.718 246.253 110.561 251.142 110.255 256.12C108.79 273.504 114.585 335.768 120.626 340.72C120.626 340.72 121.922 335.534 131.722 327.536C141.215 319.997 151.323 313.267 161.94 307.417C181.904 296.164 188.036 297.94 188.036 297.94C178.897 292.444 173.556 249.884 167.229 229.83Z" fill="#EBEBEB"/>
<path d="M139.89 472.131C139.647 472.129 139.408 472.079 139.185 471.983C138.963 471.887 138.761 471.748 138.593 471.573L73.4259 402.607L8.38802 471.314C8.22799 471.484 8.036 471.621 7.82301 471.717C7.61002 471.813 7.3802 471.866 7.14667 471.874C6.91313 471.881 6.68047 471.842 6.46195 471.759C6.24343 471.677 6.04333 471.552 5.8731 471.392C5.70286 471.232 5.56581 471.04 5.46976 470.827C5.37372 470.614 5.32057 470.384 5.31335 470.15C5.30613 469.917 5.34497 469.684 5.42767 469.466C5.51036 469.247 5.63529 469.047 5.79532 468.877L72.1296 398.874C72.2951 398.696 72.4959 398.555 72.7191 398.459C72.9422 398.363 73.183 398.314 73.4259 398.316C73.6688 398.314 73.9096 398.363 74.1328 398.459C74.3559 398.555 74.5567 398.696 74.7223 398.874L141.186 469.201C141.418 469.456 141.572 469.772 141.629 470.112C141.686 470.452 141.643 470.801 141.506 471.117C141.369 471.434 141.144 471.704 140.857 471.895C140.57 472.086 140.234 472.191 139.89 472.195V472.131Z" fill="#263238"/>
<path d="M73.4401 524.348C72.9757 524.348 72.5298 524.166 72.1978 523.841C71.8658 523.516 71.6742 523.075 71.6641 522.61V408.402C71.6641 408.169 71.71 407.938 71.7993 407.722C71.8885 407.507 72.0193 407.311 72.1842 407.146C72.3492 406.981 72.5449 406.85 72.7604 406.761C72.9759 406.672 73.2068 406.626 73.4401 406.626C73.6733 406.626 73.9042 406.672 74.1197 406.761C74.3352 406.85 74.531 406.981 74.6959 407.146C74.8608 407.311 74.9916 407.507 75.0809 407.722C75.1701 407.938 75.2161 408.169 75.2161 408.402V522.61C75.2059 523.075 75.0143 523.516 74.6823 523.841C74.3504 524.166 73.9044 524.348 73.4401 524.348Z" fill="#37474F"/>
<path d="M144.104 482.774C143.746 482.775 143.396 482.668 143.1 482.467C142.804 482.265 142.575 481.979 142.445 481.646L107.443 393.002C107.358 392.785 107.316 392.554 107.321 392.322C107.325 392.09 107.375 391.861 107.467 391.648C107.56 391.434 107.694 391.242 107.861 391.08C108.028 390.919 108.225 390.792 108.441 390.707C108.658 390.622 108.889 390.58 109.121 390.584C109.353 390.588 109.582 390.638 109.796 390.731C110.009 390.824 110.201 390.957 110.363 391.124C110.524 391.292 110.651 391.489 110.736 391.705L145.737 480.35C145.823 480.566 145.866 480.797 145.862 481.029C145.858 481.262 145.809 481.491 145.716 481.705C145.623 481.918 145.489 482.111 145.322 482.272C145.154 482.433 144.956 482.56 144.739 482.644C144.538 482.728 144.322 482.772 144.104 482.774Z" fill="#37474F"/>
<path d="M2.77475 482.773C2.55204 482.776 2.33132 482.731 2.12657 482.644C1.68872 482.473 1.33643 482.136 1.1469 481.705C0.95737 481.275 0.946049 480.788 1.11542 480.349L36.1169 391.705C36.2971 391.278 36.6367 390.939 37.0634 390.759C37.4901 390.58 37.9702 390.574 38.4012 390.743C38.8323 390.912 39.1803 391.242 39.371 391.664C39.5618 392.086 39.5803 392.566 39.4226 393.001L4.42111 481.646C4.29125 481.977 4.06487 482.262 3.77132 482.463C3.47777 482.664 3.13057 482.772 2.77475 482.773Z" fill="#37474F"/>
<path d="M141.68 469.46L146.307 481.672C146.326 481.774 146.326 481.88 146.307 481.983V482.203C146.175 482.538 145.926 482.814 145.607 482.981C145.17 483.205 144.686 483.322 144.194 483.322C143.703 483.322 143.219 483.205 142.781 482.981C142.543 482.849 142.353 482.644 142.237 482.398V482.229L137.959 470.756L141.68 469.46Z" fill="#E0E0E0"/>
<path d="M5.18643 469.46L0.558458 481.672C0.545968 481.775 0.545968 481.879 0.558458 481.983C0.545618 482.056 0.545618 482.13 0.558458 482.203C0.682496 482.543 0.93338 482.822 1.25849 482.981C1.6935 483.205 2.17573 483.322 2.66503 483.322C3.15433 483.322 3.63655 483.205 4.07157 482.981C4.31401 482.854 4.50602 482.648 4.61603 482.398V482.229L8.91992 470.756L5.18643 469.46Z" fill="#E0E0E0"/>
<path d="M75.4871 513.73V523.829C75.47 524.011 75.4045 524.185 75.2973 524.333C75.1902 524.482 75.0453 524.598 74.8778 524.672C74.4288 524.895 73.934 525.012 73.4324 525.012C72.9307 525.012 72.4359 524.895 71.9869 524.672C71.821 524.598 71.6781 524.48 71.5732 524.332C71.4682 524.184 71.4052 524.01 71.3906 523.829V513.73C72.0204 513.392 72.7241 513.215 73.4389 513.215C74.1536 513.215 74.8573 513.392 75.4871 513.73Z" fill="#E0E0E0"/>
<path d="M139.968 398.394C139.968 395.931 137.79 393.274 133.188 390.305C124.71 384.796 94.0641 366.971 82.1895 360.346C82.1847 360.321 82.1722 360.297 82.1537 360.279C82.1352 360.26 82.1115 360.248 82.0858 360.243C73.0113 354.707 67.6056 312.148 61.2794 292.094C60.9092 290.841 60.4766 289.608 59.983 288.399L59.8663 288.127L59.5034 287.31C59.5034 287.18 59.3867 287.038 59.3219 286.908C58.3216 284.619 56.8864 282.545 55.0958 280.802C54.4718 280.229 53.7743 279.74 53.0216 279.351C51.9975 278.767 49.8326 277.575 49.3011 277.25C43.0916 273.543 28.4298 281.451 18.2924 287.012C11.9792 290.473 6.62524 294.583 3.31955 302.244C1.53935 306.643 0.480038 311.301 0.182378 316.037C-0.725067 326.615 2.77508 365.713 4.8622 381.023C7.97344 406.613 11.7847 406.665 17.3331 410.943C26.8742 418.319 54.292 432.761 63.3535 436.326C79.7783 442.807 93.1696 432.825 103.203 427.873C114.529 422.059 125.549 415.668 136.221 408.726C138.723 406.911 140.02 405.071 139.994 403.126C139.942 402.348 139.968 399.211 139.968 398.394Z" fill="#E0E0E0"/>
<path d="M103.139 423.103C114.462 417.283 125.483 410.893 136.157 403.956C141.848 399.82 141.343 395.594 133.163 390.305C121.833 382.955 75.6437 356.743 75.6437 356.743C75.6437 356.743 10.7614 394.661 13.2763 401.013C15.7913 407.365 51.9335 427.07 63.3155 431.555C79.805 438.011 93.1574 428.055 103.139 423.103Z" fill="#F5F5F5"/>
<path d="M52.9945 279.35C46.8498 276.122 32.3436 283.965 22.4655 289.384C16.1263 292.845 10.7335 296.968 7.46668 304.655L3.31836 302.231C6.59813 294.569 11.978 290.46 18.2912 286.999C28.4287 281.437 43.0904 273.53 49.2999 277.237C49.8055 277.6 51.9704 278.767 52.9945 279.35Z" fill="#F5F5F5"/>
<path d="M61.2795 292.093C61.1499 291.666 59.0368 284.315 55.07 280.802C53.2221 279.141 50.827 278.218 48.342 278.209C42.9751 278.209 30.0116 285.21 22.415 289.345C21.7797 289.695 21.1186 290.045 20.5482 290.408C20.3019 290.538 20.0686 290.68 19.8352 290.823L19.0056 291.354C18.7947 291.476 18.5913 291.61 18.3963 291.756C17.0632 292.63 15.79 293.591 14.585 294.634C14.3905 294.803 14.2091 294.971 14.0146 295.166C13.2519 295.868 12.5333 296.617 11.8627 297.408L11.4997 297.836C11.3571 298.005 11.2015 298.186 11.0719 298.368C10.9423 298.549 10.7997 298.731 10.6571 298.912C10.5145 299.094 10.3848 299.275 10.2552 299.47C9.70629 300.25 9.19997 301.059 8.73846 301.894C8.67029 301.997 8.60964 302.106 8.55697 302.218L8.20696 302.892C8.03843 303.229 7.88287 303.579 7.71434 303.916C5.75217 308.502 4.59446 313.392 4.29198 318.37C2.82711 335.754 8.62179 398.018 14.6628 402.97C14.6628 402.97 15.9591 397.785 25.7725 389.786C35.2693 382.248 45.3866 375.526 56.0163 369.693C75.9672 358.441 82.0989 360.204 82.0989 360.204C72.9596 354.707 67.6057 312.148 61.2795 292.093Z" fill="#EBEBEB"/>
<path d="M296.554 579.999C355.469 579.999 403.23 552.425 403.23 518.41C403.23 484.395 355.469 456.82 296.554 456.82C237.638 456.82 189.877 484.395 189.877 518.41C189.877 552.425 237.638 579.999 296.554 579.999Z" fill="#E0E0E0"/>
<path d="M128.794 560.451L96.9424 542.056C91.3681 538.841 91.3681 533.629 96.9424 530.388L195.011 473.764C198.137 472.179 201.592 471.353 205.097 471.353C208.602 471.353 212.057 472.179 215.183 473.764L247.034 492.185C252.608 495.4 252.608 500.611 247.034 503.852L148.965 560.477C145.837 562.058 142.381 562.88 138.876 562.875C135.372 562.871 131.917 562.04 128.794 560.451Z" fill="#E0E0E0"/>
<path d="M227.236 370.859L202.852 356.781H202.761L202.58 356.677C190.55 349.858 174.06 350.908 155.743 361.461C118.978 382.604 89.1621 434.277 89.1621 476.719C89.1621 497.824 96.5383 512.667 108.452 519.68L108.633 519.784H108.724L133.108 533.862L137.347 522.727C143.813 521.062 150.01 518.492 155.756 515.091C192.52 493.87 222.323 442.249 222.323 399.794C222.377 393.167 221.504 386.565 219.73 380.18L227.236 370.859Z" fill="#F1A018"/>
<path opacity="0.4" d="M227.236 370.859L202.852 356.781H202.761L202.58 356.677C190.55 349.858 174.06 350.908 155.743 361.461C118.978 382.604 89.1621 434.277 89.1621 476.719C89.1621 497.824 96.5383 512.667 108.452 519.68L108.633 519.784H108.724L133.108 533.862L137.347 522.727C143.813 521.062 150.01 518.492 155.756 515.091C192.52 493.87 222.323 442.249 222.323 399.794C222.377 393.167 221.504 386.565 219.73 380.18L227.236 370.859Z" fill="white"/>
<path opacity="0.4" d="M89.7455 466.349C89.3731 469.793 89.1784 473.255 89.1621 476.719C89.1621 497.824 96.5383 512.667 108.452 519.68L108.633 519.784H108.724L133.108 533.863L137.347 522.727C138.722 522.377 140.122 521.975 141.548 521.508L147.835 499.807L89.7455 466.349Z" fill="#F1A018"/>
<path d="M227.476 479.705C253.472 434.679 253.47 386.009 227.472 370.999C201.474 355.989 159.325 380.323 133.328 425.349C107.332 470.376 107.333 519.046 133.331 534.056C159.329 549.066 201.479 524.732 227.476 479.705Z" fill="#F1A018"/>
<path d="M150.661 528.016C134.145 528.016 124.293 514.158 124.293 490.966C124.293 452.568 152.385 403.916 185.623 384.73C194.348 379.701 202.813 377.043 210.124 377.043C226.64 377.043 236.492 390.888 236.492 414.093C236.492 452.478 208.4 501.13 175.162 520.329C166.45 525.358 157.972 528.016 150.661 528.016Z" fill="#F1A018"/>
<path opacity="0.15" d="M150.661 528.016C134.145 528.016 124.293 514.158 124.293 490.966C124.293 452.568 152.385 403.916 185.623 384.73C194.348 379.701 202.813 377.043 210.124 377.043C226.64 377.043 236.492 390.888 236.492 414.093C236.492 452.478 208.4 501.13 175.162 520.329C166.45 525.358 157.972 528.016 150.661 528.016Z" fill="black"/>
<path d="M230.36 410.45C230.36 395.672 226.355 384.718 219.186 378.689C216.292 377.572 213.213 377.014 210.111 377.043C202.8 377.043 194.335 379.701 185.61 384.73C152.398 403.916 124.293 452.607 124.293 490.966C124.293 505.732 128.299 516.699 135.468 522.727C138.364 523.835 141.441 524.394 144.542 524.373C151.853 524.373 160.319 521.716 169.03 516.686C202.281 497.487 230.36 448.835 230.36 410.45Z" fill="#FAFAFA"/>
<path d="M197.552 460.839C197.197 460.839 196.845 460.773 196.515 460.645L169.939 450.416L196.476 400.65C196.642 400.292 196.879 399.972 197.173 399.709C197.467 399.446 197.812 399.245 198.186 399.12C198.56 398.995 198.955 398.947 199.349 398.979C199.742 399.012 200.124 399.124 200.472 399.309C200.821 399.494 201.128 399.748 201.374 400.056C201.621 400.364 201.803 400.719 201.908 401.099C202.013 401.479 202.04 401.877 201.986 402.268C201.933 402.658 201.8 403.034 201.596 403.372L178.262 447.357L198.602 455.2C199.235 455.444 199.762 455.902 200.093 456.495C200.423 457.087 200.536 457.777 200.411 458.443C200.287 459.11 199.932 459.712 199.41 460.145C198.888 460.578 198.23 460.814 197.552 460.813V460.839Z" fill="#37474F"/>
<path d="M174.269 459.84C177.031 458.039 179.33 455.612 180.979 452.756C182.628 449.9 183.58 446.696 183.758 443.403C183.758 437.349 179.506 434.899 174.269 437.919C171.505 439.722 169.206 442.151 167.557 445.01C165.908 447.868 164.956 451.075 164.779 454.37C164.779 460.385 169.031 462.874 174.269 459.84Z" fill="#4877C1"/>
<path d="M174.268 507.054C173.491 507.508 172.855 507.054 172.855 506.133V494.959C172.869 494.446 173.004 493.943 173.25 493.492C173.495 493.042 173.844 492.656 174.268 492.366C175.046 491.926 175.682 492.366 175.682 493.3V504.461C175.669 504.975 175.535 505.478 175.289 505.929C175.043 506.379 174.693 506.765 174.268 507.054Z" fill="#F1A018"/>
<path d="M174.152 409.335C173.374 409.789 172.752 409.335 172.752 408.415V397.227C172.763 396.715 172.895 396.212 173.139 395.762C173.382 395.311 173.73 394.924 174.152 394.634C174.93 394.194 175.565 394.634 175.565 395.568V406.742C175.552 407.255 175.417 407.758 175.171 408.209C174.925 408.66 174.576 409.046 174.152 409.335Z" fill="#F1A018"/>
<path d="M126.887 478.703C126.925 478.198 127.082 477.708 127.346 477.276C127.609 476.843 127.972 476.479 128.404 476.214L138.139 470.627C138.982 470.147 139.643 470.484 139.643 471.378C139.602 471.883 139.444 472.371 139.18 472.803C138.917 473.235 138.556 473.6 138.126 473.867L128.455 479.455C127.548 479.947 126.874 479.61 126.887 478.703Z" fill="#F1A018"/>
<path d="M211.045 429.999C211.086 429.495 211.244 429.007 211.508 428.574C211.771 428.142 212.132 427.778 212.562 427.51L222.245 421.91C223.075 421.43 223.749 421.767 223.736 422.675C223.698 423.18 223.541 423.669 223.277 424.102C223.014 424.534 222.651 424.898 222.219 425.164L212.549 430.751C211.719 431.231 211.045 430.894 211.045 429.999Z" fill="#F1A018"/>
<path d="M241.742 495.244C243.038 477.666 240.912 458.35 242.364 430.919C242.494 423.893 242.753 416.361 243.22 409.659C244.814 387.154 248.288 379.454 248.599 375.111C248.599 375.111 250.311 331.956 251.775 282.695C252.475 259.516 259.191 252.503 264.557 240.2H328.338C335.468 270.548 337.49 336.752 337.283 368.033C337.166 383.978 330.736 469.304 330.606 471.262C330.153 478.223 330.762 480.971 333.484 483.901C339.201 490.033 347.485 495.879 354.641 501.22C353.604 503.956 344.996 503.813 340.731 501.778C335.14 498.868 329.814 495.476 324.812 491.64C318.926 487.285 311.408 483.784 311.304 477.16C311.277 476.761 311.212 476.366 311.109 475.98C311.006 472.091 302.035 415.052 301.231 401.79C300.583 390.395 301.97 371.08 301.97 371.08L294.62 322.843C294.62 322.843 288.981 359.464 284.405 378.936C280.671 394.777 274.513 421.819 270.326 441.316C266.295 463.795 260.5 485.625 259.476 496.878C259.178 499.561 256.131 525.916 254.874 531.957C253.616 537.998 240.549 538.166 239.642 527.796C239.084 520.86 241.508 498.55 241.742 495.244Z" fill="#EEBFB0"/>
<path d="M366.827 508.221C367.19 508.221 367.786 512.227 365.829 513.951C363.56 515.947 356.897 519.253 348.03 518.203C339.163 517.153 334.34 514.469 330.762 511.54C327.184 508.61 322.181 504.475 318.162 503.645C314.428 502.854 310.384 501.221 309.165 500.08C307.947 498.939 308.076 493.832 308.076 493.832L366.827 508.221Z" fill="#263238"/>
<path d="M310.953 474.101C310.953 474.101 310.279 474.101 310.071 475.32C309.812 476.733 309.566 480.829 308.995 483.098C308.128 487.181 307.879 491.372 308.257 495.53C308.775 498.122 314.868 499.898 318.757 501.337C323.338 503.278 327.599 505.901 331.396 509.116C335.597 512.512 344.36 515.857 350.155 515.882C358.97 515.882 364.648 513.458 366.385 510.282C368.524 506.393 366.787 504.086 356.61 499.497C354.679 498.628 347.912 494.726 345.604 493.3C343.153 491.808 340.829 490.117 338.656 488.244C337.558 487.298 336.515 486.289 335.532 485.224C334.509 484.275 333.635 483.178 332.939 481.97C332.822 481.711 332.745 481.4 332.641 481.114C332.341 480.35 332.111 479.561 331.954 478.755C331.785 477.912 331.669 476.694 330.852 476.162C329.705 475.702 328.453 475.568 327.235 475.773C325.926 475.882 324.627 476.081 323.346 476.37C321.855 476.72 320.144 476.875 319.275 478.275C318.693 479.412 318.416 480.681 318.472 481.957C318.472 482.553 318.472 483.15 318.472 483.733C318.472 483.992 318.588 484.446 318.238 484.342C317.888 484.239 317.512 483.37 317.383 483.046C317.098 482.398 316.903 481.685 316.592 481.037C316.241 480.281 315.807 479.568 315.296 478.911C314.822 478.308 314.278 477.763 313.675 477.29C313.069 476.961 312.484 476.593 311.925 476.188C311.409 475.599 311.071 474.875 310.953 474.101Z" fill="#37474F"/>
<path d="M358.257 500.326C345.501 501.337 341.573 509.258 341.08 514.132C343.994 515.2 347.054 515.813 350.155 515.947C358.97 515.947 365.011 513.523 366.748 510.347C368.757 506.626 367.331 503.658 358.257 500.326Z" fill="#FAFAFA"/>
<path d="M339.135 500.65C338.989 500.659 338.846 500.613 338.733 500.521C338.669 500.469 338.615 500.405 338.576 500.333C338.536 500.261 338.512 500.181 338.503 500.099C338.495 500.017 338.503 499.934 338.527 499.855C338.55 499.776 338.59 499.703 338.642 499.639C340.111 498.088 341.895 496.869 343.873 496.064C345.852 495.259 347.98 494.887 350.115 494.972C350.2 494.98 350.283 495.005 350.359 495.044C350.434 495.084 350.501 495.138 350.556 495.204C350.611 495.269 350.652 495.345 350.678 495.427C350.703 495.508 350.712 495.594 350.705 495.679C350.697 495.764 350.673 495.847 350.633 495.923C350.593 495.998 350.539 496.065 350.474 496.12C350.408 496.175 350.332 496.216 350.251 496.242C350.169 496.267 350.083 496.276 349.998 496.269C348.073 496.21 346.156 496.554 344.371 497.277C342.585 498 340.97 499.087 339.627 500.469C339.564 500.534 339.487 500.584 339.402 500.616C339.317 500.647 339.225 500.659 339.135 500.65Z" fill="#F0F0F0"/>
<path d="M333.599 497.513C333.459 497.516 333.321 497.47 333.21 497.383C333.081 497.279 332.998 497.128 332.979 496.964C332.96 496.799 333.005 496.633 333.107 496.502C334.576 494.948 336.362 493.728 338.343 492.923C340.325 492.118 342.456 491.747 344.592 491.835C344.68 491.834 344.766 491.851 344.847 491.885C344.927 491.92 344.999 491.971 345.059 492.035C345.118 492.099 345.163 492.175 345.191 492.258C345.219 492.341 345.229 492.429 345.221 492.516C345.213 492.603 345.186 492.687 345.143 492.763C345.1 492.84 345.042 492.906 344.971 492.958C344.901 493.01 344.821 493.046 344.735 493.065C344.65 493.084 344.561 493.084 344.476 493.067C342.549 493.012 340.633 493.359 338.848 494.084C337.062 494.809 335.447 495.897 334.105 497.28C334.046 497.357 333.969 497.418 333.881 497.459C333.793 497.5 333.696 497.518 333.599 497.513Z" fill="#F0F0F0"/>
<path d="M328.479 493.909C328.335 493.912 328.193 493.867 328.078 493.78C327.949 493.675 327.866 493.525 327.846 493.36C327.827 493.195 327.873 493.03 327.974 492.898C329.446 491.348 331.232 490.13 333.213 489.325C335.194 488.52 337.323 488.147 339.459 488.231C339.541 488.238 339.621 488.261 339.694 488.298C339.767 488.335 339.832 488.387 339.885 488.45C339.938 488.512 339.978 488.585 340.003 488.663C340.028 488.741 340.037 488.824 340.03 488.905C340.024 488.988 340 489.068 339.962 489.142C339.924 489.215 339.871 489.28 339.806 489.332C339.742 489.384 339.668 489.423 339.588 489.445C339.508 489.468 339.425 489.474 339.343 489.463C337.417 489.41 335.501 489.757 333.716 490.482C331.931 491.208 330.315 492.295 328.972 493.676C328.915 493.752 328.84 493.813 328.755 493.854C328.669 493.894 328.574 493.913 328.479 493.909Z" fill="#F0F0F0"/>
<path d="M323.516 490.305C323.376 490.308 323.238 490.262 323.127 490.176C322.997 490.075 322.912 489.928 322.89 489.765C322.868 489.603 322.912 489.438 323.011 489.307C325.422 486.196 330.919 484.122 335.559 484.562C335.645 484.57 335.727 484.594 335.803 484.634C335.879 484.674 335.946 484.728 336.001 484.794C336.055 484.859 336.097 484.935 336.122 485.016C336.148 485.098 336.157 485.184 336.149 485.269C336.142 485.354 336.117 485.437 336.078 485.512C336.038 485.588 335.984 485.655 335.918 485.71C335.853 485.765 335.777 485.806 335.695 485.832C335.614 485.857 335.528 485.866 335.443 485.859C331.269 485.457 326.135 487.375 323.996 490.137C323.933 490.198 323.858 490.245 323.775 490.275C323.692 490.304 323.604 490.314 323.516 490.305Z" fill="#F0F0F0"/>
<path d="M259.034 536.663C258.684 542.678 257.738 546.67 255.612 550.196C253.486 553.723 249.454 554.824 245.371 553.8C241.287 552.776 236.076 550.002 234.896 544.817C233.716 539.631 233.055 536.066 233.976 530.479L259.034 536.663Z" fill="#263238"/>
<path d="M241.845 493.093C240.173 493.222 239.668 501.299 238.708 509.388C237.671 518.06 235.078 521.651 234.145 528.755C233.082 536.883 234.43 540.5 237.282 545.413C240.134 550.327 250.246 555.149 255.159 548.11C259.204 542.38 259.372 536.015 259.048 527.913C258.831 521.055 259.013 514.19 259.592 507.353C259.917 501.273 261.265 495.141 259.8 494.467C259.683 495.361 259.579 496.489 259.463 497.371C259.406 498.468 259.223 499.556 258.918 500.612C258.75 501.065 258.374 501.545 258.218 500.806C258.14 500.303 258.14 499.792 258.218 499.289C258.465 497.047 257.337 496.865 256.727 496.697C254.157 496.188 251.56 495.821 248.949 495.595C247.653 495.504 243.232 495.31 242.649 496.048C242.274 496.773 242.082 497.579 242.092 498.395C241.949 499.613 241.664 500.508 241.625 500.119C241.547 499.25 241.716 496.969 241.742 496.424C241.768 495.88 241.845 495.128 241.858 494.648C241.871 494.169 241.845 493.611 241.845 493.093Z" fill="#37474F"/>
<path d="M233.717 533.461C233.413 537.806 234.518 542.134 236.867 545.802C239.706 550.715 250.596 555.551 255.561 548.511C258.037 545.011 258.698 540.876 259.035 536.65C256.105 531.231 238.41 528.846 233.717 533.461Z" fill="#FAFAFA"/>
<path d="M255.367 527.795C255.299 527.807 255.228 527.807 255.16 527.795C255.095 527.795 247.317 524.542 239.746 526.292C239.664 526.32 239.577 526.33 239.491 526.322C239.404 526.315 239.321 526.289 239.245 526.247C239.169 526.205 239.103 526.148 239.05 526.078C238.998 526.009 238.96 525.93 238.941 525.846C238.921 525.761 238.918 525.674 238.934 525.588C238.95 525.503 238.984 525.422 239.033 525.351C239.082 525.279 239.145 525.219 239.219 525.173C239.293 525.128 239.375 525.098 239.461 525.086C247.472 523.232 255.406 526.525 255.704 526.668C255.852 526.74 255.964 526.868 256.018 527.024C256.071 527.179 256.061 527.349 255.989 527.497C255.928 527.604 255.836 527.69 255.725 527.743C255.613 527.796 255.489 527.814 255.367 527.795Z" fill="#F0F0F0"/>
<path d="M240.12 520.225C240 520.213 239.885 520.166 239.791 520.09C239.696 520.014 239.626 519.912 239.589 519.797C239.539 519.64 239.551 519.471 239.624 519.323C239.696 519.176 239.823 519.062 239.978 519.006C247.522 516.414 255.884 520.303 256.195 520.445C256.32 520.534 256.408 520.666 256.444 520.815C256.479 520.964 256.46 521.121 256.388 521.256C256.317 521.392 256.2 521.498 256.057 521.554C255.914 521.609 255.756 521.612 255.612 521.56C255.547 521.56 247.393 517.801 240.38 520.186C240.297 520.219 240.209 520.232 240.12 520.225Z" fill="#F0F0F0"/>
<path d="M240.393 514.508C240.276 514.497 240.164 514.454 240.07 514.383C239.976 514.312 239.904 514.216 239.861 514.106C239.833 514.029 239.819 513.947 239.823 513.864C239.826 513.782 239.846 513.701 239.881 513.626C239.916 513.551 239.965 513.484 240.027 513.428C240.088 513.373 240.159 513.33 240.237 513.303C248.521 510.334 256.468 514.521 256.753 514.703C256.894 514.789 256.995 514.927 257.034 515.088C257.073 515.248 257.046 515.417 256.96 515.558C256.874 515.699 256.736 515.8 256.575 515.839C256.415 515.878 256.246 515.852 256.105 515.766C256.04 515.766 248.326 511.721 240.665 514.469C240.578 514.501 240.485 514.514 240.393 514.508Z" fill="#F0F0F0"/>
<path d="M240.794 508.895C240.68 508.879 240.572 508.833 240.481 508.763C240.39 508.692 240.319 508.599 240.275 508.493C240.246 508.416 240.232 508.335 240.235 508.253C240.237 508.171 240.256 508.09 240.29 508.016C240.323 507.941 240.371 507.874 240.431 507.818C240.491 507.762 240.561 507.718 240.638 507.689C248.416 504.785 256.946 509.076 257.27 509.258C257.413 509.342 257.517 509.478 257.561 509.638C257.604 509.798 257.584 509.968 257.503 510.113C257.462 510.184 257.407 510.246 257.341 510.296C257.276 510.345 257.201 510.381 257.122 510.402C257.042 510.422 256.959 510.427 256.878 510.415C256.797 510.403 256.718 510.376 256.648 510.334C256.57 510.334 248.286 506.146 241.092 508.856C240.996 508.889 240.895 508.903 240.794 508.895Z" fill="#EBEBEB"/>
<path d="M258.05 240.201C251.037 257.468 248.625 267.281 247.861 308.259C247.096 349.237 247.173 366.984 247.005 371.923C246.836 376.862 243.971 385.69 241.444 410.035C238.916 434.381 241.236 462.862 241.236 462.862C241.236 462.862 243.647 467.282 252.903 468.047C261.485 468.825 265.737 465.597 265.737 465.597C265.737 465.597 277.508 418.202 280.775 403.554C284.042 388.905 294.594 332.578 294.594 332.578L300.207 371.663C300.207 371.663 297.614 385.094 300.207 406.445C302.8 427.795 307.441 449.639 307.441 449.639C311.677 451.118 316.138 451.851 320.625 451.804C324.688 451.866 328.691 450.818 332.201 448.77C332.201 448.77 339.487 385.249 339.487 361.085C339.487 336.921 339.188 275.941 331.566 240.136L258.05 240.201Z" fill="#4877C1"/>
<path d="M283.12 378.871C283.12 378.871 279.426 373.53 270.351 372.39C261.277 371.249 256.571 376.214 256.571 376.214C256.571 376.214 273.411 374.49 283.12 378.871ZM255.547 379.844C267.214 382.164 272.581 381.684 277.922 380.621C277.922 380.621 261.095 378.495 255.547 379.844Z" fill="#EEBFB0"/>
<path d="M339.421 367.463L339.499 364.871C331.721 363.833 319.237 366.361 315.893 368.28C323.687 367.201 331.571 366.928 339.421 367.463ZM321.441 371.287C326.626 372.687 339.149 373.323 339.149 373.323L339.279 370.86C339.279 370.86 330.36 370.587 321.441 371.287Z" fill="#EEBFB0"/>
<path d="M243.516 465.117C243.925 465.426 244.358 465.699 244.813 465.934C242.44 427.692 247.198 405.731 250.361 391.096C250.672 389.683 250.957 388.347 251.23 387.077C253.628 375.63 254.704 352.659 254.665 333.849C254.665 328.184 254.665 322.337 254.665 316.115C254.665 308.842 254.937 301.31 255.534 293.869C268.873 292.275 271.764 279.104 275.407 262.485C275.899 260.203 276.422 257.857 276.975 255.446L275.796 255.173C275.238 257.585 274.72 259.944 274.214 262.225C270.571 278.884 267.888 290.979 255.637 292.599C257.089 275.746 260.576 259.296 268.873 247.447L267.888 246.747C255.534 264.377 253.628 291.705 253.446 316.102C253.446 322.324 253.446 328.184 253.446 333.849C253.446 352.594 252.409 375.514 250.037 386.831L249.181 390.836C245.992 405.42 241.261 427.251 243.516 465.117ZM302.306 286.117L294.644 332.643L300.258 371.728L299.519 333.758L304.704 304.914C304.899 307.779 305.106 310.722 305.3 313.716C306.999 338.451 308.904 366.478 307.621 372.376C304.069 388.542 305.106 398.744 306.999 417.269C307.193 419.149 307.401 421.158 307.608 423.18C308.645 433.642 309.799 443.922 310.577 450.65L311.873 450.935C311.095 444.22 309.915 433.746 308.852 423.064C308.645 420.989 308.451 419.032 308.256 417.152C306.376 398.757 305.339 388.633 308.839 372.636C310.136 366.569 308.334 339.656 306.558 313.639C306.234 308.907 305.923 304.344 305.638 299.988L307.115 291.795C312.949 290.395 325.796 283.615 327.507 275.565C318.484 284.963 302.306 286.117 302.306 286.117Z" fill="#37474F"/>
<path d="M368.524 219.86C367.552 219.329 365.724 220.936 363.339 223.205C362.742 223.765 362.278 224.452 361.982 225.214C361.686 225.977 361.565 226.797 361.627 227.613C363.283 227.305 364.783 226.441 365.879 225.162C367.154 223.62 368.059 221.807 368.524 219.86Z" fill="#263238"/>
<path d="M374.072 238.437C373.139 238.139 372.776 237.737 374.072 236.531C375.368 235.326 379.646 232.228 379.646 232.228L380.722 234.042C380.722 234.042 375.693 238.8 374.072 238.437Z" fill="black"/>
<path d="M401.594 209.036C400.984 206.365 398.055 204.395 392.765 201.452L392.623 201.375L391.884 200.96C383.108 196.474 339.926 176.938 332.939 174.255C327.589 171.997 321.938 170.534 316.164 169.912L325.848 203.993C325.848 203.993 357.932 214.04 371.22 218.123C367.577 222.44 364.012 226.614 360.733 228.118L373.696 239.098C376.574 234.652 394.075 225.733 397.951 219.653C400.712 215.194 402.177 211.642 401.594 209.036Z" fill="#EEBFB0"/>
<path d="M388.67 204.408C379.828 203.462 372.504 211.045 369.056 214.999C368.706 215.401 367.98 216.296 367.396 216.97L371.13 218.123C371.324 217.903 372.802 215.946 373.723 214.714C377.287 209.576 382.6 205.912 388.67 204.408Z" fill="#F2AD9C"/>
<path d="M372.581 229.402C371.116 228.105 367.538 224.826 365.257 225.785C361.679 227.302 359.994 228.728 354.614 231.243C350.725 233.07 345.993 235.508 344.969 236.713C342.376 239.799 343.258 247.68 344.295 250.973C344.415 251.394 344.625 251.783 344.91 252.115C345.196 252.446 345.55 252.712 345.948 252.893C346.346 253.075 346.779 253.167 347.217 253.165C347.654 253.162 348.086 253.065 348.482 252.879C348.793 253.566 349.662 255.044 352.371 254.486C352.578 255.51 354.147 256.742 356.571 256.249C356.882 257.377 359.06 257.779 360.525 257.105C362.56 256.197 364.673 253.294 365.957 252.192C367.24 251.09 367.849 250.675 367.875 249.988C367.875 249.054 366.877 248.108 365.166 248.264C367.184 247.701 368.989 246.55 370.351 244.958C371.399 243.502 372.269 241.927 372.944 240.265C373.468 238.88 374.266 237.615 375.29 236.545C377.183 234.419 374.357 231.23 372.827 229.739L372.581 229.402Z" fill="#EEBFB0"/>
<path d="M365.206 248.302C364.616 248.61 364.064 248.984 363.559 249.417C363.32 249.637 363.103 249.88 362.911 250.143C362.704 250.402 362.561 250.688 362.328 250.973L362.211 251.115L362.056 251.038C361.051 250.644 359.966 250.497 358.893 250.61C359.97 250.175 361.173 250.175 362.25 250.61H361.978C362.324 250.029 362.762 249.508 363.274 249.067C363.86 248.684 364.517 248.424 365.206 248.302Z" fill="#F2AD9C"/>
<path d="M361.445 253.786C361.575 253.254 361.756 252.801 361.86 252.321C361.986 251.83 362.081 251.332 362.145 250.83C362.395 251.323 362.451 251.892 362.301 252.425C362.172 252.96 361.872 253.438 361.445 253.786Z" fill="#F2AD9C"/>
<path d="M356.61 256.288C355.979 254.998 355.605 253.598 355.508 252.166C355.362 250.736 355.498 249.291 355.91 247.914C355.821 249.317 355.843 250.726 355.975 252.127C356.071 253.529 356.284 254.921 356.61 256.288Z" fill="#F2AD9C"/>
<path d="M352.41 254.525C351.817 252.912 351.429 251.231 351.256 249.521C351.045 247.792 351.119 246.041 351.476 244.336C351.45 246.037 351.528 247.739 351.71 249.431C351.865 251.168 352.164 252.84 352.41 254.525Z" fill="#F2AD9C"/>
<path d="M348.482 252.969C346.938 249.734 346.624 246.047 347.6 242.598C347.446 244.323 347.446 246.059 347.6 247.784C347.745 249.534 348.04 251.269 348.482 252.969Z" fill="#F2AD9C"/>
<path d="M347.835 239.85C347.804 239.407 347.879 238.962 348.055 238.554C348.238 238.154 348.509 237.799 348.846 237.517C349.542 237.026 350.348 236.715 351.192 236.609C350.829 236.83 350.466 237.024 350.116 237.219C349.762 237.399 349.428 237.617 349.118 237.867C348.495 238.379 348.047 239.072 347.835 239.85Z" fill="#F2AD9C"/>
<path d="M351.852 241.419C351.809 240.976 351.88 240.53 352.06 240.123C352.243 239.719 352.518 239.364 352.863 239.086C353.549 238.586 354.353 238.274 355.197 238.178L354.121 238.775C353.772 238.965 353.438 239.181 353.123 239.423C352.502 239.94 352.058 240.638 351.852 241.419Z" fill="#F2AD9C"/>
<path d="M356.715 243.623C356.672 243.18 356.744 242.734 356.923 242.326C357.106 241.923 357.381 241.567 357.727 241.289C358.415 240.795 359.218 240.483 360.06 240.382C359.697 240.602 359.334 240.797 358.984 240.991C358.63 241.172 358.295 241.389 357.986 241.639C357.359 242.146 356.914 242.842 356.715 243.623Z" fill="#F2AD9C"/>
<path d="M377.016 220.988L371.571 219.16C370.952 218.988 370.3 218.964 369.67 219.09C369.039 219.216 368.447 219.489 367.941 219.886L363.624 223.684C363.436 223.82 363.288 224.003 363.194 224.215C363.101 224.427 363.066 224.66 363.093 224.89C363.093 225.162 363.352 226.186 363.417 226.485C363.483 226.706 363.607 226.905 363.775 227.062C363.944 227.219 364.151 227.329 364.376 227.379L369.821 229.22C370.441 229.391 371.092 229.415 371.722 229.289C372.353 229.163 372.945 228.89 373.451 228.494L377.755 224.683C377.94 224.555 378.088 224.382 378.186 224.179C378.284 223.977 378.327 223.753 378.312 223.529C378.312 223.231 378.04 222.233 377.975 221.896C377.911 221.672 377.788 221.47 377.62 221.31C377.451 221.151 377.242 221.039 377.016 220.988Z" fill="#37474F"/>
<path d="M363.624 223.684L367.941 219.886C368.446 219.489 369.039 219.216 369.669 219.09C370.3 218.964 370.951 218.988 371.571 219.16L377.015 220.988C377.251 221.016 377.473 221.117 377.648 221.278C377.823 221.438 377.942 221.65 377.99 221.883C378.037 222.116 378.01 222.358 377.912 222.574C377.814 222.791 377.65 222.97 377.443 223.088L373.126 226.886C372.621 227.284 372.029 227.557 371.398 227.683C370.767 227.809 370.116 227.785 369.497 227.612L364.052 225.785C363.816 225.757 363.595 225.656 363.42 225.495C363.245 225.334 363.125 225.122 363.077 224.889C363.03 224.657 363.057 224.415 363.155 224.198C363.254 223.982 363.418 223.802 363.624 223.684Z" fill="#4877C1"/>
<path d="M371.298 227.159C370.762 227.298 370.2 227.298 369.664 227.159L364.22 225.331C363.87 225.215 363.649 225.033 363.61 224.826C363.571 224.618 363.701 224.385 363.986 224.139L368.29 220.34C368.719 219.997 369.227 219.765 369.768 219.666C370.304 219.527 370.866 219.527 371.401 219.666L376.846 221.494C377.196 221.611 377.416 221.792 377.455 222C377.494 222.207 377.365 222.44 377.079 222.687L372.775 226.485C372.346 226.829 371.838 227.06 371.298 227.159Z" fill="#263238"/>
<path d="M368.886 228.338H368.795L364.906 227.042C364.883 227.035 364.862 227.023 364.843 227.007C364.825 226.991 364.809 226.972 364.798 226.95C364.788 226.928 364.781 226.904 364.78 226.88C364.778 226.856 364.782 226.831 364.79 226.809C364.805 226.761 364.837 226.721 364.88 226.697C364.924 226.673 364.975 226.667 365.023 226.679L368.912 227.975C368.936 227.981 368.959 227.992 368.979 228.007C368.998 228.022 369.014 228.042 369.026 228.064C369.037 228.087 369.043 228.111 369.043 228.136C369.044 228.161 369.039 228.186 369.029 228.209C369.017 228.24 368.998 228.268 368.973 228.291C368.948 228.314 368.919 228.33 368.886 228.338Z" fill="#4877C1"/>
<path d="M373.477 227.496C374.293 227.742 376.069 228.857 376.834 232.111C377.599 235.365 375.888 238.061 374.034 238.437C374.695 238.878 376.264 238.229 378.195 236.778L379.803 235.572C380.443 235.096 380.955 234.47 381.294 233.748C381.634 233.027 381.789 232.233 381.747 231.437C381.721 230.947 381.647 230.46 381.527 229.985C381.333 228.747 380.878 227.565 380.192 226.516C379.505 225.468 378.604 224.578 377.547 223.905L373.477 227.496Z" fill="#263238"/>
<path d="M248.326 269.913C251.308 256.327 255.845 236.298 255.949 233.291C256.389 221.131 253.252 212.07 252.124 204.512C249.661 188.035 255.832 174.203 259.669 170.949C259.669 170.949 263.662 170.042 268.42 168.901C271.127 168.244 273.872 167.75 276.638 167.423C283.939 166.401 291.331 166.201 298.676 166.827C300.465 167.008 308.931 168.46 308.931 168.46C311.523 169.057 316.177 169.912 316.19 169.912C320.728 174.097 324.52 179.025 327.404 184.483C331.578 191.95 333.639 198.199 333.082 214.196C332.926 219.005 332.732 227.6 332.926 234.458C333.328 249.145 334.443 255.199 336.309 268.526C319.47 278.896 276.988 283.68 248.326 269.913Z" fill="#263238"/>
<path d="M277.934 158.336C279.204 158.022 280.442 157.588 281.629 157.039C283.343 156.155 285.249 155.71 287.177 155.743C289.55 155.989 291.494 157.584 293.75 158.193C295.023 158.505 296.345 158.558 297.639 158.349C298.443 158.232 299.208 157.973 299.998 157.791C301.292 157.478 302.632 157.404 303.952 157.571C305.296 157.876 306.692 157.876 308.036 157.571C310.136 156.845 311.341 154.589 313.364 153.682C315.619 152.645 318.29 153.539 320.727 153.085C321.82 152.848 322.849 152.378 323.744 151.707C324.639 151.036 325.379 150.179 325.912 149.196C326.957 147.207 327.364 144.944 327.079 142.715C326.71 141.212 326.71 139.642 327.079 138.138C327.555 137.202 328.197 136.359 328.972 135.649C330.385 134.094 331.564 131.955 330.903 129.959C330.333 128.208 328.453 126.99 328.311 125.149C328.308 124.726 328.4 124.308 328.579 123.924C328.759 123.541 329.021 123.202 329.347 122.933C329.674 122.664 330.056 122.47 330.466 122.367C330.877 122.264 331.305 122.253 331.72 122.336C332.122 122.467 332.49 122.684 332.799 122.972C333.108 123.259 333.351 123.611 333.51 124.002C333.669 124.394 333.741 124.815 333.721 125.237C333.701 125.659 333.588 126.071 333.392 126.445C334.287 125.878 335.045 125.118 335.61 124.221C336.175 123.324 336.533 122.313 336.659 121.26C336.523 119.442 335.675 117.751 334.3 116.554C333.003 115.258 331.551 114.208 330.411 112.808C329.804 112.042 329.363 111.16 329.114 110.215C328.995 109.754 328.947 109.278 328.972 108.802C328.972 107.959 329.361 107.13 329.49 106.287C329.717 104.555 329.32 102.799 328.37 101.333C327.42 99.8677 325.979 98.7883 324.305 98.2887C322.49 97.809 320.312 97.9387 319.119 96.5127C318.225 95.4756 318.199 93.92 317.694 92.7014C316.397 89.4735 311.977 88.5012 308.723 89.7717C307.115 90.3939 305.495 91.4569 303.823 91.068C302.693 90.6523 301.676 89.9774 300.854 89.0976C299.333 87.8282 297.568 86.884 295.669 86.3234C294.722 86.0407 293.749 85.8539 292.765 85.7659C292.272 85.7659 291.779 85.7659 291.287 85.7659C290.912 85.8065 290.536 85.8282 290.159 85.8308C289.842 85.777 289.521 85.7424 289.2 85.7271C288.792 85.731 288.385 85.7613 287.981 85.8178C286.379 86.0312 284.836 86.5646 283.444 87.3864C282.312 88.0464 281.304 88.8973 280.462 89.9013C279.898 90.675 279.27 91.3993 278.583 92.0662C276.729 93.6348 274.084 93.6089 271.673 93.907C268.881 94.1912 266.217 95.221 263.96 96.8886C262.851 97.7384 261.933 98.8105 261.263 100.036C260.593 101.262 260.187 102.614 260.071 104.006C260.185 105.251 260.03 106.507 259.617 107.687C259.1 108.507 258.357 109.159 257.478 109.567C255.444 110.491 253.462 111.525 251.541 112.665C250.585 113.25 249.794 114.068 249.243 115.044C248.691 116.019 248.398 117.119 248.391 118.24C248.546 120.119 249.843 121.675 250.983 123.218C252.124 124.76 253.07 126.666 252.5 128.468C251.975 129.544 251.35 130.568 250.633 131.527C249.976 132.852 249.868 134.383 250.331 135.788C250.795 137.193 251.793 138.359 253.109 139.033C254.782 139.811 257.154 140.018 257.634 141.794C257.701 142.82 257.556 143.848 257.206 144.815C256.687 147.861 259.617 150.648 262.689 151.063C264.414 151.309 266.358 151.063 267.745 152.113C268.925 153.021 269.301 154.628 270.13 155.873C270.967 157.102 272.235 157.972 273.682 158.31C274.382 158.478 275.121 158.375 275.808 158.556C276.525 158.635 277.25 158.56 277.934 158.336Z" fill="#263238"/>
<path d="M277.442 162.393C277.442 159.697 277.105 146.15 277.105 146.15C276.988 147.161 272.062 149.909 267.681 144.685C263.299 139.461 263.014 133.899 265.658 130.425C268.575 126.536 276.198 126.627 276.924 133.225C280.709 133.083 282.537 131.449 281.033 125.214C281.37 121.584 284.922 120.029 285.933 114.208C286.27 111.992 287.353 109.956 289.003 108.439C290.653 106.921 292.771 106.011 295.008 105.859C296.8 105.718 298.601 105.977 300.281 106.618C301.96 107.26 303.476 108.267 304.717 109.567C305.171 108.681 305.815 107.908 306.604 107.303C307.394 106.697 308.308 106.275 309.28 106.067C311.742 105.739 314.237 106.36 316.257 107.805C318.277 109.25 319.671 111.409 320.157 113.845C321.483 120.097 322.04 126.488 321.816 132.875C321.285 147.252 317.422 154.187 312.819 156.599C309.721 158.206 306.934 158.582 301.554 158.128L301.788 162.64C301.891 164.908 301.684 166.529 303.888 167.319C305.353 167.812 308.853 168.486 308.853 168.486C308.853 168.486 313.973 177.327 299.869 178.118C277.39 179.414 268.381 168.927 268.381 168.927L273.359 167.397C277.027 166.23 277.416 165.103 277.442 162.393Z" fill="#EEBFB0"/>
<path d="M304.679 142.429C304.312 141.955 303.804 141.609 303.227 141.444C302.712 141.292 302.181 141.196 301.645 141.159C301.125 141.118 300.602 141.148 300.09 141.25C299.803 141.306 299.522 141.384 299.247 141.483C299.016 141.589 298.802 141.729 298.612 141.898C298.495 141.989 298.327 142.494 298.612 142.494C298.884 142.52 299.157 142.52 299.429 142.494L300.142 142.429C300.647 142.404 301.153 142.404 301.658 142.429C302.151 142.458 302.638 142.545 303.11 142.689C303.318 142.753 303.525 142.779 303.733 142.831C303.94 142.883 303.966 142.896 304.083 142.909C304.233 142.922 304.385 142.922 304.536 142.909C304.718 142.883 304.77 142.546 304.679 142.429Z" fill="#F2AD9C"/>
<path opacity="0.2" d="M304.679 142.429C304.312 141.955 303.804 141.609 303.227 141.444C302.712 141.292 302.181 141.196 301.645 141.159C301.125 141.118 300.602 141.148 300.09 141.25C299.803 141.306 299.522 141.384 299.247 141.483C299.016 141.589 298.802 141.729 298.612 141.898C298.495 141.989 298.327 142.494 298.612 142.494C298.884 142.52 299.157 142.52 299.429 142.494L300.142 142.429C300.647 142.404 301.153 142.404 301.658 142.429C302.151 142.458 302.638 142.545 303.11 142.689C303.318 142.753 303.525 142.779 303.733 142.831C303.94 142.883 303.966 142.896 304.083 142.909C304.233 142.922 304.385 142.922 304.536 142.909C304.718 142.883 304.77 142.546 304.679 142.429Z" fill="black"/>
<path d="M317.642 120.132L311.99 117.877C312.118 117.497 312.322 117.147 312.591 116.85C312.859 116.552 313.185 116.313 313.55 116.146C313.915 115.98 314.309 115.89 314.71 115.882C315.111 115.874 315.509 115.949 315.879 116.101C316.633 116.42 317.235 117.016 317.563 117.766C317.891 118.515 317.919 119.362 317.642 120.132Z" fill="#263238"/>
<path d="M298.339 118.278L292.311 116.982C292.208 117.37 292.184 117.774 292.242 118.171C292.299 118.568 292.437 118.95 292.647 119.292C292.857 119.634 293.134 119.929 293.462 120.161C293.79 120.392 294.162 120.554 294.554 120.638C295.367 120.807 296.215 120.656 296.92 120.217C297.625 119.777 298.133 119.083 298.339 118.278Z" fill="#263238"/>
<path d="M311.47 125.577C311.42 126.253 311.635 126.921 312.071 127.44C312.508 127.958 313.129 128.285 313.804 128.351C314.131 128.389 314.463 128.36 314.78 128.267C315.096 128.174 315.391 128.018 315.646 127.809C315.901 127.6 316.112 127.341 316.265 127.049C316.418 126.757 316.512 126.437 316.539 126.109C316.59 125.433 316.374 124.764 315.938 124.246C315.501 123.727 314.88 123.4 314.205 123.334C313.878 123.297 313.546 123.325 313.229 123.419C312.913 123.512 312.618 123.668 312.363 123.877C312.108 124.086 311.897 124.344 311.744 124.636C311.591 124.928 311.498 125.248 311.47 125.577Z" fill="#263238"/>
<path d="M293.064 125.927C293.013 126.603 293.229 127.271 293.665 127.79C294.101 128.308 294.723 128.635 295.397 128.701C295.724 128.741 296.056 128.714 296.373 128.622C296.689 128.531 296.984 128.376 297.239 128.168C297.494 127.96 297.705 127.702 297.859 127.411C298.012 127.119 298.105 126.8 298.133 126.472C298.183 125.796 297.967 125.127 297.531 124.609C297.095 124.09 296.473 123.763 295.799 123.697C295.472 123.658 295.14 123.685 294.824 123.776C294.508 123.868 294.213 124.023 293.958 124.231C293.702 124.439 293.491 124.696 293.338 124.988C293.184 125.279 293.091 125.599 293.064 125.927Z" fill="#263238"/>
<path d="M313.764 134.418L305.467 137.452L303.264 123.036C306.453 123.114 310.549 128.144 313.764 134.418Z" fill="#F2AD9C"/>
<path d="M301.553 158.102C291.895 157.104 282.652 153.928 280.5 149.521C280.888 152.287 282.27 154.817 284.389 156.637C290.871 162.03 301.76 161.512 301.76 161.512L301.553 158.102Z" fill="#F2AD9C"/>
<path d="M243.996 292.586C239.925 293.74 234.714 288.697 233.288 286.921C231.862 285.145 233.69 280.971 234.584 277.445C235.479 273.919 234.584 267.942 238.953 269.666C243.322 271.391 252.474 283.071 243.996 292.586Z" fill="#F2AD9C"/>
<path d="M259.63 170.949C248.3 172.634 243.05 175.344 236.814 187.88C229.555 202.476 217.81 222.777 215.995 229.116C214.297 235.015 210.926 239.228 217.382 248.186C223.281 256.392 241.844 277.885 244.605 281.035C247.017 283.822 245.681 291.821 237.385 290.628C237.385 290.628 243.698 296.216 247.159 295.593C250.154 295.062 254.86 292.443 259.176 283.369C261.899 277.639 259.617 273.153 255.482 266.775C250.53 259.166 239.835 237.945 239.835 237.945L258.969 203.993C258.969 203.993 269.275 181.022 259.63 170.949Z" fill="#EEBFB0"/>
<path d="M374.501 505.758C374.368 503.931 373.543 502.225 372.194 500.987C371.023 499.688 369.429 498.847 367.695 498.615C367.397 498.615 367.242 499.043 367.229 499.276C367.207 499.442 367.229 499.61 367.293 499.765C367.357 499.92 367.46 500.055 367.592 500.157C368.872 500.826 370.069 501.644 371.157 502.595C371.594 503.06 371.965 503.583 372.259 504.15C372.335 504.293 372.405 504.44 372.466 504.591V504.669L372.57 504.941C372.686 505.278 372.842 505.615 372.933 505.965C373.041 506.603 373.098 507.249 373.101 507.897C373.098 508.108 373.147 508.318 373.244 508.506C373.581 508.999 374.048 508.104 374.177 507.767C374.421 507.126 374.531 506.442 374.501 505.758Z" fill="#FAFAFA"/>
<path d="M377.093 497.682C375.828 496.194 374.265 494.988 372.504 494.142C370.737 493.129 368.642 492.85 366.671 493.365C366.178 493.546 366.23 494.661 366.671 494.778C368.463 495.164 370.222 495.689 371.934 496.346C373.283 496.957 374.492 497.84 375.486 498.939C377.962 501.674 378.74 505.486 378.753 509.076C378.753 509.336 379.025 509.31 379.116 509.076C381.06 505.343 379.66 500.754 377.093 497.682Z" fill="#FAFAFA"/>
<path d="M112.338 126.382C119.416 140.746 136.061 152.918 165.177 152.944C178.14 152.944 188.628 150.507 196.912 146.553C202.473 153.398 213.764 155.939 221.996 152.75C222.238 152.654 222.445 152.488 222.591 152.273C222.738 152.058 222.816 151.804 222.816 151.544C222.816 151.284 222.738 151.03 222.591 150.815C222.445 150.6 222.238 150.434 221.996 150.339C213.686 146.865 211.288 140.966 210.64 136.805C213.618 133.751 216.102 130.252 218.003 126.434C221.822 118.895 223.553 110.471 223.017 102.036C222.481 93.6021 219.698 85.4649 214.957 78.4691C205.571 64.1444 184.933 55.1348 165.164 55.1348C145.395 55.1348 124.757 64.1314 115.371 78.4691C110.644 85.4614 107.87 93.5895 107.337 102.013C106.804 110.436 108.53 118.85 112.338 126.382Z" fill="white"/>
<path d="M214.349 154.59C207.673 154.59 200.789 151.855 196.783 147.149C187.929 151.298 177.338 153.411 165.23 153.411H165.139C130.319 153.411 116.85 136.558 111.911 126.602C108.064 118.99 106.32 110.487 106.86 101.975C107.4 93.4624 110.205 85.2487 114.984 78.1836C124.214 64.0923 144.385 54.6289 165.178 54.6289C185.972 54.6289 206.143 64.0793 215.373 78.1706C220.168 85.2297 222.988 93.443 223.54 101.959C224.091 110.475 222.355 118.984 218.51 126.602C216.616 130.406 214.16 133.902 211.225 136.973C211.938 141.108 214.453 146.631 222.257 149.937C222.586 150.073 222.866 150.305 223.06 150.604C223.255 150.902 223.354 151.253 223.345 151.609C223.351 151.961 223.246 152.307 223.047 152.597C222.847 152.887 222.562 153.108 222.231 153.229C219.711 154.169 217.038 154.63 214.349 154.59ZM197.043 145.957L197.276 146.255C202.591 152.737 213.597 155.498 221.829 152.296C221.979 152.241 222.107 152.14 222.196 152.007C222.284 151.874 222.328 151.717 222.321 151.557C222.331 151.392 222.288 151.229 222.2 151.089C222.112 150.95 221.982 150.841 221.829 150.779C213.467 147.279 210.875 141.29 210.162 136.882V136.649L210.33 136.48C213.284 133.424 215.742 129.925 217.616 126.11C221.381 118.656 223.088 110.333 222.562 101.999C222.035 93.665 219.294 85.6226 214.621 78.7021C205.702 65.1034 185.401 55.6012 165.23 55.6012C145.059 55.6012 124.758 65.1034 115.839 78.7021C111.15 85.6275 108.397 93.6804 107.866 102.027C107.335 110.374 109.045 118.711 112.819 126.174C117.654 135.988 130.89 152.439 165.23 152.464C177.351 152.464 187.955 150.325 196.757 146.125L197.043 145.957Z" fill="#4877C1"/>
<path d="M177.234 113.781C180.682 117.579 180.993 122.194 180.993 127.73H149.271C149.271 122.194 149.583 117.579 153.031 113.781C156.479 109.983 159.253 108.674 160.666 107.299C161.201 106.945 161.64 106.463 161.943 105.898C162.247 105.332 162.406 104.7 162.406 104.059C162.406 103.417 162.247 102.785 161.943 102.22C161.64 101.654 161.201 101.172 160.666 100.818C159.253 99.4435 156.466 98.1213 153.031 94.3359C149.596 90.5506 149.271 85.9226 149.271 80.3872H180.993C180.993 85.9226 180.682 90.5506 177.234 94.3359C173.785 98.1213 171.011 99.4435 169.598 100.818C169.063 101.172 168.625 101.654 168.321 102.22C168.018 102.785 167.859 103.417 167.859 104.059C167.859 104.7 168.018 105.332 168.321 105.898C168.625 106.463 169.063 106.945 169.598 107.299C170.363 108.038 171.543 108.777 172.995 109.892C174.523 111.057 175.942 112.359 177.234 113.781Z" fill="#F1A018"/>
<path opacity="0.6" d="M177.234 113.781C180.682 117.579 180.993 122.194 180.993 127.73H149.271C149.271 122.194 149.583 117.579 153.031 113.781C156.479 109.983 159.253 108.674 160.666 107.299C161.201 106.945 161.64 106.463 161.943 105.898C162.247 105.332 162.406 104.7 162.406 104.059C162.406 103.417 162.247 102.785 161.943 102.22C161.64 101.654 161.201 101.172 160.666 100.818C159.253 99.4435 156.466 98.1213 153.031 94.3359C149.596 90.5506 149.271 85.9226 149.271 80.3872H180.993C180.993 85.9226 180.682 90.5506 177.234 94.3359C173.785 98.1213 171.011 99.4435 169.598 100.818C169.063 101.172 168.625 101.654 168.321 102.22C168.018 102.785 167.859 103.417 167.859 104.059C167.859 104.7 168.018 105.332 168.321 105.898C168.625 106.463 169.063 106.945 169.598 107.299C170.363 108.038 171.543 108.777 172.995 109.892C174.523 111.057 175.942 112.359 177.234 113.781Z" fill="white"/>
<path opacity="0.5" d="M150.166 127.082C150.08 127.082 149.998 127.048 149.937 126.987C149.876 126.926 149.842 126.844 149.842 126.758C149.842 122.104 150.179 117.683 153.459 114.002C155.146 112.155 157.038 110.507 159.098 109.088C159.794 108.621 160.457 108.105 161.081 107.546C161.661 107.142 162.135 106.604 162.463 105.978C162.79 105.351 162.961 104.655 162.961 103.948C162.961 103.242 162.79 102.545 162.463 101.919C162.135 101.292 161.661 100.754 161.081 100.351C160.459 99.7942 159.801 99.2789 159.111 98.8083C157.047 97.3849 155.151 95.7323 153.459 93.8822C150.179 90.2653 149.881 85.7929 149.842 81.139C149.842 81.0531 149.876 80.9706 149.937 80.9099C149.998 80.8491 150.08 80.8149 150.166 80.8149C150.248 80.8149 150.328 80.8477 150.386 80.9061C150.444 80.9644 150.477 81.0436 150.477 81.1261C150.477 85.6633 150.801 90.0061 153.925 93.4673C155.586 95.2763 157.447 96.8899 159.474 98.2768C160.175 98.7716 160.842 99.313 161.47 99.8972C162.108 100.363 162.626 100.973 162.984 101.676C163.341 102.38 163.528 103.159 163.528 103.948C163.528 104.738 163.341 105.516 162.984 106.22C162.626 106.924 162.108 107.534 161.47 107.999C160.825 108.582 160.141 109.119 159.422 109.607C157.393 110.995 155.531 112.613 153.873 114.429C150.749 117.878 150.464 122.207 150.425 126.758C150.427 126.833 150.402 126.907 150.354 126.967C150.307 127.026 150.24 127.067 150.166 127.082Z" fill="white"/>
<path d="M175.835 114.974C178.428 117.813 178.972 121.456 179.063 125.643H151.295C151.386 121.391 151.839 117.787 154.523 114.974C157.206 112.161 160.512 110.93 165.179 110.93C167.135 110.863 169.084 111.186 170.914 111.88C172.743 112.575 174.416 113.626 175.835 114.974Z" fill="#FAFAFA"/>
<path d="M178.933 84.8336C178.835 87.801 177.744 90.6497 175.834 92.9228C174.213 94.6924 172.395 96.2712 170.416 97.6285C169.665 98.1449 168.95 98.7123 168.277 99.3268C167.597 99.897 167.041 100.601 166.644 101.395C166.247 102.189 166.017 103.056 165.969 103.942C165.969 105.497 165.71 105.899 165.178 105.899C164.647 105.899 164.388 105.536 164.388 103.942C164.339 103.056 164.11 102.189 163.713 101.395C163.316 100.601 162.76 99.897 162.08 99.3268C161.412 98.7122 160.701 98.1448 159.954 97.6285C157.968 96.275 156.145 94.6959 154.522 92.9228C153.927 92.2657 153.413 91.5387 152.993 90.7579C152.964 90.7008 152.952 90.6367 152.959 90.5732C152.965 90.5097 152.989 90.4493 153.029 90.399C153.068 90.3487 153.121 90.3107 153.181 90.2893C153.241 90.2679 153.306 90.2641 153.369 90.2782C155.872 90.875 158.447 91.1107 161.017 90.9783C166.125 90.6671 168.419 89.8115 171.621 87.0892C173.54 85.4817 174.992 83.2002 176.275 82.7075C176.594 82.5313 176.958 82.4537 177.322 82.4847C177.685 82.5156 178.031 82.6537 178.315 82.8814C178.6 83.1091 178.81 83.4162 178.92 83.7637C179.03 84.1113 179.035 84.4836 178.933 84.8336Z" fill="#FAFAFA"/>
<path d="M165.179 109.114C165.701 109.114 166.125 108.691 166.125 108.168C166.125 107.645 165.701 107.222 165.179 107.222C164.656 107.222 164.232 107.645 164.232 108.168C164.232 108.691 164.656 109.114 165.179 109.114Z" fill="#FAFAFA"/>
<path opacity="0.3" d="M172.995 109.892C174.523 111.057 175.941 112.359 177.234 113.781C180.682 117.579 180.993 122.194 180.993 127.73H152.914C157.153 127.73 169.015 125.746 173.254 121.598C177.739 117.178 175.535 113.431 172.995 109.892Z" fill="#F1A018"/>
<path opacity="0.3" d="M180.995 80.4258C180.995 85.9612 180.684 90.5892 177.236 94.3745C173.788 98.1599 171.013 99.4821 169.6 100.856C169.066 101.211 168.627 101.693 168.323 102.258C168.02 102.824 167.861 103.455 167.861 104.097C167.861 104.739 168.02 105.371 168.323 105.936C168.627 106.502 169.066 106.983 169.6 107.338C164.946 104.512 165.711 101.673 166.567 99.7803C167.423 97.8876 173.23 94.3097 172.906 89.0724C172.582 83.8352 164.428 80.4647 156.676 80.4647L180.995 80.4258Z" fill="#F1A018"/>
<path d="M183.86 76.1738C183.86 76.9199 183.563 77.6354 183.036 78.163C182.508 78.6905 181.793 78.9869 181.046 78.9869H149.325C148.579 78.9869 147.863 78.6905 147.336 78.163C146.808 77.6354 146.512 76.9199 146.512 76.1738H183.86Z" fill="#F1A018"/>
<path opacity="0.2" d="M171.026 76.1738C171.022 76.9211 170.723 77.6366 170.193 78.1638C169.664 78.6909 168.947 78.9869 168.2 78.9869H149.325C148.579 78.9869 147.863 78.6905 147.336 78.163C146.808 77.6354 146.512 76.9199 146.512 76.1738H171.026Z" fill="white"/>
<path d="M186.102 72.687V73.7759C186.102 74.412 185.85 75.022 185.4 75.4718C184.95 75.9215 184.34 76.1742 183.704 76.1742H146.693C146.057 76.1742 145.447 75.9215 144.997 75.4718C144.548 75.022 144.295 74.412 144.295 73.7759V72.687C144.298 72.5552 144.353 72.4299 144.448 72.3379C144.542 72.2458 144.669 72.1944 144.8 72.1944H185.571C185.639 72.189 185.707 72.1978 185.771 72.2201C185.836 72.2425 185.895 72.2779 185.944 72.3242C185.994 72.3705 186.034 72.4266 186.061 72.4891C186.089 72.5515 186.102 72.6189 186.102 72.687Z" fill="#F1A018"/>
<path opacity="0.15" d="M186.024 72.6869V73.7759C186.024 74.4119 185.772 75.0219 185.322 75.4717C184.872 75.9215 184.262 76.1741 183.626 76.1741H146.654C146.018 76.1741 145.408 75.9215 144.958 75.4717C144.509 75.0219 144.256 74.4119 144.256 73.7759V72.6869C144.256 72.5563 144.308 72.431 144.4 72.3386C144.493 72.2462 144.618 72.1943 144.748 72.1943H185.519C185.651 72.1943 185.777 72.2458 185.872 72.3378C185.966 72.4298 186.021 72.5551 186.024 72.6869Z" fill="black"/>
<path d="M175.433 72.6869V73.7759C175.433 74.4119 175.181 75.0219 174.731 75.4717C174.281 75.9215 173.671 76.1741 173.035 76.1741H146.693C146.057 76.1741 145.447 75.9215 144.997 75.4717C144.548 75.0219 144.295 74.4119 144.295 73.7759V72.6869C144.298 72.5551 144.353 72.4298 144.448 72.3378C144.542 72.2458 144.669 72.1943 144.8 72.1943H174.941C175.071 72.1943 175.197 72.2462 175.289 72.3386C175.381 72.431 175.433 72.5563 175.433 72.6869Z" fill="#F1A018"/>
<path opacity="0.2" d="M150.645 76.1741C150.18 75.6153 149.926 74.9112 149.926 74.1842C149.926 73.4572 150.18 72.7532 150.645 72.1943H159.136C159.609 72.7498 159.868 73.4551 159.868 74.1842C159.868 74.9133 159.609 75.6186 159.136 76.1741H150.645Z" fill="white"/>
<path opacity="0.2" d="M152.087 78.9869C151.775 78.5845 151.605 78.0897 151.605 77.5804C151.605 77.0711 151.775 76.5762 152.087 76.1738H157.713C158.025 76.5762 158.195 77.0711 158.195 77.5804C158.195 78.0897 158.025 78.5845 157.713 78.9869H152.087Z" fill="white"/>
<path d="M146.512 131.71C146.512 130.964 146.808 130.248 147.336 129.721C147.863 129.193 148.579 128.897 149.325 128.897H181.046C181.793 128.897 182.508 129.193 183.036 129.721C183.563 130.248 183.86 130.964 183.86 131.71H146.512Z" fill="#F1A018"/>
<path opacity="0.2" d="M159.346 131.71C159.346 130.964 159.642 130.248 160.17 129.721C160.697 129.193 161.413 128.897 162.159 128.897H181.047C181.793 128.897 182.508 129.193 183.036 129.721C183.563 130.248 183.86 130.964 183.86 131.71H159.346Z" fill="white"/>
<path d="M144.295 135.197V134.108C144.295 133.472 144.548 132.862 144.997 132.412C145.447 131.962 146.057 131.709 146.693 131.709H183.665C184.301 131.709 184.911 131.962 185.361 132.412C185.811 132.862 186.063 133.472 186.063 134.108V135.197C186.065 135.262 186.054 135.328 186.03 135.389C186.006 135.45 185.97 135.506 185.924 135.553C185.878 135.601 185.823 135.638 185.762 135.664C185.702 135.689 185.637 135.702 185.571 135.702H144.8C144.666 135.702 144.538 135.649 144.443 135.554C144.348 135.459 144.295 135.331 144.295 135.197Z" fill="#F1A018"/>
<path opacity="0.15" d="M144.295 135.197V134.108C144.295 133.472 144.548 132.862 144.997 132.412C145.447 131.962 146.057 131.709 146.693 131.709H183.665C184.301 131.709 184.911 131.962 185.361 132.412C185.811 132.862 186.063 133.472 186.063 134.108V135.197C186.065 135.262 186.054 135.328 186.03 135.389C186.006 135.45 185.97 135.506 185.924 135.553C185.878 135.601 185.823 135.638 185.762 135.664C185.702 135.689 185.637 135.702 185.571 135.702H144.8C144.666 135.702 144.538 135.649 144.443 135.554C144.348 135.459 144.295 135.331 144.295 135.197Z" fill="black"/>
<path d="M154.99 135.197V134.108C154.99 133.472 155.243 132.862 155.693 132.412C156.143 131.962 156.753 131.709 157.389 131.709H183.731C184.367 131.709 184.977 131.962 185.426 132.412C185.876 132.862 186.129 133.472 186.129 134.108V135.197C186.131 135.262 186.119 135.328 186.095 135.389C186.071 135.45 186.035 135.506 185.989 135.553C185.943 135.601 185.888 135.638 185.828 135.664C185.767 135.689 185.702 135.702 185.636 135.702H155.431C155.308 135.689 155.193 135.63 155.112 135.536C155.03 135.442 154.987 135.321 154.99 135.197Z" fill="#F1A018"/>
<path opacity="0.2" d="M179.71 131.709C180.181 132.268 180.439 132.975 180.439 133.706C180.439 134.436 180.181 135.144 179.71 135.702H171.219C170.753 135.141 170.498 134.435 170.498 133.706C170.498 132.977 170.753 132.27 171.219 131.709H179.71Z" fill="white"/>
<path opacity="0.2" d="M178.322 128.897C178.635 129.299 178.804 129.794 178.804 130.304C178.804 130.813 178.635 131.308 178.322 131.71H172.683C172.373 131.307 172.205 130.812 172.205 130.304C172.205 129.795 172.373 129.3 172.683 128.897H178.322Z" fill="white"/>
</svg>
