<svg width="512" height="581" viewBox="0 0 512 581" fill="none" xmlns="http://www.w3.org/2000/svg">
<path opacity="0.85" d="M509.433 323.132C503.785 370.878 481.988 426.404 438.433 451.962C372.639 490.52 378.143 549.808 249.743 575.587C231.012 579.434 211.918 581.241 192.798 580.974C183.441 580.806 174.105 580.041 164.846 578.684C83.2274 566.764 28.2861 510.027 8.14184 441.539C-18.3789 351.462 34.5715 292.5 69.6678 256.961C104.764 221.422 130.452 110.668 256.51 84.316C275.751 80.2166 295.4 78.352 315.069 78.7594C359.912 79.8655 408.828 94.5833 442.688 125.333C445.222 127.641 447.694 130.031 450.106 132.504C497.135 180.808 517.123 258.028 509.433 323.132Z" fill="#EEF5FF"/>
<path d="M392.719 430.783C392.719 350.52 327.653 285.453 247.389 285.453C167.125 285.453 102.059 350.52 102.059 430.783C102.059 511.047 167.125 576.114 247.389 576.114C327.653 576.114 392.719 511.047 392.719 430.783Z" fill="#4877C1" stroke="#0D1A27" stroke-linecap="round" stroke-linejoin="round"/>
<path d="M218.199 565.241C225.991 566.937 233.915 567.947 241.883 568.26" stroke="#0D1A27" stroke-linecap="round" stroke-linejoin="round"/>
<path d="M200.385 560.075C204.332 561.506 208.34 562.764 212.409 563.848" stroke="#0D1A27" stroke-linecap="round" stroke-linejoin="round"/>
<path d="M115.058 393.143C105.812 425.715 108.895 460.553 123.72 490.994C138.545 521.436 164.07 545.345 195.414 558.149" stroke="#0D1A27" stroke-linecap="round" stroke-linejoin="round"/>
<path d="M133.549 353.57C128.579 360.896 124.326 368.683 120.849 376.824" stroke="#0D1A27" stroke-linecap="round" stroke-linejoin="round"/>
<path d="M227.7 366.232L242.508 369.303L247.557 374.547L254.142 375.562L256.237 381.809L254.702 386.038L250.212 388.094L239.216 386.298L238.917 384.945L244.122 381.314L240.53 374.69L230.693 373.35L225.448 368.861L227.7 366.232Z" fill="white"/>
<path d="M347.094 502.947L335.382 500.969L321.145 499.173L310.735 501.49L300.52 501.633L290.278 506.383L284.292 508.074L280.584 508.894L274.415 514.503L268.273 518.693L257.863 514.984L258.123 505.029L251.877 503.949L245.149 505.446L243.457 502.635L242.794 496.428L239.683 493.591L235.116 495.308L234.517 498.978L228.87 500.579L222.467 495.647L218.654 488.008L221.621 477.454L231.524 475.958L234.751 477.728L238.786 476.83L243.171 472.679L247.843 473.043L256.223 482.152L258.5 481.293L256.106 473.694L253.191 470.102L252.449 463.595L263.706 455.449L262.626 442.618L267.037 437.036L269.64 428.317L272.867 426.899L279.478 420.132L279.217 417.36L273.908 418.895L272.307 416.423L268.599 417.243L263.172 419.845L264.89 414.861L275.925 408.875L277.955 405.258L284.305 411.608L288.014 413.977L292.426 411.582L289.433 407.678L281.247 404.191L271.149 396.903L261.454 392.999L253.074 393.455L248.272 390.293L242.546 390.124L242.169 391.62L243.665 401.536L245.761 404.594L245.123 416.046L237.185 412.142V407.197L229.377 405.401L225.473 402.369L225.278 393.585L233.476 384.346L232.357 376.108L228.726 377.267L225.694 374.768L223.547 369.979L221.114 370.161L220.945 375.809L217.392 377.306L213.137 365.932L210.079 364.852L204.873 363.876L200.085 367.78L208.244 372.686L210.846 378.112L196.701 371.71L186.291 364.488L183.597 355.548L174.241 354.793L168.489 360.662C167.073 362.014 165.587 363.291 164.038 364.488C161.514 365.719 158.905 366.768 156.23 367.624L156.152 373.649L148.475 375.705L149.971 379.258L162.88 378.516L170.844 384.164L173.447 395.953L172.054 407.21L175.191 418.167L169.426 436.762L172.874 461.787L179.042 475.255L185.809 485.067L191.014 484.612L188.126 479.602L184.547 476.153L181.216 469.126L184.091 467.825L191.496 478.899L197.261 488.932L199.2 497.69L207.32 504.014L220.71 509.844L239.267 510.664L245.774 514.568L250.979 519.057L257.863 521.413L265.671 521.79L272.997 519.799C272.997 519.799 273.413 523.248 273.778 524.926C274.142 526.605 270.707 533.385 270.707 533.385L268.507 540.945L272.841 547.751L280.922 549.131L293.753 557.589L298.958 558.565L300.077 563.614L301.183 565.839C326.442 555.794 348.36 538.837 364.427 516.91L364.063 514.425L369.489 495.907L364.44 493.851L347.094 502.947Z" fill="white"/>
<path d="M352.573 362.172L347.445 356.602L341.082 350.239L337.503 340.44L343.789 340.102L343.372 336.666L338.922 337.304L342.253 334.792L345.767 331.539L345.025 328.169L339.82 323.679L337.347 316.626C312.461 297.028 281.856 286.094 250.185 285.485C218.515 284.877 187.512 294.628 161.892 313.256L170.871 317.029L167.513 324.148L161.41 326.906L162.712 336.146L160.252 337.759L157.649 342.21L159.328 348.196L165.21 347.597L164.117 353.843L169.843 352.542L176.844 337.915L176.662 332.294L185.94 329.535L187.397 324.967L196.936 321.792L196.676 315.845L203.664 313.932C203.664 313.932 208.127 310.119 209.129 309.898C211.171 309.88 213.211 310.015 215.232 310.302L221.179 313.23L228.245 311.655L233.451 306.606L241.337 305.565C242.612 306.057 243.986 306.236 245.345 306.085C247.023 305.708 251.552 302.181 251.552 302.181L262.665 306.085L267.376 308.22L268.495 313.269L273.7 312.813L274.715 309.417L279.543 310.458L279.803 313.23L270.291 318.175L277.669 324.304L291.281 328.351L297.787 333.959L305.348 332.983L306.285 329.249L308.823 327.947L298.581 323.159L293.038 323.679L297.111 321.363L291.801 316.535L297.449 314.934L305.765 317.329L309.239 325.032L313.911 328.585L319.116 337.694L327.718 341.429L330.177 352.542L339.052 355.873L339.534 359.647V364.254L342.904 369.863L344.205 372.751L350.152 372.491L351.584 366.167L352.573 362.172Z" fill="white"/>
<path d="M349.41 327.283L349.84 329.222L349.358 334.974L351.414 339.463L355.423 339.997L356.841 346.386L352.43 345.606L355.449 364.006L353.054 372.322L357.843 381.144L363.113 384.216L367.16 402.434L374.669 415.603L381.774 425.337L389.972 425.636L391.17 418.297L392.08 417.204C391.509 411.161 390.566 405.159 389.257 399.233C383.215 371.9 369.374 346.906 349.41 327.283Z" fill="white"/>
<path d="M271.176 342.457L246.776 337.616L237.095 340.128L236.158 347.051L231.135 343.563L224.107 346.895L225.903 358.164L232.93 361.183L235.884 353.818L242.066 357.747L254.519 364.514L258.709 373.832L269.927 383.006L283.551 377.501L282.094 372.53L277.786 367.481L274.117 354.156L276.225 347.688L271.176 342.457Z" fill="white"/>
<path d="M290.995 345.815L285.646 345.593L282.094 350.278L286.622 359.517L290.995 358.541V345.815Z" fill="white"/>
<path d="M323.735 345.268L310.931 341.742L307.677 338.228L305.218 339.842L309.07 346.049L313.026 354.351L318.53 355.249L319.246 353.688L315.082 349.302L324.594 350.734L323.735 345.268Z" fill="white"/>
<path d="M252.411 488.646L251.356 490.299L262.131 491.08L267.219 494.893L273.765 494.151L275.301 489.922L267.258 490.299L252.411 488.646Z" fill="white"/>
<path d="M283.798 488.386L277.175 491.978L278.775 494.45L287.533 492.511L288.613 489.44L285.659 490.455L283.798 488.386Z" fill="white"/>
<path d="M227.7 366.232L242.508 369.303L247.557 374.547L254.142 375.562L256.237 381.809L254.702 386.038L250.212 388.094L239.216 386.298L238.917 384.945L244.122 381.314L240.53 374.69L230.693 373.35L225.448 368.861L227.7 366.232Z" stroke="#0D1A27" stroke-linecap="round" stroke-linejoin="round"/>
<path d="M347.094 502.947L335.382 500.969L321.145 499.173L310.735 501.49L300.52 501.633L290.278 506.383L284.292 508.074L280.584 508.894L274.415 514.503L268.273 518.693L257.863 514.984L258.123 505.029L251.877 503.949L245.149 505.446L243.457 502.635L242.794 496.428L239.683 493.591L235.116 495.308L234.517 498.978L228.87 500.579L222.467 495.647L218.654 488.008L221.621 477.454L231.524 475.958L234.751 477.728L238.786 476.83L243.171 472.679L247.843 473.043L256.223 482.152L258.5 481.293L256.106 473.694L253.191 470.102L252.449 463.595L263.706 455.449L262.626 442.618L267.037 437.036L269.64 428.317L272.867 426.899L279.478 420.132L279.217 417.36L273.908 418.895L272.307 416.423L268.599 417.243L263.172 419.845L264.89 414.861L275.925 408.875L277.955 405.258L284.305 411.608L288.014 413.977L292.426 411.582L289.433 407.678L281.247 404.191L271.149 396.903L261.454 392.999L253.074 393.455L248.272 390.293L242.546 390.124L242.169 391.62L243.665 401.536L245.761 404.594L245.123 416.046L237.185 412.142V407.197L229.377 405.401L225.473 402.369L225.278 393.585L233.476 384.346L232.357 376.108L228.726 377.267L225.694 374.768L223.547 369.979L221.114 370.161L220.945 375.809L217.392 377.306L213.137 365.932L210.079 364.852L204.873 363.876L200.085 367.78L208.244 372.686L210.846 378.112L196.701 371.71L186.291 364.488L183.597 355.548L174.241 354.793L168.489 360.662C167.073 362.014 165.587 363.291 164.038 364.488C161.514 365.719 158.905 366.768 156.23 367.624L156.152 373.649L148.475 375.705L149.971 379.258L162.88 378.516L170.844 384.164L173.447 395.953L172.054 407.21L175.191 418.167L169.426 436.762L172.874 461.787L179.042 475.255L185.809 485.067L191.014 484.612L188.126 479.602L184.547 476.153L181.216 469.126L184.091 467.825L191.496 478.899L197.261 488.932L199.2 497.69L207.32 504.014L220.71 509.844L239.267 510.664L245.774 514.568L250.979 519.057L257.863 521.413L265.671 521.79L272.997 519.799C272.997 519.799 273.413 523.248 273.778 524.926C274.142 526.605 270.707 533.385 270.707 533.385L268.507 540.945L272.841 547.751L280.922 549.131L293.753 557.589L298.958 558.565L300.077 563.614L301.183 565.839C326.442 555.794 348.36 538.837 364.427 516.91L364.063 514.425L369.489 495.907L364.44 493.851L347.094 502.947Z" stroke="#0D1A27" stroke-linecap="round" stroke-linejoin="round"/>
<path d="M352.573 362.172L347.445 356.602L341.082 350.239L337.503 340.44L343.789 340.102L343.372 336.666L338.922 337.304L342.253 334.792L345.767 331.539L345.025 328.169L339.82 323.679L337.347 316.626C312.461 297.028 281.856 286.094 250.185 285.485C218.515 284.877 187.512 294.628 161.892 313.256L170.871 317.029L167.513 324.148L161.41 326.906L162.712 336.146L160.252 337.759L157.649 342.21L159.328 348.196L165.21 347.597L164.117 353.843L169.843 352.542L176.844 337.915L176.662 332.294L185.94 329.535L187.397 324.967L196.936 321.792L196.676 315.845L203.664 313.932C203.664 313.932 208.127 310.119 209.129 309.898C211.171 309.88 213.211 310.015 215.232 310.302L221.179 313.23L228.245 311.655L233.451 306.606L241.337 305.565C242.612 306.057 243.986 306.236 245.345 306.085C247.023 305.708 251.552 302.181 251.552 302.181L262.665 306.085L267.376 308.22L268.495 313.269L273.7 312.813L274.715 309.417L279.543 310.458L279.803 313.23L270.291 318.175L277.669 324.304L291.281 328.351L297.787 333.959L305.348 332.983L306.285 329.249L308.823 327.947L298.581 323.159L293.038 323.679L297.111 321.363L291.801 316.535L297.449 314.934L305.765 317.329L309.239 325.032L313.911 328.585L319.116 337.694L327.718 341.429L330.177 352.542L339.052 355.873L339.534 359.647V364.254L342.904 369.863L344.205 372.751L350.152 372.491L351.584 366.167L352.573 362.172Z" stroke="#0D1A27" stroke-linecap="round" stroke-linejoin="round"/>
<path d="M349.41 327.283L349.84 329.222L349.358 334.974L351.414 339.463L355.423 339.997L356.841 346.386L352.43 345.606L355.449 364.006L353.054 372.322L357.843 381.144L363.113 384.216L367.16 402.434L374.669 415.603L381.774 425.337L389.972 425.636L391.17 418.297L392.08 417.204C391.509 411.161 390.566 405.159 389.257 399.233C383.215 371.9 369.374 346.906 349.41 327.283Z" stroke="#0D1A27" stroke-linecap="round" stroke-linejoin="round"/>
<path d="M271.176 342.457L246.776 337.616L237.095 340.128L236.158 347.051L231.135 343.563L224.107 346.895L225.903 358.164L232.93 361.183L235.884 353.818L242.066 357.747L254.519 364.514L258.709 373.832L269.927 383.006L283.551 377.501L282.094 372.53L277.786 367.481L274.117 354.156L276.225 347.688L271.176 342.457Z" stroke="#0D1A27" stroke-linecap="round" stroke-linejoin="round"/>
<path d="M290.995 345.815L285.646 345.593L282.094 350.278L286.622 359.517L290.995 358.541V345.815Z" stroke="#0D1A27" stroke-linecap="round" stroke-linejoin="round"/>
<path d="M323.735 345.268L310.931 341.742L307.677 338.228L305.218 339.842L309.07 346.049L313.026 354.351L318.53 355.249L319.246 353.688L315.082 349.302L324.594 350.734L323.735 345.268Z" stroke="#0D1A27" stroke-linecap="round" stroke-linejoin="round"/>
<path d="M252.411 488.646L251.356 490.299L262.131 491.08L267.219 494.893L273.765 494.151L275.301 489.922L267.258 490.299L252.411 488.646Z" stroke="#0D1A27" stroke-linecap="round" stroke-linejoin="round"/>
<path d="M283.798 488.386L277.175 491.978L278.775 494.45L287.533 492.511L288.613 489.44L285.659 490.455L283.798 488.386Z" stroke="#0D1A27" stroke-linecap="round" stroke-linejoin="round"/>
<path d="M382.594 332.229C379.949 332.229 377.329 332.751 374.886 333.764C372.443 334.778 370.223 336.263 368.354 338.135C366.486 340.008 365.005 342.23 363.996 344.675C362.987 347.121 362.47 349.741 362.476 352.386C362.476 363.499 382.594 385.921 382.594 385.921C382.594 385.921 402.725 363.499 402.725 352.386C402.729 349.74 402.21 347.12 401.2 344.674C400.19 342.229 398.708 340.007 396.838 338.135C394.968 336.262 392.748 334.777 390.304 333.764C387.86 332.751 385.24 332.229 382.594 332.229ZM382.594 361.209C380.838 361.217 379.119 360.703 377.656 359.732C376.193 358.761 375.051 357.378 374.375 355.757C373.699 354.136 373.521 352.351 373.861 350.628C374.202 348.905 375.047 347.323 376.289 346.081C377.53 344.839 379.113 343.994 380.836 343.654C382.558 343.313 384.343 343.492 385.964 344.167C387.585 344.843 388.969 345.985 389.94 347.448C390.91 348.912 391.424 350.63 391.417 352.386C391.41 354.724 390.478 356.964 388.825 358.617C387.172 360.271 384.932 361.202 382.594 361.209Z" fill="#0D1A27" stroke="#0D1A27" stroke-miterlimit="10"/>
<path d="M226.476 383.878C221.82 383.878 217.355 385.727 214.063 389.02C210.77 392.312 208.921 396.777 208.921 401.433C208.921 411.127 226.476 430.686 226.476 430.686C226.476 430.686 244.03 411.166 244.03 401.433C244.03 396.777 242.181 392.312 238.889 389.02C235.596 385.727 231.131 383.878 226.476 383.878ZM226.476 409.162C224.947 409.162 223.452 408.709 222.181 407.86C220.91 407.01 219.919 405.803 219.334 404.391C218.749 402.978 218.596 401.424 218.894 399.925C219.193 398.425 219.929 397.048 221.01 395.967C222.091 394.886 223.468 394.15 224.968 393.851C226.467 393.553 228.021 393.706 229.434 394.291C230.846 394.876 232.053 395.867 232.903 397.138C233.752 398.409 234.205 399.904 234.205 401.433C234.205 403.483 233.391 405.449 231.941 406.898C230.492 408.348 228.526 409.162 226.476 409.162Z" fill="#0D1A27" stroke="#0D1A27" stroke-miterlimit="10"/>
<path d="M292.856 520.776C290.515 520.776 288.27 521.705 286.613 523.359C284.956 525.013 284.024 527.258 284.021 529.599C284.021 534.479 292.856 544.317 292.856 544.317C292.856 544.317 301.679 534.479 301.679 529.599C301.676 527.26 300.745 525.018 299.091 523.364C297.437 521.71 295.195 520.779 292.856 520.776ZM292.856 533.49C292.084 533.49 291.329 533.261 290.687 532.832C290.046 532.403 289.545 531.793 289.25 531.08C288.954 530.366 288.877 529.581 289.028 528.824C289.178 528.067 289.55 527.371 290.096 526.825C290.642 526.279 291.338 525.907 292.095 525.757C292.852 525.606 293.637 525.684 294.35 525.979C295.064 526.274 295.673 526.775 296.102 527.417C296.531 528.059 296.76 528.814 296.76 529.586C296.76 530.098 296.659 530.606 296.463 531.08C296.267 531.553 295.979 531.984 295.617 532.346C295.254 532.709 294.824 532.996 294.35 533.193C293.877 533.389 293.369 533.49 292.856 533.49Z" fill="#0D1A27" stroke="#0D1A27" stroke-miterlimit="10"/>
<path d="M183.051 439.249C180.71 439.252 178.466 440.185 176.812 441.842C175.158 443.498 174.229 445.744 174.229 448.085C174.229 452.965 183.051 462.803 183.051 462.803C183.051 462.803 191.887 452.965 191.887 448.085C191.887 445.742 190.956 443.494 189.299 441.837C187.642 440.18 185.395 439.249 183.051 439.249ZM183.051 451.976C182.279 451.976 181.524 451.747 180.882 451.318C180.24 450.889 179.74 450.279 179.445 449.566C179.149 448.853 179.072 448.068 179.222 447.31C179.373 446.553 179.745 445.857 180.291 445.311C180.837 444.765 181.532 444.394 182.29 444.243C183.047 444.092 183.832 444.17 184.545 444.465C185.259 444.761 185.868 445.261 186.297 445.903C186.726 446.545 186.955 447.3 186.955 448.072C186.955 449.107 186.544 450.1 185.812 450.832C185.08 451.565 184.087 451.976 183.051 451.976Z" fill="#0D1A27" stroke="#0D1A27" stroke-miterlimit="10"/>
<path d="M214.283 476.414C213.123 476.414 211.975 476.643 210.903 477.087C209.832 477.531 208.859 478.182 208.04 479.003C207.22 479.823 206.57 480.798 206.128 481.87C205.685 482.942 205.458 484.09 205.46 485.25C205.46 490.13 214.283 499.968 214.283 499.968C214.283 499.968 223.119 490.13 223.119 485.25C223.119 482.907 222.188 480.659 220.531 479.002C218.874 477.345 216.626 476.414 214.283 476.414ZM214.283 489.141C213.511 489.141 212.756 488.912 212.114 488.483C211.472 488.054 210.972 487.444 210.676 486.731C210.381 486.018 210.303 485.233 210.454 484.475C210.605 483.718 210.976 483.022 211.522 482.476C212.068 481.93 212.764 481.559 213.521 481.408C214.279 481.257 215.063 481.335 215.777 481.63C216.49 481.926 217.1 482.426 217.529 483.068C217.958 483.71 218.187 484.465 218.187 485.237C218.187 486.272 217.775 487.265 217.043 487.997C216.311 488.73 215.318 489.141 214.283 489.141Z" fill="#0D1A27" stroke="#0D1A27" stroke-miterlimit="10"/>
<path d="M323.97 493.097C322.594 493.097 321.232 493.368 319.961 493.895C318.69 494.421 317.535 495.193 316.562 496.165C315.59 497.138 314.818 498.293 314.292 499.564C313.765 500.835 313.494 502.197 313.494 503.573C313.494 509.351 323.97 521.01 323.97 521.01C323.97 521.01 334.38 509.298 334.38 503.573C334.389 502.2 334.126 500.839 333.606 499.569C333.087 498.298 332.322 497.143 331.354 496.169C330.387 495.196 329.236 494.423 327.969 493.896C326.701 493.369 325.342 493.097 323.97 493.097ZM323.97 508.179C323.055 508.182 322.16 507.913 321.398 507.406C320.637 506.9 320.042 506.178 319.691 505.334C319.34 504.489 319.247 503.559 319.425 502.662C319.603 501.764 320.043 500.94 320.69 500.293C321.337 499.646 322.161 499.206 323.059 499.028C323.956 498.85 324.886 498.943 325.731 499.294C326.575 499.645 327.297 500.24 327.803 501.001C328.31 501.763 328.579 502.658 328.576 503.573C328.576 504.178 328.457 504.777 328.226 505.336C327.994 505.894 327.655 506.402 327.227 506.83C326.799 507.258 326.291 507.597 325.733 507.829C325.174 508.06 324.575 508.179 323.97 508.179Z" fill="#0D1A27" stroke="#0D1A27" stroke-miterlimit="10"/>
<path d="M323.202 292.942C320.738 292.942 318.375 293.921 316.632 295.664C314.89 297.406 313.911 299.769 313.911 302.234C313.911 307.439 323.202 317.732 323.202 317.732C323.202 317.732 332.507 307.322 332.507 302.234C332.503 299.768 331.522 297.405 329.777 295.663C328.033 293.921 325.668 292.942 323.202 292.942ZM323.202 306.333C322.392 306.333 321.599 306.092 320.925 305.642C320.251 305.192 319.726 304.551 319.415 303.802C319.105 303.053 319.024 302.229 319.182 301.434C319.34 300.639 319.731 299.908 320.304 299.335C320.877 298.762 321.608 298.372 322.403 298.213C323.198 298.055 324.022 298.136 324.771 298.447C325.52 298.757 326.16 299.282 326.611 299.956C327.061 300.63 327.302 301.423 327.302 302.234C327.302 303.321 326.87 304.364 326.101 305.132C325.332 305.901 324.29 306.333 323.202 306.333Z" fill="#0D1A27" stroke="#0D1A27" stroke-miterlimit="10"/>
<path d="M164.065 351.085C162.844 351.084 161.634 351.323 160.505 351.789C159.377 352.255 158.351 352.939 157.487 353.802C156.623 354.665 155.937 355.69 155.469 356.818C155.001 357.946 154.761 359.156 154.761 360.377C154.761 365.517 164.065 375.875 164.065 375.875C164.065 375.875 173.356 365.465 173.356 360.377C173.356 357.913 172.378 355.549 170.635 353.807C168.893 352.064 166.529 351.085 164.065 351.085ZM164.065 364.476C163.254 364.479 162.46 364.24 161.784 363.791C161.108 363.343 160.581 362.703 160.269 361.955C159.957 361.206 159.873 360.381 160.03 359.585C160.187 358.789 160.576 358.057 161.149 357.483C161.722 356.908 162.452 356.517 163.248 356.357C164.043 356.198 164.868 356.279 165.618 356.588C166.368 356.898 167.008 357.424 167.459 358.098C167.91 358.772 168.151 359.566 168.151 360.377C168.151 361.462 167.721 362.502 166.955 363.271C166.189 364.039 165.15 364.473 164.065 364.476Z" fill="#0D1A27" stroke="#0D1A27" stroke-miterlimit="10"/>
<path d="M274.377 150.852C274.377 150.852 273.57 224.116 273.57 236.218C273.57 248.32 272.568 260.032 272.568 260.032C272.568 260.032 276.199 262.635 275.587 265.68C274.91 268.261 273.963 270.765 272.764 273.149C271.376 272.836 269.945 272.77 268.534 272.954C267.116 273.358 258.644 277.183 257.226 277.183C255.808 277.183 255.209 278.394 254.806 274.581C254.366 271.168 254.231 267.724 254.402 264.287C254.655 261.221 255.129 258.176 255.821 255.178L247.336 162.551L245.319 252.758C245.319 252.758 245.722 258.21 246.334 259.264C247.136 260.708 247.682 262.28 247.948 263.91C247.948 264.912 246.126 274.399 245.345 274.802C244.564 275.205 242.118 276.624 242.118 276.624C242.118 276.624 240.504 276.22 238.279 273.397C236.054 270.573 230.822 270.794 229.807 271.171L228.792 271.575C228.792 271.575 225.773 267.944 225.162 265.315C224.55 262.687 228.597 262.492 228.389 255.425C228.181 248.359 222.117 188.421 222.117 188.421L220.698 148.08L274.781 146.467L274.377 150.852Z" fill="#0D1A27" stroke="#0D1A27" stroke-miterlimit="10"/>
<path d="M253.191 57.21L231.603 58.6284L230.796 150.852C230.796 150.852 232.41 152.271 245.722 152.466C259.034 152.661 261.871 151.06 261.871 151.06L253.191 57.21Z" fill="white" stroke="#0D1A27" stroke-miterlimit="10"/>
<path d="M251.864 11.7942C251.864 11.7942 257.148 19.2507 257.069 20.3828C256.92 21.4969 256.703 22.6007 256.419 23.6882C256.419 23.6882 262.171 29.6221 261.624 30.1036L258.423 32.8364C258.423 32.8364 258.514 38.393 258.514 39.2518C258.514 40.1107 259.737 42.2709 259.36 43.1558C258.923 44.1216 258.32 45.0027 257.577 45.7584C256.913 46.3179 252.098 46.2269 252.098 46.2269L252.007 53.8655C252.007 53.8655 252.853 58.6804 252.098 60.3721C251.344 62.0638 249.17 63.3911 243.705 63.6774C238.239 63.9637 235.572 62.1028 233.971 60.7755C232.371 59.4482 232.579 47.2679 232.475 45.381C232.371 43.4941 232.292 39.9025 231.251 38.3019C230.21 36.7013 223.444 25.2888 222.298 22.4519C221.153 19.6151 221.062 16.7001 223.235 14.1626C225.409 11.625 228.141 10.4799 228.441 9.06143C228.74 7.643 228.441 6.23759 230.51 5.57393C232.016 5.17791 233.586 5.08065 235.129 5.28764C235.129 5.28764 239.098 0.485801 241.167 1.04536L243.249 1.60493C243.249 1.60493 249.001 0.00431579 252.02 2.55488C255.039 5.10545 255.638 9.15253 251.864 11.7942Z" fill="white" stroke="#0D1A27" stroke-miterlimit="10"/>
<path d="M252.944 25.1325C252.944 26.3297 253.309 27.3057 253.777 27.3057C254.246 27.3057 254.61 26.3297 254.61 25.1325C254.61 23.9353 254.233 22.9463 253.777 22.9463C253.322 22.9463 252.944 23.9223 252.944 25.1325Z" fill="#0D1A27" stroke="#0D1A27" stroke-miterlimit="10"/>
<path d="M228.376 9.06143C228.649 7.643 228.376 6.23759 230.445 5.57393C231.951 5.17791 233.521 5.08065 235.065 5.28764C235.065 5.28764 239.034 0.485801 241.103 1.04536L243.185 1.60493C243.185 1.60493 248.937 0.00431579 251.956 2.55488C254.975 5.10545 255.638 9.15253 251.864 11.7942C251.864 11.7942 241.454 12.9263 242.755 14.8132C244.057 16.7001 244.642 18.2096 243.614 18.7172C242.586 19.2247 237.862 21.6321 238.331 22.7642C238.799 23.8964 239.268 26.9154 238.617 27.1106C237.966 27.3058 238.045 26.9154 236.015 25.4059C233.984 23.8964 231.668 25.0285 231.395 28.0085C231.29 29.093 231.547 30.1816 232.126 31.1044C232.706 32.0273 233.574 32.7324 234.596 33.1096C235.637 33.2918 235.065 37.0136 233.087 38.393C232.633 38.6951 232.143 38.9398 231.629 39.1217C231.517 38.8001 231.373 38.4906 231.2 38.1978C230.159 36.5972 223.392 25.1847 222.247 22.3478C221.101 19.511 221.01 16.596 223.184 14.0585C225.357 11.5209 228.09 10.4799 228.376 9.06143Z" fill="#0D1A27" stroke="#0D1A27" stroke-miterlimit="10"/>
<path d="M257.382 35.7513C257.382 35.7513 253.14 36.506 250.693 33.5" stroke="#0D1A27" stroke-miterlimit="10"/>
<path d="M252.047 46.2264L243.367 43.4937L251.865 52.0693L252.047 46.2264Z" fill="#0D1A27" stroke="#0D1A27" stroke-miterlimit="10"/>
<path d="M254.974 20.3306C254.974 20.3306 251.903 18.6519 250.12 21.1765" stroke="#0D1A27" stroke-miterlimit="10"/>
<path d="M275.093 92.3455C275.093 92.3455 286.87 112.073 287.195 115.886C287.52 119.699 280.988 132.803 279.075 133.233C277.162 133.662 271.748 127.507 271.124 124.956C270.499 122.406 269.523 93.6207 270.642 91.1222C271.761 88.6237 275.093 92.3455 275.093 92.3455Z" fill="#0D1A27" stroke="#0D1A27" stroke-miterlimit="10"/>
<path d="M255.559 56.9888L266.855 57.8477C266.855 57.8477 273.075 56.4033 274.949 56.9888C276.823 57.5744 303.461 67.8418 306.362 69.8718C309.264 71.9019 308.822 79.2673 308.093 82.3123C307.843 83.3746 307.258 84.3281 306.423 85.0314C305.589 85.7346 304.55 86.1501 303.461 86.2163C302.159 86.3594 275.248 84.6287 275.248 84.6287L282.184 155.108L267.714 159.792L257.446 161.094L252.371 73.2422L255.559 56.9888Z" fill="#4877C1" stroke="#0D1A27" stroke-miterlimit="10"/>
<path d="M251.864 52.083L255.56 56.9889C255.56 56.9889 255.989 64.3674 254.987 67.3994C254.28 69.4438 253.409 71.4281 252.385 73.3334L247.752 62.6236C249.739 59.3828 251.132 55.8133 251.864 52.083Z" fill="#4877C1" stroke="#0D1A27" stroke-miterlimit="10"/>
<path d="M233.958 76.0529L235.259 161.406C235.259 161.406 222.533 159.974 218.342 158.218C215.954 157.22 213.618 156.104 211.341 154.873C211.341 154.873 215.48 123.642 215.636 121.143C215.792 118.645 215.792 116.524 215.792 116.524C215.792 116.524 206.409 119.868 202.909 118.762C199.408 117.656 198.927 113.986 199.252 109.366C199.437 106.811 199.463 104.247 199.33 101.689C199.33 100.895 200.28 87.7126 204.106 77.8487C207.932 67.9848 205.616 67.6725 208.322 65.9287C211.029 64.185 230.757 57.1709 230.757 57.1709L232.982 61.7906L233.958 76.0529Z" fill="#4877C1" stroke="#0D1A27" stroke-miterlimit="10"/>
<path d="M218.929 61.9473C218.929 61.9473 221.792 95.6772 218.447 106.816L213.242 106.986C213.568 110.89 215.936 103.954 216.574 82.7943C216.847 73.6851 212.761 64.0164 212.761 64.0164C214.763 63.1751 216.825 62.4835 218.929 61.9473Z" fill="#0D1A27" stroke="#0D1A27" stroke-miterlimit="10"/>
<path d="M232.839 52.6029C232.839 52.6029 234.726 57.3787 235.871 59.8382C237.016 62.2977 237.862 63.8983 237.862 63.8983L233.958 76.0525C232.332 71.5557 231.134 66.9155 230.38 62.1936C229.794 56.689 229.273 57.5349 229.273 57.5349C229.273 57.5349 231.824 51.5879 232.839 52.6029Z" fill="#4877C1" stroke="#0D1A27" stroke-miterlimit="10"/>
<path d="M272.06 36.6885C270.89 36.2887 269.772 35.7514 268.729 35.0878C267.857 34.3721 266.126 31.6133 265.541 31.0408C264.955 30.4682 262.092 31.4702 261.637 30.1038C261.181 28.7374 260.856 27.332 262.574 27.7354C264.272 28.0404 265.99 28.223 267.714 28.282L264.994 19.394H277.474C277.474 19.394 281.091 31.7044 281.091 32.7064C280.99 33.8304 280.798 34.9445 280.519 36.0378C280.519 36.0378 297.592 55.141 301.21 59.9168C304.827 64.6926 309.317 71.2122 309.759 73.6717C310.202 76.1312 308.887 83.939 305.855 84.954C302.823 85.9691 300.064 84.8109 296.889 81.7789C293.714 78.7468 284.149 59.2011 283.72 58.4724C283.291 57.7437 275.912 39.5123 275.47 38.9527C274.401 38.1011 273.26 37.3435 272.06 36.6885Z" fill="white" stroke="#0D1A27" stroke-miterlimit="10"/>
<path d="M265.71 57.9644C265.71 57.9644 269.367 81.8435 273.349 93.6203C277.331 105.397 280.662 112.867 280.662 112.867L278.918 123.277C274.213 114.765 270.222 105.877 266.985 96.7044C261.572 81.4271 258.553 57.561 258.553 57.561L265.71 57.9644Z" fill="#0D1A27" stroke="#0D1A27" stroke-miterlimit="10"/>
<path d="M233.853 80.8421L238.148 118.957L213.657 116.056L207.268 78.0703L233.853 80.8421Z" fill="white" stroke="#0D1A27" stroke-miterlimit="10"/>
<path d="M230.705 81.0374L238.5 118.593L213.827 117.956L203.963 80.7251L230.705 81.0374Z" fill="white" stroke="#0D1A27" stroke-miterlimit="10"/>
<path d="M206.825 102.691C209.512 104.14 212.275 105.443 215.102 106.595C216.377 107.103 217.745 107.337 219.117 107.284C220.489 107.23 221.834 106.889 223.066 106.282C224.459 105.643 225.704 104.722 226.722 103.576C226.722 103.576 227.516 99.2814 228.466 98.6437C229.416 98.0061 231.654 97.5246 232.604 96.0411C233.554 94.5576 234.036 94.7398 234.361 96.1973C234.686 97.6547 234.999 99.2293 234.036 99.867C233.477 100.234 233.081 100.803 232.93 101.455C232.93 101.455 233.086 102.574 234.361 102.092C235.636 101.611 236.43 100.023 237.705 100.505C237.986 100.551 238.251 100.662 238.48 100.831C238.708 100.999 238.894 101.22 239.021 101.474C239.148 101.728 239.213 102.008 239.21 102.292C239.208 102.576 239.138 102.855 239.007 103.107C238.643 103.888 238.207 104.633 237.705 105.332C237.705 105.332 239.293 109.002 238.499 111.384C237.705 113.765 233.723 115.209 231.81 115.366C229.898 115.522 224.497 115.678 224.497 115.678C224.497 115.678 216.689 118.281 211.926 119.66C207.164 121.039 205.719 120.779 203.012 118.71C201.62 117.634 200.596 116.152 200.083 114.469C199.57 112.785 199.594 110.984 200.15 109.314C201.256 105.554 202.531 103.485 206.825 102.691Z" fill="white" stroke="#0D1A27" stroke-miterlimit="10"/>
<path d="M271.552 270.13C271.552 270.13 274.155 276.376 274.779 277.587C276.123 279.759 278 281.55 280.232 282.792C283.264 284.601 286.895 285.811 286.088 287.425C285.281 289.038 281.65 289.442 278.618 289.845C275.586 290.248 268.533 289.038 265.696 289.038C262.859 289.038 256.587 288.036 256.015 286.618C255.442 285.199 256.223 275.114 256.223 275.114C256.223 275.114 260.855 269.922 271.552 270.13Z" fill="white" stroke="#0D1A27" stroke-miterlimit="10"/>
<path d="M256.08 286.67C255.856 285.584 255.781 284.471 255.859 283.365L263.133 285.525C267.583 286.64 272.119 287.38 276.693 287.737C279.852 287.898 283.01 287.406 285.971 286.293C286.12 286.447 286.217 286.644 286.25 286.856C286.282 287.068 286.249 287.285 286.153 287.477C285.347 289.09 281.716 289.494 278.684 289.897C275.652 290.301 268.599 289.091 265.762 289.091C262.925 289.091 256.627 288.088 256.08 286.67Z" fill="white" stroke="#0D1A27" stroke-miterlimit="10"/>
<path d="M242.716 275.609C242.716 275.609 242.117 286.02 241.974 286.774C241.831 287.529 241.089 288.076 239.033 288.323C236.977 288.57 236.079 288.466 234.908 289.039C233.737 289.611 231.225 290.874 224.159 290.874C217.093 290.874 214.881 289.572 215.766 287.061C216.651 284.549 223.418 279.565 225.044 277.587C226.399 275.639 227.546 273.554 228.467 271.367C228.467 271.367 230.484 269.675 234.466 270.521C238.448 271.367 239.476 272.928 239.918 273.631C240.748 274.425 241.691 275.092 242.716 275.609Z" fill="white" stroke="#0D1A27" stroke-miterlimit="10"/>
<path d="M215.74 287.112C215.8 286.945 215.874 286.784 215.961 286.63C216.648 287.362 217.47 287.954 218.382 288.374C220.984 289.675 231.499 288.947 233.854 287.671C236.546 286.486 239.321 285.498 242.157 284.717C242.079 285.836 242.013 286.669 241.974 286.851C241.831 287.554 241.09 288.153 239.033 288.4C236.977 288.647 236.079 288.543 234.908 289.116C233.737 289.688 231.226 290.951 224.159 290.951C217.093 290.951 214.881 289.649 215.74 287.112Z" fill="white" stroke="#0D1A27" stroke-miterlimit="10"/>
<path d="M261.676 21.3852L271.305 20.7476V28.2821L261.676 27.6445C261.22 27.6445 260.843 26.2521 260.843 24.5214C260.843 22.7906 261.285 21.3852 261.676 21.3852Z" fill="white" stroke="#0D1A27" stroke-miterlimit="10"/>
<path d="M259.034 20.6299H262.066C262.145 20.6304 262.222 20.6502 262.292 20.6876C262.361 20.725 262.42 20.7788 262.464 20.8443C262.507 20.9098 262.534 20.985 262.542 21.0633C262.55 21.1416 262.538 21.2207 262.509 21.2935C262.177 22.3361 262.023 23.4271 262.053 24.5208C262.021 25.6103 262.175 26.6973 262.509 27.735C262.538 27.8079 262.55 27.887 262.542 27.9653C262.534 28.0436 262.507 28.1188 262.464 28.1843C262.42 28.2498 262.361 28.3036 262.292 28.341C262.222 28.3783 262.145 28.3982 262.066 28.3987H259.034C258.462 28.3987 257.993 26.6549 257.993 24.4948C257.993 22.3346 258.462 20.6299 259.034 20.6299Z" fill="white" stroke="#0D1A27" stroke-miterlimit="10"/>
<path d="M268.585 19.3936L289.498 18.3525V30.689L268.585 29.6609C267.831 29.6609 267.284 27.3576 267.284 24.5338C267.284 21.7099 267.792 19.3936 268.585 19.3936Z" fill="white" stroke="#0D1A27" stroke-miterlimit="10"/>
<path d="M287.858 24.5207C287.858 27.9172 288.6 30.689 289.498 30.689C290.396 30.689 291.138 27.9172 291.138 24.5207C291.138 21.1243 290.409 18.3525 289.498 18.3525C288.587 18.3525 287.858 21.1113 287.858 24.5207Z" fill="white" stroke="#0D1A27" stroke-miterlimit="10"/>
<path d="M258.019 21.3852L267.649 20.7476V28.2821L258.019 27.6445C257.564 27.6445 257.187 26.2521 257.187 24.5214C257.187 22.7906 257.564 21.3852 258.019 21.3852Z" fill="#0D1A27" stroke="#0D1A27" stroke-miterlimit="10"/>
<path d="M255.377 20.6299H258.409C258.488 20.6304 258.565 20.6502 258.634 20.6876C258.704 20.725 258.763 20.7788 258.806 20.8443C258.85 20.9098 258.877 20.985 258.885 21.0633C258.893 21.1416 258.881 21.2207 258.851 21.2935C258.525 22.337 258.375 23.4279 258.409 24.5208C258.374 25.6095 258.524 26.6963 258.851 27.735C258.881 27.8079 258.893 27.887 258.885 27.9653C258.877 28.0436 258.85 28.1188 258.806 28.1843C258.763 28.2498 258.704 28.3036 258.634 28.341C258.565 28.3783 258.488 28.3982 258.409 28.3987H255.377C254.804 28.3987 254.336 26.6549 254.336 24.4948C254.336 22.3346 254.778 20.6299 255.377 20.6299Z" fill="white" stroke="#0D1A27" stroke-miterlimit="10"/>
<path d="M264.929 19.3936L285.841 18.3525V30.689L264.929 29.6609C264.187 29.6609 263.628 27.3576 263.628 24.5338C263.628 21.7099 264.187 19.3936 264.929 19.3936Z" fill="#0D1A27" stroke="#0D1A27" stroke-miterlimit="10"/>
<path d="M284.202 24.5207C284.202 27.9172 284.944 30.689 285.842 30.689C286.74 30.689 287.481 27.9172 287.481 24.5207C287.481 21.1243 286.753 18.3525 285.842 18.3525C284.931 18.3525 284.202 21.1113 284.202 24.5207Z" fill="white" stroke="#0D1A27" stroke-miterlimit="10"/>
<path d="M277.057 18.6524C277.057 18.6524 274.363 15.7505 273.361 15.7505C272.359 15.7505 270.759 18.3531 270.472 18.6524C270.186 18.9517 270.368 19.4462 271.461 19.5503C272.293 19.5231 273.097 19.2415 273.765 18.7435L277.057 18.6524Z" fill="white" stroke="#0D1A27" stroke-miterlimit="10"/>
<path d="M273.362 15.7505C271.992 15.3976 270.586 15.1968 269.172 15.1519C268.365 15.3471 266.869 18.7435 267.168 19.251C267.467 19.7585 270.473 18.6524 270.473 18.6524C270.473 18.6524 272.464 15.6464 273.362 15.7505Z" fill="white" stroke="#0D1A27" stroke-miterlimit="10"/>
<path d="M268.469 15.4511C268.469 15.4511 266.869 14.4491 266.075 15.1518C265.281 15.8545 263.576 18.2489 263.98 19.1468C264.383 20.0447 267.168 19.251 267.168 19.251C267.168 19.251 267.793 15.7504 268.469 15.4511Z" fill="white" stroke="#0D1A27" stroke-miterlimit="10"/>
<path d="M265.281 15.7503C265.281 15.7503 263.277 14.9565 262.574 15.7503C261.871 16.5441 260.089 19.0426 261.273 19.6542C262.457 20.2658 263.667 18.457 263.667 18.457L265.281 15.7503Z" fill="white" stroke="#0D1A27" stroke-miterlimit="10"/>
</svg>
