<svg width="20" height="20" viewBox="0 0 20 20" fill="none" xmlns="http://www.w3.org/2000/svg">
<path d="M3.14834 9.95167C2.35834 8.575 1.97667 7.45 1.74667 6.31C1.40667 4.62333 2.18501 2.97583 3.47417 1.92417C4.01917 1.48 4.64417 1.6325 4.96667 2.21L5.69417 3.51583C6.27084 4.55083 6.55917 5.0675 6.50251 5.61583C6.44501 6.165 6.05584 6.61167 5.27834 7.505L3.14834 9.95167ZM3.14834 9.95167C4.74751 12.74 7.25667 15.2517 10.0483 16.8517M10.0483 16.8517C11.4258 17.6417 12.55 18.0233 13.69 18.2533C15.3767 18.5933 17.0242 17.815 18.075 16.5258C18.52 15.9808 18.3675 15.3558 17.79 15.0333L16.4842 14.3058C15.4492 13.7292 14.9325 13.4408 14.3842 13.4975C13.835 13.555 13.3883 13.9442 12.495 14.7217L10.0483 16.8517Z" stroke="#0D1A27" stroke-width="1.4" strokeLinecap="round" strokeLinejoin="round"/>
</svg>
