<svg width="101" height="100" viewBox="0 0 101 100" fill="none" xmlns="http://www.w3.org/2000/svg">
<path fill-rule="evenodd" clip-rule="evenodd" d="M83.255 65.265C72.19 87.008 50.25 100 50.25 100C50.25 100 28.31 87.008 17.245 65.265C5.816 42.806 5.25 15.784 5.25 15.784L50.25 0L95.25 15.784C95.25 15.784 94.684 42.806 83.255 65.265Z" fill="#ECF0F1"/>
<path fill-rule="evenodd" clip-rule="evenodd" d="M50.24 86.9999C43.784 82.1999 32.542 72.5679 25.999 59.6579C19.327 46.4919 16.744 31.2349 15.756 22.2779L50.25 10.1289L84.744 22.2779C83.757 31.2279 81.175 46.4879 74.501 59.6569C67.991 72.5049 56.698 82.1839 50.24 86.9999Z" fill="#E64C3C"/>
<path fill-rule="evenodd" clip-rule="evenodd" d="M63.039 46.041C65.983 43.057 65.981 38.222 63.039 35.238C62.3287 34.5147 61.4785 33.9434 60.5404 33.559C59.6023 33.1746 58.5957 32.9851 57.582 33.002C54.825 33.049 50.278 36.748 50.278 36.748C50.278 36.748 45.603 32.997 42.778 33.001C41.7878 33.0029 40.8077 33.2016 39.8949 33.5857C38.9821 33.9697 38.1548 34.5314 37.461 35.238C34.519 38.222 34.517 43.057 37.461 46.041L50.25 59L63.039 46.041Z" fill="white"/>
<path opacity="0.08" fill-rule="evenodd" clip-rule="evenodd" d="M50.25 0L5.25 15.784C5.25 15.784 5.816 42.806 17.245 65.265C28.31 87.008 50.25 100 50.25 100V0Z" fill="black"/>
</svg>
