<svg width="14" height="13" viewBox="0 0 14 13" fill="none" xmlns="http://www.w3.org/2000/svg">
<path d="M6.11378 0.809778C6.37838 0.0485517 7.45493 0.0485525 7.71953 0.809779L8.72093 3.69065C8.83765 4.02646 9.15104 4.25415 9.50649 4.26139L12.5558 4.32353C13.3615 4.33995 13.6942 5.36382 13.052 5.8507L10.6216 7.69332C10.3383 7.9081 10.2186 8.27651 10.3215 8.6168L11.2047 11.5361C11.4381 12.3074 10.5671 12.9402 9.90563 12.4799L7.40216 10.7378C7.11034 10.5348 6.72297 10.5348 6.43115 10.7378L3.92768 12.4799C3.26617 12.9402 2.39522 12.3074 2.62859 11.5361L3.51179 8.6168C3.61474 8.27651 3.49503 7.9081 3.21173 7.69332L0.781303 5.8507C0.1391 5.36382 0.471774 4.33995 1.27751 4.32353L4.32683 4.26139C4.68227 4.25415 4.99566 4.02646 5.11239 3.69065L6.11378 0.809778Z" fill="#F1A018"/>
</svg>
