<svg width="24" height="24" viewBox="0 0 24 24" fill="none" xmlns="http://www.w3.org/2000/svg">
<g clip-path="url(#clip0_84_3367)">
<path d="M24 18C24 18.7072 23.719 19.3855 23.219 19.8856C22.7189 20.3857 22.0406 20.6667 21.3333 20.6667H2.66667C1.95942 20.6667 1.28115 20.3857 0.781049 19.8856C0.280952 19.3855 0 18.7072 0 18V6C0 5.29275 0.280952 4.61448 0.781049 4.11438C1.28115 3.61428 1.95942 3.33333 2.66667 3.33333H21.3333C22.0406 3.33333 22.7189 3.61428 23.219 4.11438C23.719 4.61448 24 5.29275 24 6V18Z" fill="#E8112D"/>
<path d="M12.3153 7.99067C12.3246 7.294 12.9419 6.81467 12.9679 5.88667C13.4099 6.44267 12.6793 7.48467 12.9386 8.08933C13.0573 7.40333 13.7406 7.026 13.9126 6.114C14.2626 6.73267 13.3773 7.64733 13.5386 8.28467C13.7626 7.62467 14.4973 7.36 14.8093 6.48533C15.0579 7.15133 14.0413 7.916 14.1013 8.57067C14.4253 7.95467 15.1926 7.808 15.6379 6.99267C15.7799 7.68933 14.6546 8.28533 14.6119 8.942C15.0286 8.384 15.8099 8.35867 16.3766 7.62333C16.4079 8.334 15.2033 8.746 15.0586 9.388C15.5573 8.902 16.3319 8.99933 17.0066 8.36133C16.9273 9.068 15.6733 9.28733 15.4286 9.89867C15.9979 9.49667 16.7486 9.714 17.5146 9.19C17.3259 9.87533 16.0526 9.896 15.7166 10.4613C16.3406 10.1533 17.0473 10.4853 17.8873 10.0873C17.5933 10.734 16.3313 10.5553 15.9106 11.0613C16.5759 10.8547 17.2233 11.294 18.1139 11.032C17.7206 11.6253 16.5046 11.2507 16.0099 11.6847C16.6986 11.5847 17.2693 12.1187 18.1893 12C17.7099 12.5247 16.5659 11.9647 16.0099 12.3153C16.7066 12.3247 17.1859 12.9427 18.1126 12.9673C17.5566 13.4113 16.5153 12.678 15.9106 12.9387C16.5979 13.0573 16.9746 13.7407 17.8873 13.9127C17.2686 14.2627 16.3533 13.3773 15.7153 13.5387C16.3753 13.7627 16.6413 14.4973 17.5146 14.8093C16.8493 15.0593 16.0853 14.0413 15.4286 14.1013C16.0459 14.4253 16.1933 15.1927 17.0066 15.638C16.3099 15.78 15.7146 14.6547 15.0573 14.612C15.6159 15.0287 15.6406 15.81 16.3766 16.3767C15.6666 16.408 15.2526 15.2033 14.6119 15.0587C15.0979 15.5573 14.9999 16.332 15.6379 17.0067C14.9306 16.9273 14.7119 15.6733 14.1013 15.4287C14.5026 15.998 14.2846 16.7487 14.8093 17.5147C14.1233 17.326 14.1033 16.0527 13.5386 15.7167C13.8473 16.3407 13.5139 17.0473 13.9126 17.8873C13.2653 17.5933 13.4439 16.3313 12.9386 15.9107C13.1446 16.576 12.7066 17.2233 12.9679 18.114C12.3746 17.7207 12.7493 16.5047 12.3153 16.01C12.4153 16.6987 11.8813 17.2693 11.9999 18.1893C11.4753 17.71 12.0353 16.566 11.6846 16.01C11.6753 16.7067 11.0579 17.186 11.0319 18.1127C10.5886 17.558 11.3206 16.5153 11.0606 15.9107C10.9426 16.598 10.2586 16.9747 10.0873 17.8873C9.73728 17.2687 10.6226 16.3533 10.4606 15.7167C10.2366 16.3753 9.50195 16.6413 9.18995 17.5147C8.94061 16.8493 9.95861 16.0853 9.89861 15.4287C9.57395 16.046 8.80661 16.1933 8.36195 17.0067C8.21995 16.31 9.34528 15.7147 9.38795 15.0587C8.97128 15.616 8.19061 15.6407 7.62395 16.3767C7.59195 15.6667 8.79728 15.2527 8.94195 14.612C8.44328 15.098 7.66795 15 6.99328 15.638C7.07328 14.9307 8.32795 14.712 8.57128 14.1013C8.00261 14.5027 7.25195 14.2847 6.48595 14.8093C6.67528 14.1233 7.94861 14.1033 8.28461 13.5387C7.65995 13.8473 6.95328 13.5153 6.11395 13.9127C6.40861 13.2653 7.66928 13.444 8.08995 12.9387C7.42461 13.1447 6.77861 12.7067 5.88728 12.9673C6.27928 12.3753 7.49661 12.7487 7.99061 12.3153C7.30128 12.4153 6.73195 11.8807 5.81128 12C6.29128 11.476 7.43461 12.0353 7.99061 11.6847C7.29461 11.6753 6.81528 11.058 5.88728 11.032C6.44328 10.5887 7.48528 11.3207 8.08995 11.0607C7.40328 10.9427 7.02661 10.2587 6.11461 10.0873C6.73328 9.73667 7.64795 10.6227 8.28528 10.4607C7.62528 10.2367 7.36061 9.502 6.48595 9.19C7.15195 8.94067 7.91661 9.95867 8.57128 9.89867C7.95461 9.574 7.80861 8.80667 6.99328 8.362C7.68995 8.22 8.28595 9.34533 8.94261 9.388C8.38461 8.97133 8.35928 8.19067 7.62395 7.624C8.33395 7.59267 8.74661 8.79733 9.38861 8.942C8.90261 8.44333 8.99995 7.668 8.36195 6.99333C9.06795 7.07333 9.28795 8.328 9.89928 8.57133C9.49661 8.00267 9.71461 7.25267 9.19061 6.486C9.87595 6.67533 9.89661 7.94867 10.4619 8.28467C10.1539 7.66 10.4859 6.95333 10.0879 6.11467C10.7346 6.40867 10.5559 7.66933 11.0619 8.09C10.8553 7.42467 11.2946 6.77867 11.0326 5.88733C11.6259 6.27933 11.2513 7.49667 11.6853 7.99067C11.5846 7.30133 12.1193 6.732 12.0006 5.81133C12.5246 6.29067 11.9646 7.43467 12.3153 7.99067Z" fill="#FFCC4D"/>
<path d="M12.0007 15.2707C12.4302 15.2706 12.8555 15.1859 13.2523 15.0214C13.6491 14.857 14.0096 14.616 14.3132 14.3122C14.6169 14.0085 14.8577 13.6479 15.022 13.251C15.1863 12.8542 15.2708 12.4288 15.2707 11.9993C15.2706 11.5698 15.1859 11.1445 15.0215 10.7478C14.857 10.351 14.616 9.99046 14.3123 9.68682C14.0085 9.38317 13.6479 9.14233 13.2511 8.97804C12.8542 8.81376 12.4289 8.72924 11.9994 8.72933C11.1319 8.72951 10.3001 9.07427 9.68685 9.68776C9.07361 10.3013 8.72919 11.1332 8.72937 12.0007C8.72955 12.8681 9.0743 13.6999 9.6878 14.3132C10.3013 14.9264 11.1333 15.2708 12.0007 15.2707Z" fill="#E8112D"/>
<path d="M12 8.96733C12.8347 8.96733 13.5847 9.32467 14.1067 9.896C13.2873 9.97867 12.5927 10.172 12 10.466C11.4073 10.172 10.712 9.97867 9.89402 9.896C10.1608 9.6028 10.486 9.3687 10.8487 9.20875C11.2114 9.04881 11.6036 8.96658 12 8.96733ZM11.7847 10.582C11.7193 10.6184 11.6549 10.6565 11.5913 10.696C11.06 10.414 10.4233 10.232 9.66668 10.178C9.70129 10.1292 9.73754 10.0817 9.77535 10.0353C10.5613 10.1053 11.2247 10.2933 11.7847 10.582ZM12.2173 10.582C12.2831 10.6189 12.3473 10.6569 12.41 10.696C12.942 10.414 13.578 10.232 14.3347 10.178C14.3003 10.1292 14.2643 10.0817 14.2267 10.0353C13.44 10.1053 12.7773 10.2933 12.2173 10.582ZM9.57135 10.3247C9.54107 10.3737 9.51239 10.4237 9.48535 10.4747C10.1893 10.4907 10.78 10.6533 11.2653 10.9213C11.316 10.883 11.3676 10.8459 11.42 10.81C10.9133 10.5333 10.3007 10.3607 9.57135 10.3247ZM9.48468 13.1633C9.23935 12.7413 9.14868 12.342 9.14868 11.8193C9.14868 11.3927 9.24068 10.99 9.40735 10.628C10.0887 10.6233 10.6587 10.772 11.124 11.0307C10.4353 11.5953 9.87602 12.2567 9.48468 13.1633ZM10.838 14.422C10.71 14.3727 10.5707 14.2333 10.452 14.1667C10.5193 13.0953 11.0207 12.214 11.7193 11.4727C11.7713 11.5229 11.8213 11.5747 11.8693 11.628C11.22 12.3873 10.8027 13.3727 10.838 14.422ZM14.4307 10.3247C14.4605 10.3736 14.4891 10.4236 14.5167 10.4747C13.812 10.4907 13.2213 10.6533 12.7367 10.9213C12.6858 10.883 12.634 10.8459 12.5813 10.81C13.0887 10.5333 13.7007 10.3607 14.4307 10.3247Z" fill="#FFCC4D"/>
<path d="M14.5167 13.164C14.7613 12.742 14.8527 12.342 14.8527 11.8193C14.8527 11.3927 14.76 10.99 14.5933 10.628C13.9127 10.6233 13.342 10.772 12.8767 11.0307C13.5667 11.5953 14.1267 12.2573 14.5167 13.164ZM12.0007 11.872C12.512 12.6947 12.61 13.5947 12.582 14.6113C12.36 14.666 12.24 14.6713 12.0007 14.6713C11.7613 14.6713 11.6413 14.666 11.4193 14.6113C11.3913 13.6467 11.4893 12.726 12.0007 11.872ZM13.16 14.422C13.2873 14.3727 13.4307 14.2747 13.5493 14.2087C13.482 13.1373 12.98 12.214 12.2813 11.4733C12.2299 11.5235 12.1801 11.5753 12.132 11.6287C12.7827 12.3873 13.1953 13.3727 13.16 14.422ZM11.5493 11.3207C11.4865 11.2684 11.4213 11.219 11.354 11.1727C10.6307 11.814 10.0933 12.5593 9.79199 13.5693C9.90333 13.6967 9.90133 13.7907 10.0333 13.896C10.22 12.834 10.8247 12.0213 11.5493 11.3207ZM12.4527 11.3207C12.5133 11.2707 12.582 11.218 12.648 11.1727C13.3713 11.814 13.9067 12.5727 14.2087 13.5833C14.0967 13.7107 14.0807 13.7913 13.9473 13.8967C13.7613 12.834 13.1773 12.0213 12.4527 11.3207ZM12.0007 10.7027C12.0367 10.724 12.16 10.8013 12.1913 10.822C12.1427 10.852 12.0313 10.9273 12.0007 10.948C11.9381 10.9044 11.8746 10.8624 11.81 10.822C11.8413 10.8013 11.9647 10.7233 12.0007 10.7027ZM11.64 10.9407C11.5913 10.9773 11.5173 11.034 11.4893 11.058C11.5593 11.104 11.6533 11.1753 11.6833 11.1987C11.72 11.1673 11.792 11.1033 11.8327 11.074C11.7704 11.0268 11.7061 10.9823 11.64 10.9407ZM12.3613 10.9407C12.41 10.9773 12.484 11.034 12.512 11.058C12.4459 11.1029 12.3812 11.1498 12.318 11.1987C12.282 11.1673 12.2093 11.1033 12.1687 11.074C12.2187 11.0373 12.324 10.9613 12.3613 10.9407ZM12.0007 11.2067C12.032 11.2333 12.1247 11.3153 12.1493 11.34C12.0973 11.3854 12.0477 11.4335 12.0007 11.484C11.9538 11.4335 11.9044 11.3854 11.8527 11.34C11.8767 11.3153 11.97 11.234 12.0007 11.2067Z" fill="#FFCC4D"/>
</g>
<defs>
<clipPath id="clip0_84_3367">
<rect width="24" height="24" fill="white"/>
</clipPath>
</defs>
</svg>
