<svg width="245" height="38" viewBox="0 0 245 38" fill="none" xmlns="http://www.w3.org/2000/svg">
<path d="M8.45269 9.90389C9.66695 5.36726 13.0894 0.355486 18.2523 0.253539C21.9024 0.140669 24.9863 2.87321 26.6775 5.82602C28.3578 8.70237 29.177 11.9446 29.4683 15.2142C29.9343 21.6806 28.4761 28.5383 24.2526 33.6156C21.7804 36.6267 17.5787 38.8094 13.6629 37.211C9.39752 35.4525 7.42412 30.6191 7.0218 26.3355C7.56066 27.77 8.20693 29.1445 8.98609 30.4006C13.1623 37.1455 19.0351 36.512 22.7962 29.8181C25.5087 24.8627 26.3079 18.9426 25.567 13.3774C23.6264 0.925295 14.9755 -1.20102 8.45269 9.90389Z" fill="#67CDE2"/>
<path d="M30.1455 15.5929C33.466 18.9134 36.0948 24.384 33.6026 28.906C31.8731 32.1228 27.9664 33.4281 24.5621 33.4154C21.2324 33.4336 18.0138 32.5215 15.0373 31.1379C9.20452 28.3089 3.99432 23.6157 1.70962 17.4225C0.336983 13.7742 0.549978 9.04463 3.89055 6.45227C7.54607 3.63781 12.7199 4.34416 16.6303 6.13733C15.1174 5.88792 13.6046 5.76049 12.1264 5.80782C4.19821 6.05176 1.80975 11.4531 5.72742 18.0578C8.66202 22.8857 13.388 26.5376 18.5782 28.6785C30.333 33.2242 36.4989 26.7943 30.1455 15.5929Z" fill="#F1A018"/>
<path d="M14.3565 31.5312C9.8162 32.7418 3.76676 32.2757 1.10158 27.852C-0.815382 24.7426 0.0129357 20.7084 1.72965 17.7684C3.38264 14.8793 5.78385 12.5509 8.47269 10.6667C13.8431 7.03846 20.5151 4.8812 27.0215 6.00625C30.8664 6.64706 34.8532 9.20119 35.4212 13.3901C36.0256 17.965 32.8216 22.0883 29.3099 24.5733C30.2856 23.39 31.1522 22.143 31.8531 20.8413C35.6142 13.858 32.1371 9.08468 24.4583 9.16478C18.8094 9.28493 13.2806 11.546 8.82586 14.9648C-0.997428 22.8584 1.4766 31.4165 14.3565 31.5312Z" fill="#83CD29"/>
<path d="M54.7893 19.1537L52.3371 13.0278L49.9214 19.1537H54.7893ZM63.6951 26.0097H54.4634V25.0776C54.8931 25.0466 55.3973 24.9683 55.9781 24.8446C56.557 24.7208 56.8464 24.5678 56.8464 24.3858C56.8464 24.3221 56.841 24.2493 56.8301 24.171C56.8173 24.0909 56.7827 23.9835 56.7281 23.8469L55.2827 20.3352H49.4316C49.2969 20.6629 49.1477 21.0452 48.9856 21.4821C48.8236 21.9209 48.6834 22.3104 48.5651 22.6527C48.414 23.0987 48.3248 23.4209 48.2975 23.6194C48.2684 23.8196 48.2556 23.9598 48.2556 24.0381C48.2556 24.2929 48.4486 24.5096 48.8345 24.6898C49.2205 24.8682 49.8631 24.9975 50.7606 25.0776V26.0097H43.81V25.0776C44.0722 25.0612 44.3689 25.0193 44.7002 24.952C45.0297 24.8846 45.2901 24.7918 45.4812 24.6716C45.8089 24.4805 46.0856 24.2456 46.3132 23.9671C46.5389 23.6885 46.7282 23.3572 46.8793 22.9749C47.8023 20.7376 48.7289 18.4965 49.6556 16.2519C50.584 14.0054 51.6089 11.5296 52.7322 8.82253H55.1206C56.6808 12.6601 57.9041 15.693 58.7871 17.9231C59.6718 20.1532 60.4237 21.9991 61.0445 23.4646C61.1482 23.7049 61.2793 23.9216 61.4395 24.1164C61.5979 24.3112 61.8255 24.4968 62.1204 24.6716C62.3425 24.799 62.601 24.8937 62.8959 24.9574C63.1908 25.023 63.4566 25.0612 63.6951 25.0776V26.0097Z" fill="#0D1A27"/>
<path d="M79.6042 13.9108H78.6721C78.4264 13.1862 78.0313 12.4089 77.487 11.5824C76.9427 10.7541 76.4402 10.308 75.9797 10.2443C75.7266 10.2116 75.4117 10.1842 75.0385 10.1606C74.6653 10.1351 74.343 10.1242 74.0736 10.1242H73.5129V23.4173C73.5129 23.7049 73.5657 23.958 73.6695 24.1764C73.7714 24.3949 73.9753 24.5678 74.2775 24.6953C74.4614 24.7681 74.7454 24.8409 75.1313 24.9155C75.5173 24.992 75.8468 25.0466 76.118 25.0776V26.0097H66.6697V25.0776C66.9009 25.0539 67.225 25.0193 67.6437 24.9756C68.0606 24.9319 68.3464 24.8791 68.4975 24.8154C68.807 24.688 69.0145 24.5169 69.1183 24.302C69.222 24.0854 69.273 23.8305 69.273 23.5374V10.1242H68.7141C68.4429 10.1242 68.1207 10.1351 67.7493 10.1606C67.3743 10.1842 67.0611 10.2116 66.8063 10.2443C66.3457 10.308 65.8432 10.7541 65.2989 11.5824C64.7564 12.4089 64.3596 13.1862 64.1138 13.9108H63.1817V9.06101H79.6042V13.9108Z" fill="#0D1A27"/>
<path d="M96.5292 20.5755L96.1943 26.0097H80.5837V25.0776C80.8622 25.0539 81.1881 25.0157 81.5631 24.9647C81.9381 24.9119 82.1857 24.8628 82.304 24.8154C82.5917 24.7026 82.7901 24.5478 82.9011 24.3494C83.0122 24.1509 83.0686 23.8943 83.0686 23.5848V11.6297C83.0686 11.3421 83.0249 11.1054 82.9375 10.9179C82.8483 10.7322 82.639 10.5629 82.304 10.41C82.0564 10.2989 81.7615 10.2097 81.4138 10.1424C81.0679 10.075 80.7912 10.024 80.5837 9.9931V9.06101H89.8881V9.9931C89.6333 10.0168 89.3329 10.0514 88.987 10.095C88.6393 10.1387 88.3389 10.2006 88.084 10.2789C87.7745 10.3827 87.567 10.5447 87.4632 10.7632C87.3595 10.9816 87.3085 11.231 87.3085 11.5096V22.6527C87.3085 23.1788 87.3431 23.5921 87.4159 23.8943C87.4869 24.1983 87.6271 24.4204 87.8346 24.5642C88.0403 24.7153 88.3298 24.8136 88.6994 24.8573C89.0689 24.901 89.5823 24.9228 90.234 24.9228C90.8712 24.9228 91.4901 24.8846 92.0909 24.8081C92.6935 24.7335 93.1249 24.5678 93.3871 24.313C93.793 23.907 94.2099 23.3354 94.6359 22.5999C95.0619 21.8626 95.4023 21.1872 95.6572 20.5755H96.5292Z" fill="#0D1A27"/>
<path d="M106.84 19.1537L104.388 13.0278L101.971 19.1537H106.84ZM115.746 26.0097H106.515V25.0776C106.942 25.0466 107.448 24.9683 108.027 24.8446C108.608 24.7208 108.898 24.5678 108.898 24.3858C108.898 24.3221 108.892 24.2493 108.879 24.171C108.868 24.0909 108.834 23.9835 108.777 23.8469L107.332 20.3352H101.481C101.346 20.6629 101.199 21.0452 101.035 21.4821C100.873 21.9209 100.733 22.3104 100.614 22.6527C100.463 23.0987 100.374 23.4209 100.347 23.6194C100.319 23.8196 100.305 23.9598 100.305 24.0381C100.305 24.2929 100.498 24.5096 100.884 24.6898C101.27 24.8682 101.912 24.9975 102.812 25.0776V26.0097H95.8593V25.0776C96.1233 25.0612 96.42 25.0193 96.7495 24.952C97.0808 24.8846 97.3412 24.7918 97.5323 24.6716C97.8582 24.4805 98.1349 24.2456 98.3624 23.9671C98.5882 23.6885 98.7775 23.3572 98.9286 22.9749C99.8534 20.7376 100.778 18.4965 101.707 16.2519C102.633 14.0054 103.66 11.5296 104.781 8.82253H107.17C108.732 12.6601 109.953 15.693 110.836 17.9231C111.721 20.1532 112.473 21.9991 113.094 23.4646C113.198 23.7049 113.33 23.9216 113.489 24.1164C113.647 24.3112 113.875 24.4968 114.17 24.6716C114.392 24.799 114.652 24.8937 114.947 24.9574C115.24 25.023 115.508 25.0612 115.746 25.0776V26.0097Z" fill="#0D1A27"/>
<path d="M123.008 26.4739C121.972 26.4739 121.007 26.3464 120.112 26.0861C119.216 25.8276 118.457 25.5236 117.836 25.1722L117.013 26.0097H115.997L115.841 19.8819H116.869C117.099 20.4645 117.394 21.0798 117.752 21.7261C118.111 22.3723 118.524 22.9513 118.996 23.461C119.48 23.9962 120.024 24.4313 120.625 24.7663C121.226 25.1012 121.928 25.2687 122.733 25.2687C123.816 25.2687 124.646 25.0048 125.224 24.4732C125.801 23.9434 126.09 23.2771 126.09 22.4706C126.09 21.8098 125.844 21.2546 125.355 20.8031C124.865 20.3534 124.106 19.9639 123.079 19.6362C122.411 19.4213 121.796 19.2211 121.233 19.0372C120.672 18.8534 120.144 18.6659 119.651 18.4729C118.513 18.0178 117.667 17.3679 117.113 16.5231C116.56 15.6784 116.283 14.7336 116.283 13.6887C116.283 13.0278 116.427 12.3925 116.713 11.7826C117 11.1728 117.419 10.6248 117.967 10.1369C118.493 9.68362 119.167 9.31406 119.986 9.02642C120.805 8.73879 121.697 8.59497 122.662 8.59497C123.601 8.59497 124.481 8.72605 125.302 8.99001C126.121 9.25216 126.765 9.51431 127.235 9.77828L127.965 9.06101H129.003L129.099 14.841H128.073C127.832 14.2184 127.552 13.5831 127.23 12.9313C126.907 12.2814 126.567 11.7408 126.208 11.3093C125.819 10.8469 125.367 10.4792 124.859 10.2025C124.35 9.92756 123.753 9.7892 123.068 9.7892C122.207 9.7892 121.504 10.0331 120.96 10.5192C120.414 11.0071 120.141 11.6079 120.141 12.3269C120.141 13.0042 120.377 13.5576 120.853 13.989C121.326 14.4205 122.065 14.7973 123.068 15.125C123.656 15.3253 124.259 15.5237 124.87 15.724C125.484 15.9224 126.03 16.1135 126.507 16.2974C127.661 16.7434 128.54 17.3606 129.141 18.1452C129.742 18.9316 130.042 19.9056 130.042 21.0689C130.042 21.8025 129.871 22.5125 129.529 23.1988C129.187 23.8833 128.724 24.4531 128.144 24.9083C127.506 25.4107 126.771 25.7985 125.934 26.0679C125.098 26.3392 124.122 26.4739 123.008 26.4739Z" fill="#0D1A27"/>
<path d="M153.738 13.9108H152.807C152.562 13.1862 152.165 12.4089 151.62 11.5824C151.076 10.7541 150.574 10.308 150.115 10.2443C149.86 10.2116 149.545 10.1842 149.172 10.1606C148.799 10.1351 148.476 10.1242 148.207 10.1242H147.648V23.4173C147.648 23.7049 147.699 23.958 147.803 24.1764C147.905 24.3949 148.109 24.5678 148.411 24.6953C148.595 24.7681 148.879 24.8409 149.265 24.9155C149.651 24.992 149.98 25.0466 150.251 25.0776V26.0097H140.803V25.0776C141.034 25.0539 141.358 25.0193 141.777 24.9756C142.194 24.9319 142.48 24.8791 142.631 24.8154C142.94 24.688 143.148 24.5169 143.252 24.302C143.355 24.0854 143.406 23.8305 143.406 23.5374V10.1242H142.848C142.578 10.1242 142.256 10.1351 141.883 10.1606C141.51 10.1842 141.195 10.2116 140.94 10.2443C140.481 10.308 139.978 10.7541 139.434 11.5824C138.89 12.4089 138.493 13.1862 138.247 13.9108H137.317V9.06101H153.738V13.9108Z" fill="#0D1A27"/>
<path d="M166.041 13.4083C166.041 12.2778 165.724 11.4531 165.092 10.9306C164.459 10.4082 163.556 10.1478 162.385 10.1478H161.442V17.2422H162.35C163.521 17.2422 164.428 16.9364 165.074 16.3229C165.718 15.7094 166.041 14.7391 166.041 13.4083ZM174.174 26.0097H167.67C166.548 24.2893 165.616 22.9203 164.872 21.9008C164.127 20.8814 163.202 19.7035 162.097 18.3655H161.442V23.5138C161.442 23.7996 161.497 24.0417 161.604 24.242C161.711 24.4404 161.915 24.6079 162.219 24.7426C162.369 24.8063 162.607 24.8737 162.929 24.9392C163.252 25.0084 163.528 25.0539 163.759 25.0776V26.0097H154.717V25.0776C154.948 25.0539 155.254 25.0193 155.631 24.9756C156.01 24.9319 156.279 24.8791 156.437 24.8154C156.74 24.688 156.944 24.526 157.047 24.3312C157.151 24.1364 157.202 23.887 157.202 23.5848V11.6297C157.202 11.3421 157.158 11.1036 157.071 10.9124C156.984 10.7213 156.772 10.5538 156.437 10.41C156.183 10.308 155.882 10.2188 155.536 10.1478C155.19 10.0768 154.917 10.024 154.717 9.9931V9.06101H164.225C166.35 9.06101 167.965 9.39416 169.068 10.0586C170.171 10.7231 170.723 11.7298 170.723 13.0733C170.723 14.2603 170.382 15.2142 169.701 15.9351C169.021 16.656 167.983 17.2186 166.59 17.6245C167.131 18.3254 167.763 19.1374 168.484 20.0603C169.203 20.9851 169.953 21.9281 170.734 22.893C170.981 23.2025 171.318 23.583 171.744 24.0326C172.17 24.4823 172.545 24.759 172.873 24.8628C173.055 24.9174 173.288 24.9665 173.57 25.0066C173.854 25.0466 174.054 25.0703 174.174 25.0776V26.0097Z" fill="#0D1A27"/>
<path d="M183.71 19.1537L181.256 13.0278L178.84 19.1537H183.71ZM192.616 26.0097H183.382V25.0776C183.812 25.0466 184.316 24.9683 184.897 24.8446C185.476 24.7208 185.767 24.5678 185.767 24.3858C185.767 24.3221 185.76 24.2493 185.749 24.171C185.738 24.0909 185.703 23.9835 185.647 23.8469L184.202 20.3352H178.351C178.216 20.6629 178.068 21.0452 177.905 21.4821C177.743 21.9209 177.602 22.3104 177.484 22.6527C177.333 23.0987 177.244 23.4209 177.216 23.6194C177.189 23.8196 177.175 23.9598 177.175 24.0381C177.175 24.2929 177.367 24.5096 177.753 24.6898C178.139 24.8682 178.782 24.9975 179.679 25.0776V26.0097H172.729V25.0776C172.991 25.0612 173.29 25.0193 173.619 24.952C173.949 24.8846 174.211 24.7918 174.4 24.6716C174.728 24.4805 175.005 24.2456 175.232 23.9671C175.458 23.6885 175.647 23.3572 175.798 22.9749C176.723 20.7376 177.648 18.4965 178.574 16.2519C179.503 14.0054 180.528 11.5296 181.651 8.82253H184.04C185.6 12.6601 186.823 15.693 187.706 17.9231C188.591 20.1532 189.343 21.9991 189.963 23.4646C190.067 23.7049 190.198 23.9216 190.358 24.1164C190.517 24.3112 190.744 24.4968 191.039 24.6716C191.261 24.799 191.52 24.8937 191.815 24.9574C192.11 25.023 192.377 25.0612 192.616 25.0776V26.0097Z" fill="#0D1A27"/>
<path d="M211.079 10.0168C210.817 10.0404 210.566 10.0878 210.327 10.1606C210.089 10.2316 209.841 10.3426 209.588 10.4937C209.244 10.694 208.98 10.907 208.793 11.1327C208.605 11.3603 208.419 11.6734 208.237 12.0703C207.99 12.62 207.644 13.4229 207.198 14.4769C206.752 15.5328 206.242 16.7325 205.67 18.0797C205.161 19.2885 204.607 20.6138 204.016 22.0556C203.422 23.4974 202.854 24.8791 202.313 26.2008H199.912C198.798 23.4683 197.662 20.6939 196.508 17.8758C195.354 15.0558 194.542 13.0988 194.072 11.9993C193.888 11.6006 193.712 11.3002 193.541 11.0981C193.369 10.8942 193.096 10.6867 192.723 10.4701C192.452 10.319 192.213 10.2134 192.006 10.1551C191.798 10.095 191.524 10.0404 191.181 9.9931V9.06101H200.367V9.96943C199.506 10.0732 198.924 10.1824 198.618 10.2971C198.312 10.4136 198.159 10.5574 198.159 10.734C198.159 10.8214 198.172 10.9143 198.199 11.0144C198.228 11.1145 198.27 11.2474 198.327 11.4131C198.58 12.114 199.042 13.2572 199.71 14.8447C200.378 16.4321 201.37 18.8515 202.683 22.1047C203.488 20.1241 204.156 18.451 204.689 17.082C205.223 15.7149 205.692 14.5061 206.098 13.4556C206.297 12.9459 206.462 12.4708 206.593 12.0284C206.724 11.5878 206.792 11.2547 206.792 11.0326C206.792 10.7777 206.608 10.5647 206.242 10.3936C205.876 10.2225 205.199 10.0969 204.212 10.0168V9.06101H211.079V10.0168Z" fill="#0D1A27"/>
<path d="M226.438 13.3846H225.532C225.301 12.742 224.902 12.0921 224.336 11.4331C223.771 10.7741 223.211 10.3863 222.652 10.268C222.413 10.2116 222.082 10.177 221.656 10.166C221.23 10.1533 220.877 10.1478 220.598 10.1478H218.137V16.6815H219.883C220.32 16.6815 220.718 16.6306 221.075 16.525C221.434 16.423 221.762 16.2246 222.057 15.9279C222.239 15.7458 222.424 15.4236 222.61 14.9612C222.797 14.5006 222.919 14.0965 222.976 13.756H223.882V20.8268H222.976C222.929 20.4918 222.807 20.0713 222.61 19.5652C222.415 19.0609 222.231 18.7114 222.057 18.5202C221.793 18.2344 221.481 18.036 221.124 17.9304C220.766 17.8211 220.351 17.7684 219.883 17.7684H218.137V22.6527C218.137 23.1624 218.175 23.5666 218.252 23.8651C218.328 24.1637 218.468 24.3931 218.676 24.5515C218.874 24.7026 219.147 24.8027 219.493 24.85C219.841 24.8973 220.313 24.9228 220.91 24.9228C221.188 24.9228 221.521 24.9174 221.913 24.9101C222.302 24.9028 222.645 24.8791 222.939 24.8391C223.274 24.799 223.586 24.739 223.877 24.6589C224.166 24.5806 224.385 24.4641 224.527 24.313C224.911 23.9234 225.341 23.3281 225.818 22.5271C226.295 21.7279 226.61 21.129 226.761 20.7303H227.633L227.31 26.0097H211.414V25.0776C211.636 25.0612 211.94 25.0302 212.321 24.9829C212.703 24.9338 212.974 24.8791 213.134 24.8154C213.437 24.688 213.639 24.526 213.742 24.3312C213.846 24.1364 213.899 23.887 213.899 23.5848V11.6297C213.899 11.3421 213.853 11.1054 213.768 10.9179C213.679 10.7322 213.468 10.5629 213.134 10.41C212.927 10.3153 212.636 10.2279 212.262 10.1478C211.887 10.0696 211.605 10.0168 211.414 9.9931V9.06101H226.438V13.3846Z" fill="#0D1A27"/>
<path d="M245 20.5755L244.665 26.0097H229.054V25.0776C229.333 25.0539 229.659 25.0157 230.034 24.9647C230.409 24.9119 230.655 24.8628 230.775 24.8154C231.062 24.7026 231.261 24.5478 231.372 24.3494C231.483 24.1509 231.539 23.8943 231.539 23.5848V11.6297C231.539 11.3421 231.496 11.1054 231.408 10.9179C231.319 10.7322 231.11 10.5629 230.775 10.41C230.527 10.2989 230.232 10.2097 229.885 10.1424C229.539 10.075 229.262 10.024 229.054 9.9931V9.06101H238.359V9.9931C238.104 10.0168 237.804 10.0514 237.458 10.095C237.11 10.1387 236.81 10.2006 236.555 10.2789C236.245 10.3827 236.038 10.5447 235.934 10.7632C235.83 10.9816 235.779 11.231 235.779 11.5096V22.6527C235.779 23.1788 235.814 23.5921 235.887 23.8943C235.958 24.1983 236.098 24.4204 236.305 24.5642C236.511 24.7153 236.801 24.8136 237.17 24.8573C237.54 24.901 238.053 24.9228 238.705 24.9228C239.342 24.9228 239.961 24.8846 240.562 24.8081C241.164 24.7335 241.596 24.5678 241.858 24.313C242.264 23.907 242.681 23.3354 243.107 22.5999C243.533 21.8626 243.873 21.1872 244.128 20.5755H245Z" fill="#0D1A27"/>
</svg>
