<svg width="350" height="54" viewBox="0 0 350 54" fill="none" xmlns="http://www.w3.org/2000/svg">
<path d="M12.0753 13.791C13.8125 7.31014 18.6992 0.150465 26.0748 0.00482672C31.2917 -0.156416 35.6947 3.74721 38.1133 7.96551C40.5111 12.0746 41.6814 16.7064 42.0975 21.3772C42.7633 30.6148 40.6802 40.4116 34.6466 47.6649C31.1149 51.9664 25.1125 55.0846 19.5184 52.8013C13.425 50.289 10.6059 43.3842 10.0312 37.2648C10.801 39.3141 11.7268 41.2776 12.8399 43.0721C18.8032 52.7076 27.193 51.8026 32.5661 42.2399C36.4411 35.1608 37.5854 26.7034 36.5269 18.7531C33.7546 0.964478 21.3935 -2.07312 12.0753 13.791Z" fill="#67CDE2"/>
<path d="M43.0649 21.9179C47.8086 26.6615 51.5666 34.4766 48.0036 40.9367C45.533 45.5321 39.9519 47.3968 35.0886 47.3785C30.332 47.4046 25.7366 46.1016 21.4819 44.1251C13.1519 40.0836 5.70874 33.3791 2.44229 24.5316C0.481373 19.3198 0.785652 12.5632 5.5579 8.85986C10.7801 4.83921 18.1712 5.84827 23.7575 8.40994C21.5963 8.05365 19.4351 7.8716 17.3234 7.93922C5.99742 8.28771 2.58532 16.0039 8.18199 25.4392C12.3743 32.3362 19.1257 37.5532 26.5402 40.6116C43.3328 47.1055 52.1413 37.9199 43.0649 21.9179Z" fill="#F1A018"/>
<path d="M20.5092 44.6873C14.0257 46.4167 5.38108 45.7509 1.57369 39.4313C-1.16483 34.9893 0.0184795 29.2262 2.47092 25.0261C4.83234 20.8988 8.26264 17.5726 12.1064 14.8809C19.7759 9.6977 29.31 6.6159 38.6022 8.22312C44.0948 9.13856 49.7903 12.7873 50.6017 18.7715C51.4652 25.307 46.888 31.1975 41.8712 34.7475C43.2652 33.057 44.5031 31.2756 45.5044 29.4161C50.8774 19.4399 45.9101 12.6209 34.9404 12.7353C26.8705 12.9069 18.9722 16.137 12.611 21.0211C-1.4249 32.2976 2.10943 44.5234 20.5092 44.6873Z" fill="#83CD29"/>
<path d="M78.273 27.005L74.7673 18.2537L71.3162 27.005H78.273ZM90.9956 36.7991H77.8049V35.4676C78.4187 35.4234 79.1391 35.3115 79.9687 35.1347C80.7957 34.9578 81.2118 34.7394 81.2118 34.4793C81.2118 34.3883 81.2014 34.2843 81.1858 34.1724C81.1676 34.058 81.1208 33.9046 81.0401 33.7095L78.9752 28.6928H70.6166C70.4242 29.1609 70.2109 29.7071 69.9795 30.3312C69.748 30.958 69.5477 31.5145 69.3787 32.0035C69.1628 32.6406 69.0354 33.101 68.9964 33.3844C68.9548 33.6705 68.9366 33.8708 68.9366 33.9826C68.9366 34.3467 69.2123 34.6562 69.7636 34.9136C70.3149 35.1685 71.233 35.3531 72.5151 35.4676V36.7991H62.5857V35.4676C62.9602 35.4442 63.3841 35.3844 63.8574 35.2881C64.3282 35.1919 64.7027 35.0593 64.9757 34.8876C65.4413 34.6146 65.8366 34.2791 66.1617 33.8812C66.4841 33.4833 66.7546 33.0099 66.9705 32.4638C68.289 29.2676 69.6128 26.0661 70.9365 22.8595C72.2629 19.6502 73.727 16.1133 75.3317 12.2461H78.7437C80.9725 17.7283 82.7202 22.0611 83.9815 25.2469C85.2455 28.4327 86.3195 31.0698 87.2064 33.1634C87.3546 33.5067 87.5419 33.8161 87.7707 34.0944C87.997 34.3727 88.3221 34.638 88.7434 34.8876C89.0607 35.0697 89.4299 35.2049 89.8513 35.2959C90.2726 35.3896 90.6523 35.4442 90.9956 35.4676V36.7991Z" fill="white"/>
<path d="M113.72 19.5151H112.391C112.038 18.4801 111.473 17.3696 110.696 16.1889C109.921 15.0055 109.2 14.3684 108.542 14.2774C108.181 14.2305 107.731 14.1915 107.198 14.1577C106.665 14.1213 106.204 14.1057 105.819 14.1057H105.021V33.0959C105.021 33.5068 105.094 33.8683 105.242 34.1804C105.39 34.4925 105.679 34.7395 106.111 34.9216C106.373 35.0256 106.779 35.1296 107.33 35.2362C107.884 35.3455 108.353 35.4235 108.74 35.4677V36.7993H95.2425V35.4677C95.5728 35.4339 96.0357 35.3845 96.6338 35.3221C97.232 35.2597 97.6377 35.1842 97.8536 35.0932C98.2983 34.9112 98.5922 34.6667 98.7404 34.3598C98.8886 34.0503 98.9614 33.6862 98.9614 33.2675V14.1057H98.163C97.7755 14.1057 97.3178 14.1213 96.7847 14.1577C96.2515 14.1915 95.8016 14.2305 95.4401 14.2774C94.7796 14.3684 94.0644 15.0055 93.2868 16.1889C92.5092 17.3696 91.9422 18.4801 91.5911 19.5151H90.2622V12.5869H113.72V19.5151Z" fill="white"/>
<path d="M137.899 29.0362L137.42 36.7993H115.119V35.4677C115.52 35.4339 115.986 35.3793 116.519 35.3065C117.054 35.231 117.408 35.1608 117.577 35.0932C117.988 34.932 118.272 34.7109 118.43 34.4274C118.589 34.144 118.669 33.7773 118.669 33.3351V16.2565C118.669 15.8456 118.607 15.5075 118.482 15.2396C118.357 14.9743 118.056 14.7325 117.577 14.514C117.223 14.3554 116.802 14.2279 116.305 14.1317C115.811 14.0355 115.416 13.9627 115.119 13.9185V12.5869H128.412V13.9185C128.047 13.9523 127.618 14.0017 127.124 14.0641C126.63 14.1265 126.201 14.2149 125.834 14.3268C125.392 14.475 125.096 14.7065 124.947 15.0186C124.799 15.3306 124.726 15.6869 124.726 16.0848V32.0036C124.726 32.7552 124.778 33.3456 124.88 33.7773C124.984 34.2116 125.182 34.5289 125.478 34.7343C125.772 34.9502 126.185 35.0906 126.713 35.153C127.244 35.2154 127.975 35.2466 128.906 35.2466C129.816 35.2466 130.7 35.192 131.561 35.0828C132.419 34.9762 133.036 34.7395 133.413 34.3754C133.99 33.7955 134.586 32.9789 135.194 31.9282C135.803 30.8749 136.289 29.9101 136.653 29.0362H137.899Z" fill="white"/>
<path d="M152.629 27.005L149.126 18.2537L145.672 27.005H152.629ZM165.352 36.7991H152.164V35.4676C152.775 35.4234 153.498 35.3115 154.325 35.1347C155.154 34.9578 155.568 34.7394 155.568 34.4793C155.568 34.3883 155.56 34.2843 155.542 34.1724C155.526 34.058 155.477 33.9046 155.399 33.7095L153.331 28.6928H144.973C144.78 29.1609 144.57 29.7071 144.338 30.3312C144.104 30.958 143.906 31.5145 143.735 32.0035C143.522 32.6406 143.391 33.101 143.352 33.3844C143.313 33.6705 143.293 33.8708 143.293 33.9826C143.293 34.3467 143.568 34.6562 144.12 34.9136C144.671 35.1685 145.589 35.3531 146.874 35.4676V36.7991H136.944V35.4676C137.319 35.4442 137.743 35.3844 138.214 35.2881C138.687 35.1919 139.059 35.0593 139.332 34.8876C139.797 34.6146 140.193 34.2791 140.518 33.8812C140.843 33.4833 141.111 33.0099 141.329 32.4638C142.648 29.2676 143.969 26.0661 145.295 22.8595C146.622 19.6502 148.086 16.1133 149.688 12.2461H153.1C155.331 17.7283 157.076 22.0611 158.34 25.2469C159.602 28.4327 160.676 31.0698 161.562 33.1634C161.713 33.5067 161.901 33.8161 162.127 34.0944C162.356 34.3727 162.678 34.638 163.099 34.8876C163.417 35.0697 163.789 35.2049 164.21 35.2959C164.629 35.3896 165.011 35.4442 165.352 35.4676V36.7991Z" fill="white"/>
<path d="M175.726 37.4627C174.246 37.4627 172.868 37.2806 171.588 36.9087C170.309 36.5394 169.224 36.1051 168.337 35.6032L167.162 36.7995H165.711L165.489 28.0456H166.956C167.287 28.8778 167.705 29.7569 168.218 30.6801C168.73 31.6033 169.32 32.4304 169.994 33.1586C170.686 33.9231 171.463 34.5447 172.321 35.0232C173.18 35.5018 174.184 35.741 175.333 35.741C176.88 35.741 178.066 35.3639 178.891 34.6045C179.715 33.8477 180.129 32.8959 180.129 31.7438C180.129 30.7997 179.778 30.0065 179.078 29.3616C178.378 28.7192 177.297 28.1626 175.827 27.6945C174.873 27.3876 173.994 27.1016 173.193 26.8389C172.389 26.5762 171.637 26.3084 170.933 26.0327C169.305 25.3825 168.095 24.4541 167.305 23.2474C166.514 22.0406 166.119 20.6909 166.119 19.1981C166.119 18.254 166.324 17.3464 166.735 16.4752C167.144 15.604 167.739 14.8211 168.524 14.1242C169.276 13.4766 170.236 12.9487 171.409 12.5377C172.582 12.1268 173.853 11.9214 175.232 11.9214C176.574 11.9214 177.83 12.1086 179.003 12.4857C180.173 12.8602 181.094 13.2347 181.765 13.6118L182.807 12.5872H184.29L184.428 20.8443H182.961C182.618 19.9549 182.217 19.0473 181.757 18.1162C181.296 17.1878 180.81 16.4154 180.298 15.799C179.741 15.1384 179.099 14.6131 178.371 14.2178C177.642 13.8251 176.789 13.6274 175.812 13.6274C174.581 13.6274 173.578 13.9759 172.8 14.6703C172.02 15.3673 171.632 16.2255 171.632 17.2528C171.632 18.2202 171.97 19.0108 172.647 19.6272C173.323 20.2436 174.379 20.7819 175.812 21.25C176.654 21.5361 177.512 21.8196 178.386 22.1057C179.263 22.3891 180.043 22.6622 180.724 22.9249C182.373 23.562 183.629 24.4437 184.487 25.5646C185.346 26.6881 185.775 28.0794 185.775 29.7413C185.775 30.7893 185.53 31.8036 185.041 32.7841C184.552 33.7619 183.892 34.5759 183.062 35.2261C182.152 35.9439 181.101 36.4978 179.905 36.8827C178.711 37.2702 177.317 37.4627 175.726 37.4627Z" fill="white"/>
<path d="M219.628 19.5151H218.296C217.945 18.4801 217.381 17.3696 216.603 16.1889C215.826 15.0055 215.108 14.3684 214.45 14.2774C214.086 14.2305 213.636 14.1915 213.103 14.1577C212.57 14.1213 212.112 14.1057 211.724 14.1057H210.926V33.0959C210.926 33.5068 210.999 33.8683 211.147 34.1804C211.295 34.4925 211.584 34.7395 212.018 34.9216C212.278 35.0256 212.684 35.1296 213.238 35.2362C213.787 35.3455 214.257 35.4235 214.645 35.4677V36.7993H201.147V35.4677C201.478 35.4339 201.941 35.3845 202.539 35.3221C203.134 35.2597 203.543 35.1842 203.759 35.0932C204.203 34.9112 204.497 34.6667 204.645 34.3598C204.794 34.0503 204.869 33.6862 204.869 33.2675V14.1057H204.068C203.683 14.1057 203.223 14.1213 202.69 14.1577C202.156 14.1915 201.707 14.2305 201.345 14.2774C200.687 14.3684 199.969 15.0055 199.192 16.1889C198.414 17.3696 197.85 18.4801 197.496 19.5151H196.167V12.5869H219.628V19.5151Z" fill="white"/>
<path d="M237.201 18.7973C237.201 17.1823 236.748 16.0042 235.846 15.2578C234.941 14.5114 233.651 14.1395 231.981 14.1395H230.631V24.2744H231.929C233.601 24.2744 234.896 23.8375 235.82 22.961C236.74 22.0846 237.201 20.6984 237.201 18.7973ZM248.821 36.7993H239.528C237.926 34.3416 236.595 32.3859 235.531 30.9295C234.467 29.4731 233.146 27.7905 231.568 25.879H230.631V33.2337C230.631 33.642 230.709 33.9879 230.863 34.274C231.016 34.5575 231.308 34.7967 231.742 34.9892C231.958 35.0802 232.296 35.1764 232.756 35.2701C233.216 35.3689 233.612 35.4339 233.942 35.4677V36.7993H221.027V35.4677C221.355 35.4339 221.792 35.3845 222.33 35.3221C222.871 35.2597 223.256 35.1842 223.482 35.0932C223.914 34.9112 224.205 34.6797 224.353 34.4014C224.502 34.1232 224.574 33.7669 224.574 33.3351V16.2565C224.574 15.8456 224.512 15.5049 224.387 15.2318C224.262 14.9587 223.961 14.7195 223.482 14.514C223.118 14.3684 222.689 14.2409 222.195 14.1395C221.701 14.0381 221.31 13.9627 221.027 13.9185V12.5869H234.608C237.645 12.5869 239.95 13.0628 241.526 14.0121C243.102 14.9613 243.89 16.3995 243.89 18.3188C243.89 20.0145 243.403 21.3772 242.431 22.4071C241.458 23.437 239.976 24.2406 237.986 24.8205C238.758 25.8218 239.661 26.9817 240.691 28.3002C241.721 29.6214 242.79 30.9685 243.905 32.3469C244.259 32.789 244.74 33.3325 245.349 33.9749C245.957 34.6173 246.493 35.0126 246.961 35.1608C247.221 35.2388 247.554 35.3091 247.96 35.3663C248.363 35.4235 248.649 35.4573 248.821 35.4677V36.7993Z" fill="white"/>
<path d="M262.443 27.005L258.937 18.2537L255.486 27.005H262.443ZM275.165 36.7991H261.975V35.4676C262.589 35.4234 263.309 35.3115 264.139 35.1347C264.968 34.9578 265.382 34.7394 265.382 34.4793C265.382 34.3883 265.371 34.2843 265.356 34.1724C265.34 34.058 265.291 33.9046 265.21 33.7095L263.145 28.6928H254.786C254.594 29.1609 254.383 29.7071 254.149 30.3312C253.918 30.958 253.718 31.5145 253.549 32.0035C253.333 32.6406 253.205 33.101 253.166 33.3844C253.127 33.6705 253.106 33.8708 253.106 33.9826C253.106 34.3467 253.382 34.6562 253.933 34.9136C254.485 35.1685 255.403 35.3531 256.685 35.4676V36.7991H246.756V35.4676C247.133 35.4442 247.557 35.3844 248.027 35.2881C248.498 35.1919 248.873 35.0593 249.143 34.8876C249.611 34.6146 250.006 34.2791 250.331 33.8812C250.654 33.4833 250.924 33.0099 251.14 32.4638C252.461 29.2676 253.783 26.0661 255.106 22.8595C256.433 19.6502 257.897 16.1133 259.501 12.2461H262.914C265.142 17.7283 266.89 22.0611 268.151 25.2469C269.415 28.4327 270.489 31.0698 271.376 33.1634C271.524 33.5067 271.712 33.8161 271.941 34.0944C272.167 34.3727 272.492 34.638 272.913 34.8876C273.23 35.0697 273.6 35.2049 274.021 35.2959C274.442 35.3896 274.825 35.4442 275.165 35.4676V36.7991Z" fill="white"/>
<path d="M301.544 13.9523C301.167 13.9861 300.808 14.0537 300.467 14.1577C300.127 14.2592 299.773 14.4178 299.412 14.6337C298.92 14.9197 298.543 15.224 298.275 15.5465C298.007 15.8716 297.745 16.3189 297.482 16.8858C297.131 17.6712 296.634 18.8181 295.997 20.3239C295.36 21.8323 294.634 23.5462 293.815 25.4707C293.087 27.1975 292.299 29.0908 291.451 31.1506C290.603 33.2103 289.792 35.1842 289.019 37.0723H285.589C283.997 33.1687 282.377 29.2053 280.726 25.1794C279.077 21.151 277.917 18.3552 277.246 16.7844C276.986 16.2149 276.731 15.7858 276.487 15.4971C276.242 15.2058 275.852 14.9093 275.319 14.5998C274.931 14.384 274.591 14.2331 274.294 14.1499C273.998 14.0641 273.608 13.9861 273.116 13.9185V12.5869H286.239V13.8847C285.012 14.0329 284.177 14.1889 283.74 14.3528C283.303 14.5192 283.084 14.7247 283.084 14.9769C283.084 15.1018 283.103 15.2344 283.144 15.3774C283.183 15.5205 283.243 15.7103 283.324 15.947C283.685 16.9483 284.346 18.5815 285.3 20.8493C286.257 23.1171 287.672 26.5734 289.547 31.2208C290.697 28.3913 291.651 26.0012 292.413 24.0455C293.175 22.0924 293.846 20.3656 294.426 18.865C294.712 18.1368 294.946 17.458 295.136 16.826C295.323 16.1967 295.417 15.7207 295.417 15.4035C295.417 15.0394 295.154 14.7351 294.631 14.4906C294.109 14.2461 293.141 14.0667 291.732 13.9523V12.5869H301.544V13.9523Z" fill="white"/>
<path d="M323.483 18.7635H322.188C321.858 17.8455 321.288 16.917 320.482 15.9756C319.673 15.0342 318.872 14.4802 318.077 14.3112C317.733 14.2305 317.26 14.1811 316.651 14.1655C316.043 14.1473 315.538 14.1395 315.14 14.1395H311.624V23.4734H314.118C314.743 23.4734 315.312 23.4005 315.824 23.2497C316.334 23.1041 316.802 22.8206 317.224 22.3967C317.484 22.1366 317.749 21.6763 318.017 21.0157C318.282 20.3577 318.456 19.7804 318.537 19.2941H319.832V29.3951H318.537C318.469 28.9166 318.295 28.3158 318.017 27.5928C317.736 26.8725 317.473 26.3731 317.224 26.1001C316.847 25.6917 316.404 25.4083 315.892 25.2574C315.38 25.1014 314.787 25.026 314.118 25.026H311.624V32.0036C311.624 32.7318 311.679 33.3091 311.788 33.7357C311.897 34.1622 312.098 34.4898 312.394 34.7161C312.678 34.932 313.068 35.075 313.562 35.1426C314.059 35.2102 314.732 35.2466 315.585 35.2466C315.983 35.2466 316.462 35.2388 317.018 35.2284C317.575 35.218 318.064 35.1842 318.485 35.127C318.963 35.0698 319.408 34.984 319.824 34.8695C320.24 34.7577 320.55 34.5913 320.753 34.3754C321.301 33.8189 321.915 32.9685 322.597 31.8242C323.278 30.6825 323.728 29.8268 323.944 29.2573H325.189L324.729 36.7993H302.02V35.4677C302.337 35.4443 302.772 35.4001 303.318 35.3325C303.861 35.2623 304.249 35.1842 304.478 35.0932C304.909 34.9112 305.201 34.6797 305.346 34.4014C305.495 34.1232 305.57 33.7669 305.57 33.3351V16.2565C305.57 15.8456 305.508 15.5075 305.383 15.2396C305.255 14.9743 304.956 14.7325 304.478 14.514C304.181 14.3788 303.765 14.254 303.232 14.1395C302.696 14.0277 302.293 13.9523 302.02 13.9185V12.5869H323.483V18.7635Z" fill="white"/>
<path d="M350 29.0362L349.521 36.7993H327.221V35.4677C327.619 35.4339 328.087 35.3793 328.62 35.3065C329.156 35.231 329.507 35.1608 329.678 35.0932C330.089 34.932 330.373 34.7109 330.531 34.4274C330.69 34.144 330.771 33.7773 330.771 33.3351V16.2565C330.771 15.8456 330.708 15.5075 330.583 15.2396C330.456 14.9743 330.157 14.7325 329.678 14.514C329.325 14.3554 328.903 14.2279 328.407 14.1317C327.912 14.0355 327.517 13.9627 327.221 13.9185V12.5869H340.513V13.9185C340.149 13.9523 339.72 14.0017 339.225 14.0641C338.729 14.1265 338.3 14.2149 337.935 14.3268C337.493 14.475 337.197 14.7065 337.049 15.0186C336.9 15.3306 336.828 15.6869 336.828 16.0848V32.0036C336.828 32.7552 336.88 33.3456 336.981 33.7773C337.082 34.2116 337.283 34.5289 337.579 34.7343C337.873 34.9502 338.287 35.0906 338.814 35.153C339.345 35.2154 340.076 35.2466 341.007 35.2466C341.917 35.2466 342.801 35.192 343.66 35.0828C344.52 34.9762 345.137 34.7395 345.511 34.3754C346.091 33.7955 346.687 32.9789 347.295 31.9282C347.904 30.8749 348.39 29.9101 348.754 29.0362H350Z" fill="white"/>
</svg>
