<svg width="18" height="22" viewBox="0 0 18 22" fill="none" xmlns="http://www.w3.org/2000/svg">
<path d="M17.9762 5.75283C16.6776 5.50295 15.521 4.7725 14.7372 3.7073C13.7467 2.93206 13.0672 1.82707 12.8225 0.593262H9.96172V15.2907C9.96166 15.9882 9.73335 16.6666 9.31165 17.2222C8.88995 17.7778 8.29802 18.1802 7.62621 18.3679C6.95441 18.5556 6.23963 18.5184 5.59099 18.2618C4.94235 18.0052 4.39548 17.5435 4.03385 16.947C3.39077 16.5284 2.91977 15.8924 2.70692 15.1552C2.49406 14.418 2.55356 13.6289 2.87454 12.9319C3.19553 12.235 3.75656 11.6768 4.45513 11.3594C5.1537 11.0419 5.94316 10.9865 6.67926 11.2031V8.51817C5.41668 8.53443 4.18377 8.90329 3.11971 9.58311C2.05565 10.2629 1.2028 11.2267 0.657424 12.3655C0.112048 13.5043 -0.104138 14.7729 0.0332679 16.0281C0.170674 17.2833 0.6562 18.4751 1.43504 19.469C2.42381 20.294 3.62729 20.8201 4.9044 20.9856C6.1815 21.151 7.47931 20.949 8.64567 20.4031C9.81204 19.8573 10.7986 18.9902 11.4898 17.9036C12.181 16.8171 12.5481 15.556 12.548 14.2682L12.6575 6.83912C14.1997 7.97121 16.0635 8.58034 17.9766 8.57749L17.9762 5.75283Z" fill="url(#paint0_linear_83_1354)"/>
<defs>
<linearGradient id="paint0_linear_83_1354" x1="-8.94202" y1="29.0305" x2="27.4606" y2="-7.37215" gradientUnits="userSpaceOnUse">
<stop stop-color="#DDE3E4"/>
<stop offset="1" stop-color="#FCF7F7"/>
</linearGradient>
</defs>
</svg>
