<svg width="21" height="22" viewBox="0 0 21 22" fill="none" xmlns="http://www.w3.org/2000/svg">
<path d="M17.9268 3.6333C15.9512 1.66455 13.3171 0.570801 10.5366 0.570801C4.7561 0.570801 0.0731696 5.23747 0.0731696 10.9979C0.0731696 12.8208 0.585366 14.6437 1.46341 16.175L0 21.5708L5.56098 20.1125C7.09756 20.9146 8.78049 21.3521 10.5366 21.3521C16.3171 21.3521 21 16.6854 21 10.925C20.9268 8.22705 19.9024 5.60205 17.9268 3.6333ZM15.5854 14.7166C15.3659 15.3 14.3415 15.8833 13.8293 15.9562C13.3902 16.0291 12.8049 16.0291 12.2195 15.8833C11.8537 15.7375 11.3415 15.5916 10.7561 15.3C8.12195 14.2062 6.43903 11.5812 6.29269 11.3625C6.14634 11.2166 5.19512 9.97705 5.19512 8.66455C5.19512 7.35205 5.85366 6.76872 6.07317 6.47705C6.29268 6.18538 6.58537 6.18538 6.80488 6.18538C6.95122 6.18538 7.17073 6.18538 7.31707 6.18538C7.46341 6.18538 7.68293 6.11247 7.90244 6.62288C8.12195 7.1333 8.63415 8.4458 8.70732 8.51872C8.78049 8.66455 8.78049 8.81039 8.70732 8.95622C8.63415 9.10205 8.56097 9.24788 8.41463 9.39372C8.26829 9.53955 8.12195 9.7583 8.04878 9.83122C7.90244 9.97705 7.7561 10.1229 7.90244 10.3416C8.04878 10.6333 8.56098 11.4354 9.36586 12.1646C10.3902 13.0396 11.1951 13.3312 11.4878 13.4771C11.7805 13.6229 11.9268 13.55 12.0732 13.4041C12.2195 13.2583 12.7317 12.675 12.8781 12.3833C13.0244 12.0916 13.2439 12.1646 13.4634 12.2375C13.6829 12.3104 15 12.9666 15.2195 13.1125C15.5122 13.2583 15.6585 13.3312 15.7317 13.4041C15.8049 13.6229 15.8049 14.1333 15.5854 14.7166Z" fill="white"/>
</svg>
