<svg width="22" height="16" viewBox="0 0 22 16" fill="none" xmlns="http://www.w3.org/2000/svg">
<path fill-rule="evenodd" clip-rule="evenodd" d="M2.26249 14.6276C1.87023 14.5116 1.51232 14.3051 1.21896 14.0257C0.925599 13.7462 0.705403 13.402 0.576947 13.022C-0.157079 11.0582 -0.374569 2.85773 1.03911 1.23887C1.50961 0.71225 2.17389 0.388019 2.88777 0.33656C6.68024 -0.0615196 18.3975 -0.00844183 19.7432 0.469254C20.1217 0.589124 20.4675 0.791057 20.7547 1.05992C21.0419 1.32879 21.263 1.65762 21.4015 2.02176C22.2035 4.05197 22.2307 11.4297 21.2928 13.3803C21.044 13.8881 20.6275 14.2993 20.1102 14.548C18.6965 15.238 4.13833 15.2247 2.26249 14.6276ZM8.28422 10.7795L15.0808 7.32949L8.28422 3.85293V10.7795Z" fill="white"/>
</svg>
